<svg width="722" height="118" viewBox="0 0 722 118" fill="none" xmlns="http://www.w3.org/2000/svg">
<path d="M34.8055 49.5852H91.3149V66.9602H34.8055V49.5852ZM36.4294 98.3002H100.571V116H15.3195V2.33167H98.2974V20.0315H36.4294V98.3002ZM117.608 116V2.33167H164.375C174.443 2.33167 183.049 3.95551 190.194 7.20318C197.447 10.4508 203.022 15.1058 206.919 21.1681C210.816 27.2305 212.765 34.4294 212.765 42.7651C212.765 51.1008 210.816 58.2998 206.919 64.3621C203.022 70.3162 197.447 74.917 190.194 78.1647C183.049 81.3041 174.443 82.8738 164.375 82.8738H129.3L138.718 73.2932V116H117.608ZM191.98 116L163.238 74.7546H185.809L214.714 116H191.98ZM138.718 75.5666L129.3 65.4988H163.4C172.71 65.4988 179.693 63.4961 184.348 59.4906C189.111 55.4851 191.493 49.91 191.493 42.7651C191.493 35.512 189.111 29.9368 184.348 26.0396C179.693 22.1424 172.71 20.1938 163.4 20.1938H129.3L138.718 9.8013V75.5666ZM282.5 117.624C273.839 117.624 265.774 116.217 258.305 113.402C250.943 110.479 244.502 106.419 238.981 101.223C233.568 95.9186 229.346 89.6939 226.315 82.549C223.284 75.4042 221.768 67.6098 221.768 59.1658C221.768 50.7219 223.284 42.9275 226.315 35.7826C229.346 28.6378 233.622 22.4672 239.143 17.2709C244.664 11.9664 251.106 7.90684 258.467 5.09219C265.828 2.16929 273.893 0.707839 282.662 0.707839C291.972 0.707839 300.47 2.33167 308.156 5.57934C315.842 8.71875 322.338 13.4279 327.642 19.7067L314.002 32.535C309.888 28.0965 305.288 24.7947 300.199 22.6296C295.111 20.3562 289.59 19.2195 283.636 19.2195C277.682 19.2195 272.215 20.1938 267.236 22.1424C262.364 24.091 258.088 26.8516 254.407 30.424C250.835 33.9964 248.02 38.2184 245.963 43.0899C244.015 47.9614 243.041 53.32 243.041 59.1658C243.041 65.0116 244.015 70.3703 245.963 75.2418C248.02 80.1133 250.835 84.3353 254.407 87.9077C258.088 91.4801 262.364 94.2406 267.236 96.1892C272.215 98.1378 277.682 99.1121 283.636 99.1121C289.59 99.1121 295.111 98.0296 300.199 95.8645C305.288 93.5911 309.888 90.1811 314.002 85.6343L327.642 98.625C322.338 104.796 315.842 109.505 308.156 112.752C300.47 116 291.918 117.624 282.5 117.624ZM334.882 79.3014V62.4135H379.538V79.3014H334.882ZM406.493 116L453.422 10.7756L458.943 20.1938H394.477L404.545 9.96369V39.5175H384.896V2.33167H473.233V16.459L429.065 116H406.493ZM478.331 116V101.873L523.474 59.0035C527.263 55.431 530.078 52.2916 531.918 49.5852C533.758 46.8788 534.949 44.389 535.49 42.1156C536.14 39.734 536.465 37.5147 536.465 35.4579C536.465 30.2616 534.678 26.2561 531.106 23.4415C527.534 20.5186 522.283 19.0572 515.355 19.0572C509.834 19.0572 504.8 20.0315 500.253 21.9801C495.815 23.9287 491.972 26.9057 488.724 30.9111L473.947 19.5443C478.386 13.5902 484.34 8.98939 491.809 5.74173C499.387 2.3858 507.831 0.707839 517.141 0.707839C525.368 0.707839 532.513 2.06103 538.576 4.76742C544.746 7.36556 549.455 11.1004 552.703 15.9719C556.059 20.8434 557.737 26.635 557.737 33.3469C557.737 37.0276 557.25 40.7083 556.275 44.389C555.301 47.9614 553.461 51.7503 550.754 55.7558C548.048 59.7612 544.097 64.2538 538.9 69.2336L500.091 106.095L495.706 98.1378H562.121V116H478.331ZM613.439 117.624C604.021 117.624 595.848 116.217 588.92 113.402C581.991 110.587 576.633 106.636 572.844 101.548C569.055 96.3516 567.16 90.2893 567.16 83.361C567.16 76.4326 569.001 70.5868 572.681 65.8236C576.362 61.0603 581.666 57.4337 588.595 54.9439C595.523 52.454 603.805 51.2091 613.439 51.2091C623.074 51.2091 631.356 52.454 638.284 54.9439C645.321 57.4337 650.679 61.1144 654.36 65.9859C658.149 70.7492 660.044 76.5409 660.044 83.361C660.044 90.2893 658.095 96.3516 654.198 101.548C650.409 106.636 644.996 110.587 637.959 113.402C631.031 116.217 622.858 117.624 613.439 117.624ZM613.439 101.061C621.234 101.061 627.404 99.4369 631.951 96.1892C636.498 92.9416 638.771 88.449 638.771 82.7114C638.771 77.0821 636.498 72.6437 631.951 69.396C627.404 66.1483 621.234 64.5245 613.439 64.5245C605.645 64.5245 599.529 66.1483 595.09 69.396C590.652 72.6437 588.432 77.0821 588.432 82.7114C588.432 88.449 590.652 92.9416 595.09 96.1892C599.529 99.4369 605.645 101.061 613.439 101.061ZM613.439 62.2511C604.671 62.2511 597.147 61.1144 590.868 58.8411C584.589 56.4594 579.718 53.0494 576.254 48.6109C572.898 44.0642 571.22 38.6514 571.22 32.3726C571.22 25.8773 572.952 20.3021 576.416 15.6471C579.989 10.8839 584.968 7.20317 591.355 4.60504C597.742 2.00691 605.104 0.707839 613.439 0.707839C621.883 0.707839 629.299 2.00691 635.686 4.60504C642.073 7.20317 647.053 10.8839 650.625 15.6471C654.198 20.3021 655.984 25.8773 655.984 32.3726C655.984 38.6514 654.252 44.0642 650.788 48.6109C647.432 53.0494 642.56 56.4594 636.173 58.8411C629.786 61.1144 622.208 62.2511 613.439 62.2511ZM613.439 49.2605C620.151 49.2605 625.456 47.8531 629.353 45.0385C633.25 42.1156 635.199 38.2184 635.199 33.3469C635.199 28.2589 633.196 24.3075 629.191 21.4929C625.185 18.6783 619.935 17.2709 613.439 17.2709C606.944 17.2709 601.748 18.6783 597.851 21.4929C593.953 24.3075 592.005 28.2589 592.005 33.3469C592.005 38.2184 593.899 42.1156 597.688 45.0385C601.586 47.8531 606.836 49.2605 613.439 49.2605ZM685.431 116V10.4508L694.687 20.0315H661.398V2.33167H706.541V116H685.431Z" fill="#F8FAFC"/>
</svg>
