<svg width="130" height="60" viewBox="0 0 130 60" fill="none" xmlns="http://www.w3.org/2000/svg">
<path d="M43.5002 27.8536C35.8475 29.8231 29.822 35.8486 27.8525 43.5012C27.4051 45.2411 27.1667 47.0654 27.1667 48.9461H32.6116C32.6116 47.0372 32.9387 45.2042 33.5411 43.5012C35.1812 38.8602 38.8592 35.1823 43.5002 33.5422C45.2032 32.9398 47.0362 32.6127 48.945 32.6127V27.1678C47.0654 27.1667 45.2411 27.4051 43.5002 27.8536Z" fill="black"/>
<path d="M33.541 16.2781C32.9387 14.5751 32.6115 12.7421 32.6115 10.8333H27.1667C27.1667 12.7421 26.8395 14.5751 26.2372 16.2781C24.597 20.9191 20.9191 24.5971 16.2781 26.2372C14.5751 26.8396 12.7421 27.1667 10.8333 27.1667V32.6116C12.7421 32.6116 14.5751 32.9387 16.2781 33.5411C20.593 35.0664 24.0738 38.3543 25.8602 42.5381C26.4755 40.3162 27.3953 38.2254 28.5783 36.3166C26.6933 33.6732 24.2308 31.4719 21.3773 29.8902C24.9513 27.9088 27.9088 24.9513 29.8902 21.3774C31.4729 24.2309 33.6732 26.6933 36.3165 28.5783C38.2253 27.3953 40.3162 26.4756 42.5381 25.8602C38.3543 24.0727 35.0663 20.5931 33.541 16.2781Z" fill="black"/>
<path d="M66.0703 21.3774L58.4728 38.4009H61.5213L63.4854 33.9799H72.4652L74.4293 38.4009H77.5287L69.9313 21.3774H66.0703ZM64.5807 31.5153L66.8828 26.3326L67.874 23.9189H68.0777L69.0689 26.3326L71.371 31.5153H64.5807Z" fill="black"/>
<path d="M102.208 26.1289C101.598 25.7227 100.811 25.519 99.8454 25.519C98.9819 25.519 98.2485 25.6804 97.6473 26.0011C97.046 26.3228 96.5672 26.7594 96.2119 27.3098C95.8565 27.8601 95.6193 28.483 95.5001 29.1774H95.3224V25.7725H92.8069V38.3998H95.551V31.3116C95.551 30.1936 95.7883 29.3388 96.2628 28.7452C96.7362 28.1526 97.5162 27.8558 98.6006 27.8558C99.5485 27.8558 100.227 28.0681 100.633 28.4906C101.039 28.9142 101.243 29.5826 101.243 30.498V31.616H103.962V29.965C103.962 29.1688 103.822 28.4321 103.543 27.755C103.263 27.0779 102.818 26.5352 102.208 26.1289Z" fill="black"/>
<path d="M119.167 31.0581V30.8046C119.167 29.7375 118.883 28.8102 118.315 28.0226C117.747 27.235 116.973 26.6207 115.99 26.1809C115.008 25.74 113.881 25.5201 112.611 25.5201C111.223 25.5201 110.011 25.7952 108.978 26.3456C107.944 26.8959 107.144 27.6629 106.576 28.6444C106.008 29.627 105.726 30.7786 105.726 32.1002C105.726 33.3872 106.008 34.5269 106.576 35.5182C107.144 36.5094 107.944 37.2797 108.978 37.83C110.01 38.3803 111.223 38.6555 112.611 38.6555C113.882 38.6555 115.008 38.4356 115.99 37.9947C116.973 37.5548 117.747 36.9362 118.315 36.14C118.883 35.3437 119.167 34.4207 119.167 33.371V33.0915H116.447V33.2692C116.447 34.2517 116.108 34.9841 115.431 35.4672C114.753 35.9504 113.797 36.1909 112.56 36.1909C111.138 36.1909 110.096 35.8475 109.435 35.1617C108.774 34.476 108.444 33.4555 108.444 32.1002C108.444 30.7287 108.774 29.6996 109.435 29.0127C110.096 28.327 111.137 27.9836 112.56 27.9836C113.797 27.9836 114.754 28.2252 115.431 28.7083C116.108 29.1904 116.447 29.9238 116.447 30.9064V31.0592H119.167V31.0581Z" fill="black"/>
<path d="M88.1616 26.1918C87.3058 25.7433 86.2094 25.519 84.8715 25.519C83.5336 25.519 82.3853 25.7389 81.4287 26.1798C80.471 26.6208 79.7387 27.2177 79.2306 27.9706C78.7225 28.7246 78.469 29.5837 78.469 30.55V30.6518H81.1882V30.55C81.1882 29.6183 81.4764 28.9488 82.0516 28.5426C82.6269 28.1363 83.5 27.9327 84.6689 27.9327C85.8888 27.9327 86.7478 28.1407 87.2483 28.5556C87.7478 28.9705 87.998 29.7039 87.998 30.7537V31.4914L82.2563 32.0992C81.4265 32.201 80.7061 32.3787 80.0962 32.6322C79.4863 32.8868 79.0161 33.2378 78.6857 33.6863C78.3878 34.0914 78.2318 34.5865 78.2025 35.1628L79.379 37.7997C80.146 38.3684 81.1719 38.6544 82.4589 38.6544C83.8987 38.6544 85.0968 38.3543 86.0545 37.7531C87.0111 37.1518 87.6589 36.3177 87.998 35.2506H88.1757V38.4009H90.6912V30.7277C90.6912 29.7115 90.4832 28.8134 90.0683 28.0345C89.6523 27.2556 89.0174 26.6413 88.1616 26.1918ZM87.387 35.1488C86.9808 35.6742 86.4218 36.0588 85.71 36.3047C84.9983 36.5506 84.1598 36.673 83.1945 36.673C82.4156 36.673 81.8436 36.5506 81.4796 36.3047C81.1156 36.0598 80.9336 35.6818 80.9336 35.1737C80.9336 34.6829 81.1069 34.3319 81.4547 34.1196C81.8013 33.9083 82.3311 33.7599 83.0428 33.6743L87.9969 33.1186C87.9959 33.9484 87.7933 34.6244 87.387 35.1488Z" fill="black"/>
</svg>
