<?xml version="1.0" encoding="UTF-8" standalone="no" ?>
<!DOCTYPE svg PUBLIC "-//W3C//DTD SVG 1.1//EN" "http://www.w3.org/Graphics/SVG/1.1/DTD/svg11.dtd">
<svg xmlns="http://www.w3.org/2000/svg" xmlns:xlink="http://www.w3.org/1999/xlink" version="1.1" width="1080" height="1080" viewBox="0 0 1080 1080" xml:space="preserve">
<desc>Created with Fabric.js 5.2.4</desc>
<defs>
</defs>
<g transform="matrix(1 0 0 1 540 540)" id="330b4588-0fd0-48ce-b900-e12799c69825"  >
<rect style="stroke: none; stroke-width: 1; stroke-dasharray: none; stroke-linecap: butt; stroke-dashoffset: 0; stroke-linejoin: miter; stroke-miterlimit: 4; fill: rgb(255,255,255); fill-rule: nonzero; opacity: 1; visibility: hidden;" vector-effect="non-scaling-stroke"  x="-540" y="-540" rx="0" ry="0" width="1080" height="1080" />
</g>
<g transform="matrix(1 0 0 1 540 540)" id="79487faf-c15a-4bbb-a8ce-a3f33bfc4195"  >
</g>
<g transform="matrix(2.44 0 0 2.44 83.72 506.42)"  >
<g style=""   >
		<g transform="matrix(1 0 0 1 -14.58 0.08)"  >
<path style="stroke: none; stroke-width: 1; stroke-dasharray: none; stroke-linecap: butt; stroke-dashoffset: 0; stroke-linejoin: miter; stroke-miterlimit: 4; fill: rgb(245,28,43); fill-rule: nonzero; opacity: 1;" vector-effect="non-scaling-stroke"  transform=" translate(-13.42, -27.58)" d="M 26.8161 53.1294 C 26.8161 54.2387 25.8515 55.0972 24.7518 54.9911 C 10.8518 53.5924 0 41.8531 0 27.5866 C 0 13.3104 10.8615 1.57113 24.7711 0.172451 C 25.8804 0.0663437 26.8354 0.924845 26.8354 2.03414 L 26.845 11.5066 C 26.845 12.423 26.1891 13.2139 25.2824 13.3586 C 18.4047 14.4486 13.1476 20.4003 13.1476 27.5866 C 13.1476 34.7729 18.4047 40.7246 25.2824 41.8146 C 26.1891 41.9593 26.845 42.7502 26.845 43.6666 L 26.8161 53.1294 Z" stroke-linecap="round" />
</g>
		<g transform="matrix(1 0 0 1 13.73 14.06)"  >
<path style="stroke: none; stroke-width: 1; stroke-dasharray: none; stroke-linecap: butt; stroke-dashoffset: 0; stroke-linejoin: miter; stroke-miterlimit: 4; fill: rgb(190,32,44); fill-rule: nonzero; opacity: 1;" vector-effect="non-scaling-stroke"  transform=" translate(-41.73, -41.56)" d="M 54.9704 30.2028 C 53.7454 43.1961 43.5012 53.556 30.5562 54.9643 C 29.4469 55.0897 28.4727 54.2215 28.4727 53.1026 L 28.4727 43.6109 C 28.4727 42.7041 29.1189 41.9228 30.0064 41.7685 C 36.0834 40.717 40.8582 35.8554 41.7746 29.7301 C 41.9096 28.8138 42.7006 28.1482 43.6266 28.1482 L 53.0894 28.1482 C 54.218 28.1482 55.0765 29.1032 54.9704 30.2028 Z" stroke-linecap="round" />
</g>
		<g transform="matrix(1 0 0 1 6.34 -6.78)"  >
<path style="stroke: none; stroke-width: 1; stroke-dasharray: none; stroke-linecap: butt; stroke-dashoffset: 0; stroke-linejoin: miter; stroke-miterlimit: 4; fill: rgb(0,0,0); fill-rule: nonzero; opacity: 1;" vector-effect="non-scaling-stroke"  transform=" translate(-34.34, -20.72)" d="M 26.8452 15.1709 L 26.8452 26.2735 C 26.8452 27.3056 27.6844 28.1448 28.7166 28.1448 L 39.9542 28.1448 C 41.0828 28.1448 41.951 27.1513 41.8159 26.0323 C 41.0057 19.338 36.3273 14.1291 28.9384 13.2995 C 27.8291 13.1838 26.8452 14.0423 26.8452 15.1709 Z" stroke-linecap="round" />
</g>
		<g transform="matrix(1 0 0 1 19.58 -19.98)"  >
<path style="stroke: none; stroke-width: 1; stroke-dasharray: none; stroke-linecap: butt; stroke-dashoffset: 0; stroke-linejoin: miter; stroke-miterlimit: 4; fill: rgb(153,153,153); fill-rule: nonzero; opacity: 1;" vector-effect="non-scaling-stroke"  transform=" translate(-47.58, -7.52)" d="M 40.0508 1.91957 C 40.0508 2.61409 40.427 3.25073 41.0347 3.58834 C 45.3947 6.06738 49.0216 9.69431 51.4814 14.064 C 51.819 14.6717 52.4556 15.0479 53.1598 15.0479 L 53.1887 15.0479 C 54.2498 15.0479 55.1083 14.1894 55.1083 13.1283 L 55.1083 1.91957 C 55.1083 0.858502 54.2498 0 53.1887 0 L 41.9704 0 C 40.9093 0.00964608 40.0508 0.868148 40.0508 1.91957 Z" stroke-linecap="round" />
</g>
</g>
</g>
<g transform="matrix(0 1.42 -1.42 0 629.16 505.65)"  >
<g style=""   >
		<g transform="matrix(1 0 0 1 0.42 241.9)"  >
<path style="stroke: none; stroke-width: 1; stroke-dasharray: none; stroke-linecap: butt; stroke-dashoffset: 0; stroke-linejoin: miter; stroke-miterlimit: 4; fill: rgb(0,0,0); fill-rule: nonzero; opacity: 1;" vector-effect="non-scaling-stroke"  transform=" translate(-47.92, -530.9)" d="M 94.9972 523.383 L 94.9972 530.054 C 94.9972 556.285 73.923 578.046 47.6614 577.917 C 21.9185 577.787 0.974012 556.868 0.844324 531.155 C 0.714636 504.924 22.5021 483.875 48.7637 483.875 L 89.4207 483.875 C 92.4683 483.875 94.9972 486.336 94.9972 489.445 L 94.9972 502.075 C 94.9972 505.119 92.5331 507.645 89.4207 507.645 L 48.5044 507.645 C 35.9247 507.645 24.9013 517.878 24.6419 530.507 C 24.3825 543.72 35.2114 554.536 48.4395 554.277 C 61.0192 554.018 71.3293 543.007 71.3293 530.443 L 71.3293 523.448 C 71.3293 520.404 73.7934 517.878 76.9058 517.878 L 89.5503 517.878 C 92.4683 517.813 94.9972 520.339 94.9972 523.383 Z" stroke-linecap="round" />
</g>
		<g transform="matrix(1 0 0 1 0.42 -241.98)"  >
<path style="stroke: none; stroke-width: 1; stroke-dasharray: none; stroke-linecap: butt; stroke-dashoffset: 0; stroke-linejoin: miter; stroke-miterlimit: 4; fill: rgb(0,0,0); fill-rule: nonzero; opacity: 1;" vector-effect="non-scaling-stroke"  transform=" translate(-47.92, -47.02)" d="M 95.0011 39.5079 L 95.0011 46.1789 C 95.0011 72.4096 73.927 94.1714 47.6653 94.0419 C 21.9224 93.9124 0.977918 72.9926 0.84823 47.28 C 0.718542 21.0493 22.506 -0.0000848701 48.7676 -0.000086018 L 89.4246 -0.0000877952 C 92.4722 -0.0000879284 95.0011 2.46105 95.0011 5.56987 L 95.0011 18.1995 C 95.0011 21.2435 92.5371 23.7695 89.4246 23.7695 L 48.5083 23.7695 C 35.9286 23.7695 24.9052 34.0027 24.6458 46.6323 C 24.3865 59.8448 35.2153 70.6609 48.4434 70.4019 C 61.0231 70.1428 71.3332 59.1323 71.3332 46.5675 L 71.3332 39.5727 C 71.3332 36.5286 73.7973 34.0027 76.9098 34.0027 L 89.5543 34.0027 C 92.4722 33.9379 95.0011 36.4638 95.0011 39.5079 Z" stroke-linecap="round" />
</g>
		<g transform="matrix(1 0 0 1 0.41 137.81)"  >
<path style="stroke: none; stroke-width: 1; stroke-dasharray: none; stroke-linecap: butt; stroke-dashoffset: 0; stroke-linejoin: miter; stroke-miterlimit: 4; fill: rgb(0,0,0); fill-rule: nonzero; opacity: 1;" vector-effect="non-scaling-stroke"  transform=" translate(-47.91, -426.81)" d="M 94.9942 385.299 L 94.9942 397.864 C 94.9942 400.908 92.5301 403.434 89.4176 403.434 L 48.4365 403.434 C 35.4029 403.434 24.3795 414.12 24.574 427.138 C 24.7686 439.833 35.1435 450.066 47.9177 450.066 L 89.4176 450.066 C 92.4653 450.066 94.9942 452.527 94.9942 455.636 L 94.9942 468.265 C 94.9942 471.31 92.5301 473.835 89.4176 473.835 L 48.6959 473.835 C 22.953 473.835 1.36004 453.499 0.841294 427.721 C 0.322544 401.361 21.6561 379.793 47.9177 379.793 L 89.4825 379.793 C 92.5301 379.729 94.9942 382.19 94.9942 385.299 Z" stroke-linecap="round" />
</g>
		<g transform="matrix(1 0 0 1 -0.36 -103.09)"  >
<path style="stroke: none; stroke-width: 1; stroke-dasharray: none; stroke-linecap: butt; stroke-dashoffset: 0; stroke-linejoin: miter; stroke-miterlimit: 4; fill: rgb(0,0,0); fill-rule: nonzero; opacity: 1;" vector-effect="non-scaling-stroke"  transform=" translate(-47.14, -185.91)" d="M -0.00000512989 150.839 C -0.00000451838 164.828 6.16014 177.393 15.8867 186.007 C 6.16014 194.621 -0.00000266686 207.186 -0.00000205535 221.176 C -9.25757e-7 247.018 21.9171 268.197 47.7897 268.197 L 88.5763 268.197 C 91.624 268.197 94.1529 265.736 94.1529 262.627 L 94.1529 249.997 C 94.1529 246.953 91.6888 244.427 88.5763 244.427 L 47.5952 244.427 C 34.5616 244.427 23.5382 233.741 23.7328 220.722 C 23.9273 208.028 34.3023 197.795 47.0764 197.795 L 88.6412 197.795 C 91.6888 197.795 94.2177 195.334 94.2177 192.225 L 94.2177 179.595 C 94.2177 176.551 91.7537 174.025 88.6412 174.025 L 47.66 174.025 C 34.6265 174.025 23.6031 163.339 23.7976 150.32 C 23.9921 137.626 34.3671 127.393 47.1413 127.393 L 88.706 127.393 C 91.7537 127.393 94.2826 124.932 94.2826 121.823 L 94.2826 109.193 C 94.2826 106.149 91.8185 103.623 88.706 103.623 L 47.9194 103.623 C 21.9171 103.882 -0.00000625948 124.997 -0.00000512989 150.839 Z" stroke-linecap="round" />
</g>
		<g transform="matrix(1 0 0 1 0.42 34.58)"  >
<path style="stroke: none; stroke-width: 1; stroke-dasharray: none; stroke-linecap: butt; stroke-dashoffset: 0; stroke-linejoin: miter; stroke-miterlimit: 4; fill: rgb(0,0,0); fill-rule: nonzero; opacity: 1;" vector-effect="non-scaling-stroke"  transform=" translate(-47.92, -323.58)" d="M 94.9966 323.578 C 94.9966 349.485 73.8576 370.599 47.9202 370.599 C 21.9828 370.599 0.843749 349.485 0.843748 323.578 C 0.843747 297.671 21.9827 276.557 47.9202 276.557 C 73.8576 276.557 94.9966 297.607 94.9966 323.578 Z M 24.5765 323.578 C 24.5765 336.402 35.0163 346.894 47.9202 346.894 C 60.8241 346.894 71.2639 336.467 71.2639 323.578 C 71.2639 310.754 60.8241 300.262 47.9202 300.262 C 35.0163 300.262 24.5765 310.69 24.5765 323.578 Z" stroke-linecap="round" />
</g>
</g>
</g>
</svg>