<?xml version="1.0" encoding="UTF-8" standalone="no" ?>
<!DOCTYPE svg PUBLIC "-//W3C//DTD SVG 1.1//EN" "http://www.w3.org/Graphics/SVG/1.1/DTD/svg11.dtd">
<svg xmlns="http://www.w3.org/2000/svg" xmlns:xlink="http://www.w3.org/1999/xlink" version="1.1" width="1080" height="1080" viewBox="0 0 1080 1080" xml:space="preserve">
<desc>Created with Fabric.js 5.2.4</desc>
<defs>
</defs>
<g transform="matrix(1 0 0 1 540 540)" id="5125d799-ecc4-47e4-9695-1336c076ea1e"  >
<rect style="stroke: none; stroke-width: 1; stroke-dasharray: none; stroke-linecap: butt; stroke-dashoffset: 0; stroke-linejoin: miter; stroke-miterlimit: 4; fill: rgb(255,255,255); fill-rule: nonzero; opacity: 1; visibility: hidden;" vector-effect="non-scaling-stroke"  x="-540" y="-540" rx="0" ry="0" width="1080" height="1080" />
</g>
<g transform="matrix(1 0 0 1 540 540)" id="2f5e214a-b0f1-4d55-93f4-c26cbbba8d72"  >
</g>
<g transform="matrix(5.6 0 0 5.6 540 540)"  >
<g style=""   >
		<g transform="matrix(1 0 0 1 -7.44 0.36)"  >
<path style="stroke: none; stroke-width: 1; stroke-dasharray: none; stroke-linecap: butt; stroke-dashoffset: 0; stroke-linejoin: miter; stroke-miterlimit: 4; fill: rgb(0,0,0); fill-rule: nonzero; opacity: 1;" vector-effect="non-scaling-stroke"  transform=" translate(-89.06, -49.86)" d="M 89.9356 39.2221 C 87.4044 36.6936 83.8836 33.6663 79.3757 30.1454 C 74.4115 26.2611 71.0685 23.2125 69.3465 20.9971 C 67.6246 18.7392 66.7649 16.2796 66.7649 13.6131 C 66.7649 9.63857 68.8397 6.52368 72.9947 4.26578 C 77.147 1.96012 82.5675 0.808594 89.251 0.808594 C 95.9372 0.808594 101.764 1.82744 106.728 3.85716 C 111.742 5.8922 114.25 8.69138 114.25 12.26 C 114.25 13.9766 113.64 15.3988 112.424 16.5264 C 111.209 17.6567 109.792 18.2218 108.171 18.2218 C 105.842 18.2218 103.106 16.6617 99.9648 13.5468 C 96.773 10.3841 94.0641 8.17133 91.8353 6.90574 C 89.657 5.59769 87.0992 4.94233 84.1621 4.94233 C 80.4131 4.94233 77.3248 5.68791 74.8944 7.17638 C 72.5118 8.6675 71.3231 10.5645 71.3231 12.8675 C 71.3231 15.0352 72.3102 17.0703 74.2868 18.9674 C 76.2608 20.8644 81.3524 24.3162 89.5562 29.3309 C 98.3198 34.7063 104.499 38.9064 108.094 41.9311 C 111.743 44.9584 114.703 48.6385 116.985 52.9739 C 119.264 57.3092 120.403 61.894 120.403 66.7282 C 120.403 75.2185 117.036 82.7139 110.299 89.217 C 103.613 95.6776 95.786 98.9066 86.8207 98.9066 C 78.6673 98.9066 71.7795 96.3091 66.1547 91.1141 C 60.5351 85.9217 57.7227 78.9888 57.7227 70.318 C 57.7227 61.963 60.8111 54.9823 66.9904 49.384 C 73.2202 43.783 80.8695 40.3975 89.9356 39.2221 Z M 93.2786 42.337 C 78.7416 44.4596 71.4744 53.3586 71.4744 69.0286 C 71.4744 77.113 73.2733 83.3932 76.8684 87.8639 C 80.5166 92.3346 84.7432 94.5712 89.5562 94.5712 C 94.5708 94.5712 98.6992 92.4248 101.941 88.1345 C 105.181 83.7991 106.802 77.9514 106.802 70.5887 C 106.802 59.928 102.294 50.5116 93.2786 42.337 Z" stroke-linecap="round" />
</g>
		<g transform="matrix(1 0 0 1 41.12 18.39)"  >
<path style="stroke: none; stroke-width: 1; stroke-dasharray: none; stroke-linecap: butt; stroke-dashoffset: 0; stroke-linejoin: miter; stroke-miterlimit: 4; fill: rgb(0,0,0); fill-rule: nonzero; opacity: 1;" vector-effect="non-scaling-stroke"  transform=" translate(-137.62, -67.89)" d="M 134.973 49.8393 C 141.115 41.2003 147.138 36.8809 153.042 36.8809 C 162.272 36.8809 161.909 45.9708 161.909 61.1871 C 160.107 61.1871 158.16 61.1871 158.16 61.1871 C 158.16 56.6713 156.584 50.4097 155.332 48.2606 C 154.079 46.069 151.89 44.9732 148.759 44.9732 C 144.068 44.9732 139.473 47.8891 134.973 53.7209 L 134.973 98.9082 L 125.294 98.9082 L 125.294 53.7209 C 125.294 49.6429 124.923 46.8358 124.18 45.3022 C 123.477 43.766 122.264 42.9992 120.542 42.9992 C 117.767 42.9992 116.066 46.069 115.44 52.2086 L 113.328 52.2086 C 114.071 41.991 117.825 36.8809 124.591 36.8809 C 127.603 36.8809 130.067 38.0669 131.983 40.4336 C 133.899 42.7578 134.896 45.8939 134.973 49.8393 Z" stroke-linecap="round" />
</g>
		<g transform="matrix(1 0 0 1 79.77 18.39)"  >
<path style="stroke: none; stroke-width: 1; stroke-dasharray: none; stroke-linecap: butt; stroke-dashoffset: 0; stroke-linejoin: miter; stroke-miterlimit: 4; fill: rgb(0,0,0); fill-rule: nonzero; opacity: 1;" vector-effect="non-scaling-stroke"  transform=" translate(-176.27, -67.89)" d="M 189.919 84.4083 L 192.1 84.4083 C 191.333 94.0766 187.459 98.9082 180.479 98.9082 C 178.019 98.9082 175.902 98.2077 174.124 96.8015 C 172.391 95.3528 171.221 93.7343 170.616 91.9461 C 170.051 90.1153 169.767 86.9633 169.767 82.4926 L 169.767 61.349 C 169.767 54.5328 169.526 50.1682 169.043 48.2526 C 168.558 46.3343 167.348 45.3765 165.411 45.3765 C 164.28 45.3765 162.909 45.6976 161.296 46.3343 L 160.449 44.0366 L 177.151 36.8809 L 179.815 36.8809 L 179.815 83.002 C 179.815 86.7935 180.157 89.391 180.842 90.7972 C 181.529 92.2008 182.779 92.9039 184.596 92.9039 C 187.337 92.9039 189.115 90.0729 189.919 84.4083 Z" stroke-linecap="round" />
</g>
		<g transform="matrix(1 0 0 1 -65.34 18.39)"  >
<path style="stroke: none; stroke-width: 1; stroke-dasharray: none; stroke-linecap: butt; stroke-dashoffset: 0; stroke-linejoin: miter; stroke-miterlimit: 4; fill: rgb(0,0,0); fill-rule: nonzero; opacity: 1;" vector-effect="non-scaling-stroke"  transform=" translate(-31.16, -67.89)" d="M 44.9438 38.6055 L 55.8433 38.6055 L 49.2394 68.1837 C 47.9579 73.8059 47.0797 77.2551 46.61 78.5313 C 48.3187 86.3663 50.7995 90.2852 54.0471 90.2852 C 57.8943 90.2852 59.8815 87.6452 60.0115 82.3626 L 62.3199 82.3626 C 62.1899 87.3029 61.2719 91.3067 59.5632 94.3738 C 57.8943 97.3958 55.6921 98.9082 52.9566 98.9082 C 50.6907 98.9082 49.0033 97.9928 47.8916 96.1621 C 46.7798 94.3313 45.5832 90.5823 44.3017 84.9203 C 39.8576 94.2464 32.5904 98.9082 22.5028 98.9082 C 15.6203 98.9082 10.1493 96.247 6.08984 90.9246 C 2.02774 85.5571 -0.00195312 77.8919 -0.00195312 67.929 C -0.00195312 58.1333 2.22146 50.5105 6.66562 45.0581 C 11.1124 39.6084 16.4534 36.8809 22.6938 36.8809 C 27.0981 36.8809 30.7092 38.4356 33.5296 41.5452 C 36.35 44.6548 38.852 49.7199 41.033 56.7483 L 44.9438 38.6055 Z M 39.3004 63.6467 C 37.2919 56.7907 35.0473 51.4471 32.5691 47.6132 C 30.0884 43.7395 27.1194 41.8 23.6569 41.8 C 15.8352 41.8 11.9243 50.9138 11.9243 69.1415 C 11.9243 86.43 15.6627 95.0769 23.1449 95.0769 C 29.64 95.0769 34.4503 87.4541 37.5705 72.206 L 39.3004 63.6467 Z" stroke-linecap="round" />
</g>
		<g transform="matrix(1 0 0 1 -7.44 20.3)"  >
<path style="stroke: none; stroke-width: 1; stroke-dasharray: none; stroke-linecap: butt; stroke-dashoffset: 0; stroke-linejoin: miter; stroke-miterlimit: 4; fill: rgb(0,0,0); fill-rule: nonzero; opacity: 1;" vector-effect="non-scaling-stroke"  transform=" translate(-89.06, -69.8)" d="M 82.3903 61.5371 L 81.1406 61.5371 L 81.1406 78.0694 L 82.3903 78.0694 C 82.3903 76.1299 82.7777 74.7369 83.5551 73.8932 C 84.3351 73.0495 85.6989 72.625 87.649 72.625 L 90.3792 72.625 C 92.4169 72.625 93.8204 73.0495 94.5872 73.8932 C 95.354 74.7369 95.7387 76.1299 95.7387 78.0694 L 96.9884 78.0694 L 96.9884 61.5371 L 95.7387 61.5371 C 95.7387 63.5217 95.3434 64.9306 94.5554 65.7637 C 93.7647 66.5968 92.3957 67.0134 90.4429 67.0134 L 87.7816 67.0134 C 85.7201 67.0134 84.3086 66.5915 83.5418 65.7478 C 82.7724 64.9014 82.3903 63.5005 82.3903 61.5371 Z" stroke-linecap="round" />
</g>
		<g transform="matrix(1 0 0 1 76.82 -37.76)"  >
<path style="stroke: none; stroke-width: 1; stroke-dasharray: none; stroke-linecap: butt; stroke-dashoffset: 0; stroke-linejoin: miter; stroke-miterlimit: 4; fill: rgb(0,0,0); fill-rule: nonzero; opacity: 1;" vector-effect="non-scaling-stroke"  transform=" translate(-173.32, -11.74)" d="M 173.321 18.2985 C 177.073 18.2985 180.113 15.3641 180.113 11.7424 C 180.113 8.12072 177.073 5.18359 173.321 5.18359 C 169.572 5.18359 166.531 8.12072 166.531 11.7424 C 166.531 15.3641 169.572 18.2985 173.321 18.2985 Z" stroke-linecap="round" />
</g>
</g>
</g>
</svg>