<svg width="201" height="20" fill="none" xmlns="http://www.w3.org/2000/svg"><path d="M118.04 1.2 93.074.096a.57.57 0 0 0-.552.774l2.13 5.411a.57.57 0 0 0 .577.359l20.894-1.763a.561.561 0 0 1 .583.379l.744 2.118a.567.567 0 0 1-.476.75l-29.3 3.163a.563.563 0 0 0-.363.938l6.253 7.063a.57.57 0 0 0 .653.145l15.349-6.759a.574.574 0 0 1 .686.184.569.569 0 0 1 .102.232l1.115 6.142h2.208a.575.575 0 0 0 .486-.272l6.266-10.246a.558.558 0 0 0 .06-.452l-1.93-6.655a.567.567 0 0 0-.519-.409Zm-86.168 0L6.909.096a.566.566 0 0 0-.542.774l2.13 5.411a.566.566 0 0 0 .55.359l20.898-1.763a.566.566 0 0 1 .583.379l.74 2.118a.567.567 0 0 1-.442.75L1.508 11.288a.566.566 0 0 0-.365.942l6.252 7.06a.573.573 0 0 0 .67.143l15.336-6.758a.567.567 0 0 1 .788.416l1.119 6.142h2.208a.57.57 0 0 0 .482-.272l6.27-10.246a.575.575 0 0 0 .06-.452L32.39 1.608a.563.563 0 0 0-.52-.409Z" fill="#000"/><path d="M61.277.11 45.904 3.813a.566.566 0 0 1-.623-.272L43.428.288A.566.566 0 0 0 42.935 0h-5.13a.566.566 0 0 0-.502.83l1.846 3.516a.567.567 0 0 1-.017.56l-8.235 13.462a.567.567 0 0 0 .482.865h6.886a.562.562 0 0 0 .482-.272l7.707-12.618a.569.569 0 0 1 .502-.272l16.753.577a.566.566 0 0 0 .557-.785L61.92.445a.57.57 0 0 0-.643-.335Z" fill="#000"/><path d="M88.863.11 73.497 3.813a.573.573 0 0 1-.627-.272L71.034.288A.566.566 0 0 0 70.54 0h-4.794a.566.566 0 0 0-.503.83l1.675 3.2a.557.557 0 0 1-.02.56l-8.42 13.778a.569.569 0 0 0 .493.865h6.885a.57.57 0 0 0 .483-.272l7.706-12.618a.573.573 0 0 1 .506-.272l16.753.577a.567.567 0 0 0 .543-.785L89.503.445a.57.57 0 0 0-.64-.335Zm72.477.161-11.057 18.094a.575.575 0 0 0-.009.574.566.566 0 0 0 .495.29h6.886a.57.57 0 0 0 .482-.268L169.419.868a.567.567 0 0 0-.196-.789.57.57 0 0 0-.287-.08h-7.1a.574.574 0 0 0-.496.272Zm21.411 1.907 13.898 4.413a.568.568 0 0 0 .647-.232l3.609-5.481a.573.573 0 0 0 .026-.58.57.57 0 0 0-.499-.298h-25.863a.579.579 0 0 0-.483.268l-4.188 6.802a.564.564 0 0 0 .125.738.572.572 0 0 0 .243.116l17.179 3.579a.569.569 0 0 1 .45.55.573.573 0 0 1-.054.247l-.336.67a.563.563 0 0 1-.512.335h-20.58a.568.568 0 0 0-.479.265l-3.016 4.795a.576.576 0 0 0-.016.575.569.569 0 0 0 .496.293h10.269c.059 0 .118-.01.175-.027l13.737-4.356a.565.565 0 0 1 .67.281l1.984 3.8a.576.576 0 0 0 .503.308h1.112a.566.566 0 0 0 .482-.271l4.872-7.918a.57.57 0 0 0-.138-.75.567.567 0 0 0-.254-.107l-16.88-2.775a.565.565 0 0 1-.422-.324.565.565 0 0 1 .03-.53l2.543-4.158a.569.569 0 0 1 .67-.228ZM153.557 5.72l2.972-4.856a.572.572 0 0 0-.195-.787.568.568 0 0 0-.288-.077h-7.706a.513.513 0 0 0-.158.023l-14.856 4.29a.57.57 0 0 1-.65-.266L130.535.288a.57.57 0 0 0-.493-.288h-4.657a.57.57 0 0 0-.487.273.56.56 0 0 0-.016.558l1.705 3.243a.56.56 0 0 1 0 .56l-8.403 13.737a.572.572 0 0 0 .195.787.568.568 0 0 0 .288.078h6.701a.573.573 0 0 0 .486-.271l6.721-10.99a.573.573 0 0 1 .562-.266.565.565 0 0 1 .467.41l2.992 10.701a.57.57 0 0 0 .546.416h9.519a.573.573 0 0 0 .483-.271l.318-.52a.566.566 0 0 0-.111-.724L135.155 7a.57.57 0 0 1 .375-1.005h17.554a.559.559 0 0 0 .473-.275Z" fill="#000"/></svg>