<svg xmlns="http://www.w3.org/2000/svg" width="161" height="32" fill="none"><path fill="#fff" d="M31.429 19.2H44V32H31.429V19.2z"/><path fill="url(#a)" d="M31.429 19.2H44V32H31.429V19.2z"/><path fill="#fff" d="M28.286 0 0 28.8V32h12.571V19.2H31.43V0h-3.143z"/><path fill="url(#b)" d="M28.286 0 0 28.8V32h12.571V19.2H31.43V0h-3.143z"/><path fill="#fff" d="M142.552 6.015h-4.403v4.277h4.403V6.015zm-26.474 3.027h-.489l-6.225 6.322v1.13h3.118v9.73c0 1.793.523 3.242 1.505 4.243.984 1.003 2.405 1.533 4.154 1.533 1.247 0 2.21-.225 2.879-.577l.107-.057v-3.47l-.321.234c-.508.37-1.237.515-1.922.515-1.012 0-1.7-.234-2.139-.682-.439-.45-.667-1.154-.667-2.181v-9.288h5.049v-3.243h-5.049V9.04zm-15.116 3.802c-1.649 0-3.273.452-4.49 1.385-1.222.937-2.022 2.352-2.022 4.243 0 1.82.747 2.996 1.837 3.785 1.101.797 2.467 1.178 3.779 1.469 1.541.332 3.85.794 3.85 2.757 0 1.76-1.819 2.273-3.288 2.273-2.164 0-4.196-1.005-5.804-2.458l-.337-.305v4.061l.081.06C96.354 31.437 98.589 32 100.591 32c1.833 0 3.55-.479 4.815-1.444 1.27-.97 2.069-2.423 2.069-4.331 0-1.686-.65-2.87-1.743-3.725-1.079-.845-2.581-1.36-4.275-1.75-1.35-.359-3.485-.906-3.485-2.647 0-1.569 1.778-2.052 3.065-2.052 1.866 0 3.678.894 5.255 2.17l.329.267V14.6l-.089-.06a10.083 10.083 0 0 0-5.57-1.696z"/><path fill="#fff" fill-rule="evenodd" d="M153.485 12.844c-2.691 0-4.665.945-6.328 2.298l-.074.06v3.875l.339-.31c1.871-1.714 3.569-2.642 5.989-2.642 1.303 0 2.319.333 3.005.917.683.58 1.062 1.425 1.062 2.5v.274l-5.14.858c-3.303.547-6.183 2.362-6.183 5.994 0 3.074 2.403 5.332 5.659 5.332 2.244 0 4.301-.837 5.775-2.427v2.02H161V19.765c0-2.13-.684-3.867-1.981-5.07-1.295-1.203-3.178-1.85-5.534-1.85zm-.557 10.92 4.587-.807v1.274c0 2.64-2.081 4.562-5.107 4.562-1.377 0-2.657-.839-2.657-2.31 0-1.751 1.685-2.442 3.176-2.719h.001z" clip-rule="evenodd"/><path fill="#fff" d="M134.027 12.955c-2.098 0-4.269 1.095-5.33 2.81V13.25h-3.522v18.343h3.559v-8.729c0-1.906.493-3.491 1.381-4.595.883-1.1 2.17-1.739 3.8-1.739.369 0 1.093.074 1.093.074V13.03s-.649-.074-.981-.074zm8.122.295h-3.596v18.344h3.596V13.25z"/><path fill="#fff" fill-rule="evenodd" d="M78.624 6 68 31.59h3.853l2.783-6.85h11.276l2.783 6.85h3.927L82.035 6h-3.411zm5.938 15.361h-8.577l4.271-10.66 4.306 10.66z" clip-rule="evenodd"/><defs><linearGradient id="a" x1="34.734" x2="34.915" y1="0" y2="32.001" gradientUnits="userSpaceOnUse"><stop stop-color="#B99985"/><stop offset=".26" stop-color="#D29A50"/><stop offset=".477" stop-color="#D06E18"/><stop offset=".766" stop-color="#CB513F"/><stop offset=".996" stop-color="#A42121"/></linearGradient><linearGradient id="b" x1="34.734" x2="34.915" y1="0" y2="32.001" gradientUnits="userSpaceOnUse"><stop stop-color="#B99985"/><stop offset=".26" stop-color="#D29A50"/><stop offset=".477" stop-color="#D06E18"/><stop offset=".766" stop-color="#CB513F"/><stop offset=".996" stop-color="#A42121"/></linearGradient></defs></svg>