<svg width="1148" height="272" viewBox="0 0 1148 272" fill="none" xmlns="http://www.w3.org/2000/svg">
<path d="M1148 261.642C1143.78 261.642 1140.08 261.642 1136.4 261.642C1116.91 261.642 1097.45 261.624 1077.96 261.678C1076.04 261.678 1074.91 261.444 1074.1 259.3C1064.12 232.563 1053.92 205.917 1044 179.162C1041.6 172.676 1040.07 165.866 1038.11 159.127C1037.86 161.812 1037.38 164.568 1037.36 167.343C1037.32 197.485 1037.32 227.627 1037.47 257.769C1037.47 261.156 1036.5 261.822 1033.19 261.786C1013.06 261.624 992.928 261.66 972.797 261.876C969.187 261.912 969.636 259.931 969.636 257.732C969.636 207.502 969.654 157.272 969.636 107.023C969.636 75.9087 969.636 44.7759 969.564 13.6612C969.564 11.5713 969.852 10.4903 972.366 10.5083C997.292 10.6524 1022.2 10.5083 1047.13 10.7605C1063.68 10.9227 1079.97 13.445 1094.95 20.8318C1117.97 32.1823 1130.96 51.2799 1135.47 76.4311C1137.66 88.5924 1137.78 100.7 1135.12 112.825C1130.76 132.751 1119.07 146.84 1101.15 155.902C1098.51 157.236 1098.29 158.299 1099.51 160.821C1114.63 191.864 1129.65 222.978 1144.66 254.075C1145.79 256.399 1146.74 258.813 1147.98 261.642H1148ZM1037.7 97.1142C1037.7 97.1142 1037.63 97.1142 1037.59 97.1142C1037.59 105.942 1037.59 114.771 1037.59 123.599C1037.59 125.13 1037.27 126.698 1039.66 126.806C1046.01 127.094 1051.99 126.031 1057.22 122.121C1067.49 114.428 1069.68 103.618 1069.09 91.6011C1068.64 82.5928 1065.44 75.3141 1057.36 70.7379C1052.25 67.8372 1046.66 67.585 1040.95 67.5669C1038.29 67.5669 1037.63 68.4678 1037.66 70.9361C1037.77 79.6561 1037.7 88.3762 1037.7 97.1142Z" fill="black"/>
<path d="M0 261.362C1.40076 255.399 2.74765 249.579 4.13046 243.778C15.3545 196.719 26.5786 149.659 37.8206 102.6C44.7526 73.5568 51.7384 44.532 58.6345 15.4892C59.7839 10.6607 59.6581 10.6067 64.6506 10.6067C89.577 10.6067 114.485 10.6788 139.412 10.6247C142.16 10.6247 143.327 11.4535 143.919 14.3181C148.158 34.803 152.647 55.2339 156.975 75.7188C163.153 105.032 169.241 134.381 175.419 163.712C182.081 195.385 188.816 227.041 195.514 258.714C195.694 259.561 195.712 260.425 195.855 261.668C194.006 261.668 192.318 261.668 190.63 261.668C170.283 261.668 149.936 261.632 129.589 261.723C127.056 261.723 125.979 261.2 125.584 258.48C124.345 249.85 122.836 241.256 121.238 232.68C121.058 231.671 119.675 230.139 118.849 230.121C104.824 230.031 90.7802 230.139 76.7367 230.211C76.4134 230.211 76.1081 230.338 75.4975 230.446C73.7915 239.886 71.9956 249.399 70.3973 258.948C70.0561 260.966 69.4635 261.686 67.3623 261.686C45.7044 261.632 24.0464 261.686 2.40644 261.686C1.77789 261.686 1.14934 261.524 0.0179585 261.362H0ZM100.604 76.0251C95.4674 109.14 90.3313 142.236 85.1772 175.585H113.121C107.751 142.38 103.243 109.374 100.621 76.0251H100.604Z" fill="black"/>
<path d="M955.419 261.638C949.152 261.638 943.405 261.638 937.658 261.638C921.657 261.638 905.674 261.53 889.673 261.728C886.458 261.764 885.201 260.719 884.752 257.783C883.495 249.477 882.041 241.207 880.891 232.884C880.604 230.794 879.957 230.127 877.892 230.145C864.298 230.217 850.685 230.181 837.091 230.145C835.349 230.145 834.612 230.722 834.325 232.487C832.763 242.054 831.092 251.603 829.422 261.44H759.348C761.449 252.54 763.461 243.856 765.526 235.19C776.175 190.797 786.861 146.422 797.474 102.029C804.244 73.7428 810.943 45.4207 817.641 17.1165C819.168 10.6486 819.114 10.6125 825.813 10.6306C849.967 10.6306 874.121 10.6486 898.275 10.7026C902.891 10.7026 902.711 10.9368 903.591 15.3329C905.8 26.5573 908.314 37.7096 910.649 48.8979C918.999 88.7867 927.296 128.676 935.665 168.564C940.819 193.085 946.045 217.606 951.253 242.108C952.384 247.441 953.605 252.738 954.773 258.071C955.006 259.116 955.15 260.197 955.401 261.674L955.419 261.638ZM871.858 175.843C867.62 141.828 863.454 108.533 859.305 75.2562C858.623 75.7427 858.515 76.1751 858.515 76.6075C857.707 98.2454 853.253 119.415 850.057 140.729C848.44 151.503 846.339 162.186 844.597 172.942C844.454 173.825 845.423 175.717 845.89 175.717C854.564 175.879 863.238 175.843 871.876 175.843H871.858Z" fill="black"/>
<path d="M556.054 70.2824V105.559C557.275 105.631 558.425 105.757 559.574 105.775C574.803 105.793 590.05 105.847 605.279 105.775C607.505 105.775 608.619 106.117 608.619 108.766C608.619 126.134 608.727 143.484 608.852 160.852C608.852 163.122 607.775 163.5 605.799 163.5C590.57 163.446 575.324 163.573 560.095 163.41C557.006 163.374 555.929 164.095 555.982 167.338C556.162 178.562 556.054 189.769 556.054 201.317H613.988C614.114 202.236 614.258 202.849 614.258 203.461C614.258 221.802 614.222 240.161 614.312 258.502C614.312 261.024 613.719 261.817 611.025 261.817C571.193 261.763 531.361 261.817 491.529 261.925C489.033 261.925 488.279 261.097 488.351 258.736C488.458 255.133 488.333 251.53 488.333 247.926C488.333 171.374 488.333 94.803 488.333 18.2503C488.333 10.6113 488.333 10.6293 496.055 10.6473C534.253 10.6473 572.45 10.7014 610.666 10.5933C613.755 10.5933 614.491 11.44 614.455 14.4308C614.276 31.7988 614.222 49.1669 614.312 66.5169C614.312 69.6158 613.306 70.4085 610.361 70.3725C593.498 70.2463 576.617 70.3184 559.754 70.3184C558.568 70.3184 557.383 70.3184 556.036 70.3184L556.054 70.2824Z" fill="black"/>
<path d="M696.588 10.9405V201.232H747.411C747.5 202.619 747.608 203.664 747.608 204.709C747.608 222.726 747.572 240.743 747.608 258.759C747.608 260.903 747.159 261.786 744.717 261.786C707.597 261.678 670.494 261.66 633.374 261.624C631.973 261.624 630.555 261.624 628.669 261.624C628.669 260.219 628.669 258.957 628.669 257.696C628.669 176.658 628.669 95.6187 628.633 14.5799C628.633 12.1476 628.651 10.5081 631.937 10.5261C652.949 10.6883 673.942 10.6523 694.954 10.7063C695.367 10.7063 695.78 10.8144 696.588 10.9045V10.9405Z" fill="black"/>
<path d="M438.255 37.2914C448.653 47.4347 459.069 57.6141 469.341 67.6494C446.624 90.2062 424.104 112.565 402.051 134.473C425.146 158.075 447.414 180.83 469.503 203.405C458.997 214.089 448.635 224.646 437.429 236.033C432.94 231.168 428.647 226.268 424.05 221.638C401.404 198.81 378.705 176.055 355.969 153.3C351.39 148.706 348.606 143.373 348.373 136.815C348.139 129.933 350.995 124.348 355.736 119.591C382.045 93.197 408.372 66.8026 434.699 40.4263C435.687 39.4354 436.819 38.5525 438.255 37.2914Z" fill="black"/>
<path d="M400.914 0C411.455 10.4316 421.889 20.7552 432.467 31.2228C431.748 32.0516 431.156 32.8083 430.473 33.4749C404.002 60.0134 377.514 86.5519 351.043 113.108C344.721 119.45 337.358 123.126 328.397 120.693C324.59 119.666 320.603 117.541 317.82 114.784C290.576 87.777 263.567 60.5359 236.503 33.3488C235.911 32.7542 235.426 32.0336 234.797 31.2589C245.267 20.8993 255.611 10.6478 266.243 0.126116C268.146 1.92778 270.229 3.81953 272.205 5.81937C291.51 25.2053 310.78 44.6272 330.085 63.9951C333.425 67.3462 333.497 67.2561 336.927 63.8329C357.705 42.9877 378.465 22.1605 399.261 1.33323C399.782 0.810749 400.411 0.396366 400.896 0.0180166L400.914 0Z" fill="black"/>
<path d="M228.441 235.584C218.259 224.918 208.166 214.36 197.804 203.496C219.947 181.606 242.521 159.265 265.005 137.033C260.336 132.15 256.528 128.007 252.542 124.025C235.122 106.621 217.648 89.2527 200.193 71.8667C196.87 68.5697 196.852 68.5156 200.013 65.3086C208.274 56.9309 216.571 48.5712 224.886 40.2295C226.017 39.0944 227.292 38.1035 228.549 37.0045C235.517 43.9589 242.305 50.7152 249.094 57.4894C268.992 77.3438 288.89 97.2161 308.77 117.088C310.619 118.926 312.415 120.854 314.014 122.926C320.191 130.961 320.371 140.816 314.373 148.996C312.649 151.356 310.584 153.5 308.518 155.59C282.317 181.948 256.079 208.271 229.842 234.593C229.627 234.809 229.321 234.953 228.441 235.548V235.584Z" fill="black"/>
<path d="M234.111 240.795C261.318 213.752 288.023 187.141 314.817 160.639C317.493 157.991 320.402 155.288 323.706 153.576C332.326 149.072 341.503 150.514 348.651 157.396C359.857 168.206 370.847 179.268 381.91 190.24C398.683 206.906 415.42 223.589 432.463 240.561C431.026 242.2 429.895 243.606 428.638 244.885C420.125 253.479 411.505 261.965 403.083 270.649C401.161 272.63 400.084 272.288 398.378 270.558C377.474 249.389 356.534 228.255 335.595 207.122C335.002 206.527 334.338 205.987 333.601 205.32C324.658 214.112 315.751 222.742 306.969 231.498C293.859 244.597 280.875 257.803 267.765 270.883C267.173 271.477 265.323 271.82 264.91 271.405C254.656 261.352 244.527 251.173 234.093 240.741L234.111 240.795Z" fill="black"/>
</svg>
