<svg width="61" height="34" viewBox="0 0 61 34" fill="none" xmlns="http://www.w3.org/2000/svg">
<path d="M20.8301 5.98828C20.5566 5.91016 19.9023 5.79297 18.8672 5.63672C17.832 5.48047 16.6895 5.40234 15.4395 5.40234C12.5684 5.40234 10.3516 6.33008 8.78906 8.18555C7.22656 10.041 6.44531 12.8145 6.44531 16.5059C6.44531 20.5098 7.26562 23.5664 8.90625 25.6758C10.5469 27.7656 12.8223 28.8105 15.7324 28.8105C17.4121 28.8105 18.9453 28.5371 20.332 27.9902C21.7188 27.4434 22.8516 26.8672 23.7305 26.2617C24.6094 25.6367 25.0488 25.2852 25.0488 25.207L27.1582 28.8105C27.1582 28.8887 26.5332 29.3477 25.2832 30.1875C24.0527 31.0273 22.5391 31.8086 20.7422 32.5312C18.9648 33.2344 17.0996 33.5859 15.1465 33.5859C10.2637 33.5859 6.54297 32.1406 3.98438 29.25C1.42578 26.3594 0.146484 22.3066 0.146484 17.0918C0.146484 13.8887 0.78125 11.0371 2.05078 8.53711C3.33984 6.03711 5.15625 4.09375 7.5 2.70703C9.84375 1.30078 12.5879 0.597656 15.7324 0.597656C17.334 0.597656 18.8965 0.783203 20.4199 1.1543C21.9434 1.50586 23.1836 1.87695 24.1406 2.26758C25.0977 2.63867 25.7031 2.88281 25.957 3L25.6348 11.0859H21.7383L20.8301 5.98828ZM32.8418 3C33.1543 2.88281 33.9355 2.63867 35.1855 2.26758C36.4551 1.87695 37.9492 1.50586 39.668 1.1543C41.3867 0.783203 43.0078 0.597656 44.5312 0.597656C48.1641 0.597656 50.918 1.32031 52.793 2.76562C54.6875 4.21094 55.6348 6.59375 55.6348 9.91406V28.1953L60.4395 29.3965V32.707L51.123 33L49.8633 28.8105C48.5742 30.0996 47.0801 31.2227 45.3809 32.1797C43.7012 33.1172 41.9141 33.5859 40.0195 33.5859C37.1875 33.5859 34.9805 32.8047 33.3984 31.2422C31.8164 29.6602 31.0254 27.4434 31.0254 24.5918C31.0254 21.2715 32.2168 18.8984 34.5996 17.4727C36.9824 16.0273 40.3906 15.3047 44.8242 15.3047H49.6289V10.5C49.6289 8.74219 49.1406 7.4043 48.1641 6.48633C47.1875 5.56836 45.7715 5.10938 43.916 5.10938C42.8418 5.10938 41.8555 5.17773 40.957 5.31445C40.0586 5.45117 39.3457 5.58789 38.8184 5.72461C38.3105 5.86133 37.998 5.94922 37.8809 5.98828L37.0312 10.5H33.1348L32.8418 3ZM45.4395 19.2012C42.4707 19.2012 40.3418 19.6016 39.0527 20.4023C37.7832 21.2031 37.1484 22.502 37.1484 24.2988C37.1484 25.666 37.5391 26.7598 38.3203 27.5801C39.1016 28.4004 40.1758 28.8105 41.543 28.8105C42.8711 28.8105 44.1309 28.4492 45.3223 27.7266C46.5137 27.0039 47.5293 26.2227 48.3691 25.3828C49.209 24.543 49.6289 24.084 49.6289 24.0059V19.2012H45.4395Z" fill="white"/>
</svg>
