<svg width="521" height="132" viewBox="0 0 521 132" fill="none" xmlns="http://www.w3.org/2000/svg">
<g clip-path="url(#clip0_4140_506)">
<path d="M57.8226 0.0936279L0.75 32.892V98.4886L57.8226 131.287L114.895 98.4886V32.892L57.8226 0.0936279ZM90.7165 84.5874L57.8332 103.484L24.9499 84.5874V46.7932L57.8332 27.8961L90.7165 46.7932V84.5874Z" fill="#0847F7"/>
<path d="M177.516 98.5587C171.848 98.5587 166.771 97.2678 162.3 94.6701C157.824 92.0778 154.291 88.3361 151.703 83.4347C149.114 78.5334 147.822 72.6349 147.822 65.7342C147.822 58.8334 149.13 52.8405 151.729 47.9233C154.334 43.0115 157.877 39.2646 162.369 36.688C166.855 34.1113 171.906 32.8256 177.521 32.8256C181.17 32.8256 184.575 33.3451 187.707 34.3737C190.844 35.4023 193.633 36.8979 196.08 38.8605C198.526 40.8232 200.514 43.2214 202.058 46.0552C203.598 48.8889 204.594 52.111 205.058 55.7267H192.326C192.036 53.8953 191.477 52.258 190.644 50.8044C189.806 49.3612 188.751 48.128 187.475 47.1099C186.194 46.0919 184.739 45.3205 183.12 44.7905C181.491 44.2604 179.72 43.998 177.79 43.998C174.395 43.998 171.405 44.8429 168.811 46.5327C166.223 48.2225 164.198 50.6837 162.748 53.9215C161.293 57.1541 160.565 61.1004 160.565 65.7342C160.565 70.3679 161.298 74.3929 162.764 77.615C164.235 80.8371 166.249 83.2668 168.827 84.9146C171.405 86.5624 174.379 87.3863 177.737 87.3863C179.609 87.3863 181.349 87.1344 182.957 86.6306C184.565 86.1321 186.015 85.3974 187.296 84.4371C188.572 83.482 189.647 82.3065 190.512 80.9158C191.377 79.5252 191.983 77.9299 192.326 76.1299H205.058C204.684 79.1316 203.788 81.9864 202.364 84.6785C200.941 87.3653 199.043 89.753 196.665 91.8259C194.292 93.904 191.498 95.536 188.292 96.7482C185.082 97.95 181.491 98.5535 177.526 98.5535V98.5692L177.516 98.5587Z" fill="#0847F7"/>
<path d="M224.223 69.746V97.6692H211.881V33.6573H223.881V58.0121H224.487C225.605 55.236 227.366 53.0425 229.754 51.4367C232.137 49.8361 235.179 49.028 238.859 49.028C242.197 49.028 245.123 49.7416 247.616 51.1743C250.121 52.6069 252.066 54.6693 253.442 57.3614C254.824 60.0482 255.509 63.307 255.509 67.1169V97.6587H243.119V69.1792C243.119 66.0831 242.328 63.6744 240.747 61.9374C239.165 60.2056 236.93 59.3398 234.056 59.3398C232.126 59.3398 230.429 59.7543 228.963 60.5887C227.492 61.4231 226.337 62.6038 225.489 64.1309C224.64 65.6685 224.218 67.5262 224.218 69.7408V69.7513L224.223 69.746Z" fill="#0847F7"/>
<path d="M277.448 98.6202C274.369 98.6202 271.617 98.0745 269.186 96.9882C266.756 95.8967 264.842 94.2856 263.445 92.155C262.048 90.0245 261.352 87.3796 261.352 84.231C261.352 81.5441 261.847 79.3033 262.844 77.5244C263.84 75.7454 265.19 74.3128 266.903 73.2107C268.617 72.1087 270.552 71.2743 272.729 70.7181C274.901 70.1618 277.184 69.7682 279.567 69.5373C282.388 69.2487 284.66 68.9863 286.39 68.7449C288.119 68.5035 289.374 68.1152 290.165 67.5852C290.956 67.0551 291.351 66.2732 291.351 65.2447V65.0295C291.351 62.8779 290.687 61.2092 289.369 60.0232C288.045 58.8372 286.158 58.2389 283.711 58.2389C281.123 58.2389 279.066 58.8005 277.538 59.9392C276.014 61.0675 274.996 62.4371 274.474 64.0377L262.991 62.7887C263.708 59.871 265.016 57.3836 266.898 55.3369C268.78 53.2903 271.147 51.7265 273.995 50.6507C276.842 49.5749 280.079 49.0344 283.706 49.0344C286.21 49.0344 288.652 49.3283 291.024 49.916C293.397 50.4985 295.537 51.4326 297.456 52.7131C299.365 53.9883 300.899 55.6728 302.027 57.7614C303.161 59.8552 303.736 62.4004 303.736 65.4126V97.6704H291.915V91.011H291.572C290.818 92.4384 289.822 93.7346 288.551 94.8839C287.286 96.0331 285.731 96.9357 283.891 97.6127C282.051 98.2896 279.905 98.6255 277.458 98.6255H277.443L277.448 98.6202ZM280.806 89.8565C282.936 89.8565 284.792 89.4367 286.374 88.5918C287.956 87.7469 289.195 86.6187 290.086 85.2018C290.977 83.7849 291.425 82.2158 291.425 80.4998V75.1261C291.024 75.4148 290.428 75.6719 289.659 75.9028C288.878 76.1337 288.003 76.3436 287.022 76.5273C286.047 76.711 285.077 76.8736 284.128 77.0206C283.179 77.1623 282.33 77.2777 281.581 77.3617C279.942 77.5926 278.497 77.9652 277.242 78.4742C275.987 78.9937 275.002 79.6917 274.285 80.5785C273.567 81.4654 273.204 82.5832 273.204 83.9318C273.204 85.8787 273.915 87.3534 275.339 88.3609C276.762 89.3632 278.581 89.8618 280.796 89.8618H280.801L280.806 89.8565Z" fill="#0847F7"/>
<path d="M311.844 97.6766V49.6494H324.186V97.6766H311.844Z" fill="#0847F7"/>
<path d="M344.643 69.7488V97.672H332.301V49.6395H344.427V58.0149H344.949C346.04 55.2651 347.775 53.082 350.148 51.4605C352.52 49.8389 355.504 49.036 359.105 49.036C362.443 49.036 365.358 49.7497 367.841 51.1823C370.33 52.6097 372.26 54.6826 373.63 57.3852C374.996 60.093 375.681 63.3361 375.681 67.1144V97.6563H363.339V69.1768C363.339 66.1121 362.543 63.7034 360.945 61.9612C359.353 60.2189 357.154 59.3373 354.36 59.3373C352.462 59.3373 350.78 59.7519 349.33 60.5863C347.875 61.4207 346.736 62.6014 345.898 64.1285C345.06 65.6661 344.649 67.5238 344.649 69.7383V69.7488H344.643Z" fill="#0847F7"/>
<path d="M396.139 30.5097V97.6754H383.797V30.5097H396.139Z" fill="#0847F7"/>
<path d="M404.25 97.6757V49.6485H416.592V97.6757H404.25Z" fill="#0847F7"/>
<path d="M437.046 69.7472V97.6704H424.703V49.6379H436.829V58.0133H437.351C438.443 55.2635 440.177 53.0804 442.55 51.4589C444.922 49.8373 447.907 49.0344 451.508 49.0344C454.845 49.0344 457.76 49.7481 460.249 51.1807C462.738 52.6081 464.667 54.681 466.033 57.3836C467.398 60.0914 468.084 63.3345 468.084 67.1129V97.6547H455.741V69.1752C455.741 66.1105 454.945 63.7018 453.348 61.9596C451.755 60.2173 449.557 59.3357 446.762 59.3357C444.864 59.3357 443.183 59.7503 441.733 60.5847C440.277 61.4191 439.139 62.5998 438.3 64.1269C437.462 65.6645 437.046 67.5222 437.046 69.7367V69.7472Z" fill="#0847F7"/>
<path d="M506.371 97.6744H521.007L501.737 70.4439L520.011 49.6419H505.686L489.321 68.4183H488.551V33.6573H476.203V97.6744H488.551V81.9942L492.421 77.7225L506.371 97.6692V97.6744Z" fill="#0847F7"/>
<path d="M324.288 30.5098H311.945V42.7947H324.288V30.5098Z" fill="#0847F7"/>
<path d="M416.694 30.5098H404.352V42.7947H416.694V30.5098Z" fill="#0847F7"/>
</g>
<defs>
<clipPath id="clip0_4140_506">
<rect width="520.249" height="131.193" fill="white" transform="translate(0.75 0.0936279)"/>
</clipPath>
</defs>
</svg>
