<?xml version="1.0" encoding="UTF-8"?>
<svg id="_Слой_1" data-name="Слой 1" xmlns="http://www.w3.org/2000/svg" viewBox="0 0 1300 900">
  <defs>
    <style>
      .cls-1 {
        fill: #5e43ff;
      }
    </style>
  </defs>
  <g>
    <path d="m511.71,431.14c4.75-4.6,11.36-6.91,19.84-6.91,4.46,0,8.39.6,11.79,1.81,3.4,1.21,5.9,2.67,7.51,4.39,1.61,1.72,2.92,3.45,3.95,5.21,1.02,1.75,1.61,3.22,1.75,4.38l.33,1.86h-14.36c-.07-.15-.15-.38-.22-.71-.07-.33-.38-.86-.93-1.59-.55-.73-1.17-1.39-1.86-1.97-.7-.58-1.75-1.11-3.18-1.59-1.43-.47-3.02-.71-4.77-.71-4.17,0-7.33,1.24-9.48,3.73-2.16,2.49-3.23,5.99-3.23,10.52s1.1,8.28,3.29,11.02c2.19,2.74,5.33,4.11,9.43,4.11,2.78,0,5.08-.71,6.91-2.14,1.83-1.43,2.96-2.87,3.4-4.33l.66-2.08h14.25c-.07.51-.18,1.21-.33,2.08-.15.88-.75,2.45-1.81,4.71-1.06,2.27-2.39,4.26-4,5.97-1.61,1.72-4.09,3.29-7.46,4.71-3.36,1.43-7.23,2.14-11.62,2.14-8.55,0-15.2-2.34-19.95-7.02-4.75-4.68-7.13-11.07-7.13-19.18,0-7.6,2.41-13.74,7.24-18.42Z"/>
    <path d="m567.4,431.58c4.97-4.9,11.8-7.34,20.5-7.34s15.55,2.45,20.55,7.34c5.01,4.9,7.51,11.04,7.51,18.42s-2.48,13.59-7.45,18.42c-5.04,4.9-11.91,7.34-20.61,7.34s-15.55-2.47-20.55-7.4c-5.01-4.93-7.51-11.05-7.51-18.36s2.52-13.52,7.56-18.42Zm6.8,18.42c0,4.24,1.17,7.75,3.51,10.52,2.34,2.78,5.74,4.17,10.2,4.17s7.76-1.41,10.14-4.22c2.37-2.81,3.56-6.3,3.56-10.47,0-4.39-1.17-7.93-3.51-10.63-2.34-2.7-5.74-4.06-10.2-4.06s-7.86,1.35-10.2,4.06c-2.34,2.7-3.51,6.25-3.51,10.63Z"/>
    <path d="m634.93,425.33v6.91c3.36-5.26,8.33-7.93,14.91-8h.77c8.04,0,13.7,2.12,16.99,6.36,3.29,4.24,4.93,10.3,4.93,18.2v25.87h-14.14v-25.87c0-8.84-3.29-13.3-9.87-13.37h-.33c-4.39,0-7.6,1.44-9.65,4.33-2.05,2.89-3.07,7-3.07,12.33v22.58h-14.14v-49.33h13.59Z"/>
    <path d="m684.59,431.14c4.75-4.6,11.36-6.91,19.84-6.91,4.46,0,8.39.6,11.79,1.81,3.4,1.21,5.9,2.67,7.51,4.39,1.61,1.72,2.92,3.45,3.95,5.21,1.02,1.75,1.61,3.22,1.75,4.38l.33,1.86h-14.36c-.07-.15-.15-.38-.22-.71-.07-.33-.38-.86-.93-1.59-.55-.73-1.17-1.39-1.86-1.97-.7-.58-1.75-1.11-3.18-1.59-1.43-.47-3.02-.71-4.77-.71-4.17,0-7.33,1.24-9.48,3.73-2.16,2.49-3.23,5.99-3.23,10.52s1.1,8.28,3.29,11.02c2.19,2.74,5.33,4.11,9.43,4.11,2.78,0,5.08-.71,6.91-2.14,1.83-1.43,2.96-2.87,3.4-4.33l.66-2.08h14.25c-.07.51-.18,1.21-.33,2.08-.15.88-.75,2.45-1.81,4.71-1.06,2.27-2.39,4.26-4,5.97-1.61,1.72-4.09,3.29-7.46,4.71-3.36,1.43-7.23,2.14-11.62,2.14-8.55,0-15.2-2.34-19.95-7.02-4.75-4.68-7.13-11.07-7.13-19.18,0-7.6,2.41-13.74,7.24-18.42Z"/>
    <path d="m739.73,431.36c4.68-4.75,11.11-7.13,19.29-7.13s14.31,2.36,18.8,7.07c4.49,4.71,6.74,10.98,6.74,18.8,0,1.32-.07,2.67-.22,4.06h-37.82c.29,3.22,1.63,5.77,4,7.67,2.37,1.9,5.28,2.85,8.72,2.85,1.61,0,3.05-.18,4.33-.55,1.28-.36,2.26-.78,2.96-1.26.69-.47,1.28-.97,1.75-1.48.47-.51.78-.95.93-1.32l.22-.55h14.14c-.07.44-.24,1.02-.49,1.75-.26.73-.95,2.03-2.08,3.89-1.13,1.86-2.5,3.51-4.11,4.93-1.61,1.43-3.98,2.72-7.13,3.89-3.14,1.17-6.69,1.75-10.63,1.75-7.89,0-14.27-2.32-19.13-6.96-4.86-4.64-7.29-10.87-7.29-18.69s2.34-13.92,7.02-18.75Zm31.13,13.37v-.33c0-2.78-1.1-4.99-3.29-6.63-2.19-1.64-5.01-2.47-8.44-2.47s-6.38.88-8.61,2.63c-2.23,1.75-3.56,4.02-4,6.8h24.34Z"/>
    <path d="m789.94,425.33h13.81v7.35c2.92-4.9,7.34-7.35,13.26-7.35h5.81v11.84h-5.48c-5.77,0-9.43,1.41-10.96,4.22-1.54,2.81-2.3,8.9-2.3,18.25v15.02h-14.14v-49.33Z"/>
    <path d="m830.83,431.58c4.97-4.9,11.8-7.34,20.5-7.34s15.55,2.45,20.55,7.34c5.01,4.9,7.51,11.04,7.51,18.42s-2.49,13.59-7.45,18.42c-5.04,4.9-11.92,7.34-20.61,7.34s-15.55-2.47-20.55-7.4c-5.01-4.93-7.51-11.05-7.51-18.36s2.52-13.52,7.56-18.42Zm6.8,18.42c0,4.24,1.17,7.75,3.51,10.52,2.34,2.78,5.74,4.17,10.2,4.17s7.76-1.41,10.14-4.22c2.38-2.81,3.56-6.3,3.56-10.47,0-4.39-1.17-7.93-3.51-10.63-2.34-2.7-5.74-4.06-10.2-4.06s-7.86,1.35-10.2,4.06c-2.34,2.7-3.51,6.25-3.51,10.63Z"/>
  </g>
  <g>
    <path class="cls-1" d="m470.5,427.67h-37.5s4.48-7.76,4.48-7.76c.26-.47.77-.75,1.3-.75h33.92c.51,0,.97.27,1.23.71l5.18,8.95c.17.3.17.68,0,.98l-6.09,10.54,5.56,9.64-4.87,8.45-10.12-17.52c-.22-.39-.22-.86,0-1.25l6.92-12Zm-37.86,44.04l4.85,8.41c.25.44.73.71,1.24.71h33.91c.54,0,1.04-.28,1.31-.75l4.48-7.76h-36.87s6.6-11.42,6.6-11.42c.22-.39.22-.86,0-1.25l-10.45-18.08-4.86,8.43,5.89,10.19-6.09,10.55c-.17.3-.17.68,0,.97Z"/>
    <g>
      <path class="cls-1" d="m446.19,469.81h32.54c.72,0,1.38-.39,1.75-1.02l9.93-17.2c.57-.98.57-2.2,0-3.19l-9.58-16.6-4.91,8.51,5.58,9.69-3.49,6.06-2.84,4.91-.18.31h-23.87s-4.91,8.52-4.91,8.52Z"/>
      <path class="cls-1" d="m421.03,451.59l9.85,17.06,4.91-8.51-5.86-10.14,6.32-10.94.2-.35h24.51s4.91-8.52,4.91-8.52h-33.18c-.72,0-1.39.39-1.75,1.02l-9.93,17.2c-.57.98-.57,2.2,0,3.19Z"/>
    </g>
  </g>
</svg>