<?xml version="1.0" encoding="UTF-8"?>
<svg width="511px" height="128px" viewBox="0 0 511 128" version="1.1" xmlns="http://www.w3.org/2000/svg" xmlns:xlink="http://www.w3.org/1999/xlink">
    <title>enso logo - vertical - light</title>
    <defs>
        <polygon id="path-1" points="0 0 124.8038 0 124.8038 127.725 0 127.725"></polygon>
    </defs>
    <g id="enso-logo---vertical---light" stroke="none" stroke-width="1" fill="none" fill-rule="evenodd">
        <g id="Group-14" transform="translate(0, -0)">
            <g id="Group-3">
                <mask id="mask-2" fill="white">
                    <use xlink:href="#path-1"></use>
                </mask>
                <g id="Clip-2"></g>
                <path d="M63.7298,127.725 C93.5658,127.725 115.9208,108.121 123.9318,84.929 C123.9548,84.86 123.8568,84.821 123.8258,84.887 C113.0478,107.996 91.4878,124.007 63.7298,124.007 C34.2548,124.007 6.6388,101.436 6.6388,66.916 C6.6388,37.176 29.7408,12.48 56.5598,12.48 C79.1308,12.48 94.7978,26.288 94.7978,36.113 C94.7978,40.628 91.8768,43.814 87.3628,43.814 C77.0068,43.814 73.0238,25.226 53.3738,25.226 C33.4578,25.226 16.4638,44.345 16.4638,66.916 C16.4638,96.126 39.5658,115.245 62.6678,115.245 C71.6978,115.245 76.7088,112.87 78.1558,112.06 C78.2158,112.026 78.1768,111.935 78.1118,111.955 C76.6728,112.408 72.1508,113.651 65.8538,113.651 C37.4408,113.651 26.0228,91.611 26.0228,77.272 C26.0228,66.385 32.9268,61.871 38.5038,61.871 C53.3738,61.871 51.2498,93.736 87.8938,93.736 C107.0128,93.736 124.8038,80.724 124.8038,54.967 C124.8038,25.757 97.1878,0 63.7298,0 C28.6788,0 -0.0002,28.413 -0.0002,63.73 C-0.0002,99.312 29.7408,127.725 63.7298,127.725" id="Fill-1" fill="#FFFFFF" mask="url(#mask-2)"></path>
            </g>
            <path d="M300.1427,32.9061 L271.1837,32.9061 C251.7107,32.9061 244.2217,41.3941 244.2217,61.8651 L244.2217,93.8201 C244.2217,93.8201 244.2217,94.8191 245.2207,94.8191 L259.6997,94.8191 C260.6987,94.8191 260.6987,93.8201 260.6987,93.8201 L260.6987,51.8791 C260.6987,38.8981 268.1877,36.9001 275.1777,36.9001 L296.1487,36.9001 C303.1387,36.9001 310.6277,38.8981 310.6277,51.8791 L310.6277,93.8201 C310.6277,93.8201 310.6277,94.8191 311.6267,94.8191 L327.1047,94.8191 C328.1037,94.8191 328.1037,93.8201 328.1037,93.8201 L328.1037,61.8651 C328.1037,41.3941 319.6157,32.9061 300.1427,32.9061" id="Fill-4" fill="#FFFFFF"></path>
            <path d="M396.0074,61.8652 L367.0484,61.8652 C359.0594,61.8652 352.5684,58.3702 352.5684,49.3832 C352.5684,40.3952 359.0594,36.9002 367.0484,36.9002 L413.4824,36.9002 C416.4784,36.9002 416.4784,36.9002 416.4784,34.9032 C416.4784,32.9062 416.4784,32.9062 413.4824,32.9062 L355.0654,32.9062 C339.5874,32.9062 334.0944,38.3982 334.0944,49.3832 C334.0944,60.8662 339.5874,65.8592 355.0654,65.8592 L385.0234,65.8592 C393.0114,65.8592 399.5024,69.3542 399.5024,78.3422 C399.5024,87.3292 393.0114,90.8242 385.0234,90.8242 L338.5884,90.8242 C335.5924,90.8242 335.5924,90.8242 335.5924,92.8212 C335.5924,94.8182 335.5924,94.8182 338.5884,94.8182 L396.0074,94.8182 C408.4894,94.8182 417.9764,89.8262 417.9764,78.3422 C417.9764,66.8582 410.4874,61.8652 396.0074,61.8652" id="Fill-6" fill="#FFFFFF"></path>
            <path d="M233.7365,90.8244 L192.2945,90.8244 C174.8195,90.8244 170.3265,78.3424 170.3265,63.8624 C170.3265,49.3834 174.8195,36.9004 192.2945,36.9004 L233.7365,36.9004 C236.7325,36.9004 236.7325,36.9004 236.7325,34.9034 C236.7325,32.9064 236.7325,32.9064 233.7365,32.9064 L188.3005,32.9064 C170.8255,32.9064 152.8505,41.3944 152.8505,63.8624 C152.8505,84.8324 169.3275,94.8184 187.3025,94.8184 L233.7365,94.8184 C236.7325,94.8184 236.7325,94.8184 236.7325,92.8214 C236.7325,90.8244 236.7325,90.8244 233.7365,90.8244" id="Fill-8" fill="#FFFFFF"></path>
            <path d="M233.7365,61.8652 L179.8125,61.8652 C176.8165,61.8652 176.8165,61.8652 176.8165,63.8622 C176.8165,65.8592 176.8165,65.8592 179.8125,65.8592 L233.7365,65.8592 C236.7325,65.8592 236.7325,65.8592 236.7325,63.8622 C236.7325,61.8652 236.7325,61.8652 233.7365,61.8652" id="Fill-10" fill="#FFFFFF"></path>
            <path d="M470.9016,90.8243 L461.9146,90.8243 C444.4386,90.8243 439.9456,78.3423 439.9456,63.8623 C439.9456,49.3833 444.4386,36.9003 461.9146,36.9003 L470.9016,36.9003 C488.3766,36.9003 492.8706,49.3833 492.8706,63.8623 C492.8706,78.3423 488.3766,90.8243 470.9016,90.8243 M474.8956,32.9063 L457.9196,32.9063 C440.4446,32.9063 422.4696,41.3943 422.4696,63.8623 C422.4696,84.8323 438.9466,94.8183 456.9216,94.8183 L475.8946,94.8183 C493.8696,94.8183 510.3456,84.8323 510.3456,63.8623 C510.3456,41.3943 492.3716,32.9063 474.8956,32.9063" id="Fill-12" fill="#FFFFFF"></path>
        </g>
    </g>
</svg>