<svg width="178" height="54" viewBox="0 0 178 54" fill="none" xmlns="http://www.w3.org/2000/svg">
<path fill-rule="evenodd" clip-rule="evenodd" d="M178 20.9363V16.8215H150.492V34.8852H134.693V16.8215H123.376L117.251 23.2421L111.455 16.8215H95.0816V25.8688H83.6511V16.8215H75V39H83.6534V29.9527H95.0839V39H103.737V21.0433L110.325 28.4076V39H118.995V28.2911L126.042 20.8246V39H178V34.8852H159.148V29.9527H176.95V25.8665H159.148V20.934H178V20.9363ZM172.007 13.8502V11H160.809L155.156 13.2868V15.0458H157.385L172.007 13.8502Z" fill="#F7F7F6"/>
<path fill-rule="evenodd" clip-rule="evenodd" d="M33.6431 0.181549H13.8455H13.7957L13.8012 0.224211L0.0683594 13.3709V47.0998H21.5593L33.6431 33.6476V0.181549Z" fill="#F7F7F6"/>
<path d="M21.596 42.4014V43.7776H0V42.4014H21.596Z" fill="#E0482E"/>
<path d="M21.596 40.8612V42.1713H0V40.8612H21.596Z" fill="#E0482E"/>
<path d="M21.596 39.3214V40.5668H0V39.3214H21.596Z" fill="#E0482E"/>
<path d="M21.596 37.7828V38.9608H0V37.7828H21.596Z" fill="#E0482E"/>
<path d="M21.596 36.2428V37.3561H0V36.2428H21.596Z" fill="#E0482E"/>
<path d="M21.596 34.703V35.7516H0V34.703H21.596Z" fill="#E0482E"/>
<path d="M21.596 33.1632V34.1458H0V33.1632H21.596Z" fill="#E0482E"/>
<path d="M21.596 31.6231V32.5411H0V31.6231H21.596Z" fill="#E0482E"/>
<path d="M21.596 30.0846V30.9365H0V30.0846H21.596Z" fill="#E0482E"/>
<path d="M21.596 28.5446V29.3304H0V28.5446H21.596Z" fill="#E0482E"/>
<path d="M21.596 27.0046V27.7257H0V27.0046H21.596Z" fill="#E0482E"/>
<path d="M21.596 25.4645V26.1196H0V25.4645H21.596Z" fill="#E0482E"/>
<path d="M21.596 23.926V24.515H0V23.926H21.596Z" fill="#E0482E"/>
<path d="M21.596 22.386V22.9103H0V22.386H21.596Z" fill="#E0482E"/>
<path d="M21.596 20.8459V21.3042H0V20.8459H21.596Z" fill="#E0482E"/>
<path d="M21.596 19.3063V19.6999H0V19.3063H21.596Z" fill="#E0482E"/>
<path d="M21.596 17.7678V18.0953H0V17.7678H21.596Z" fill="#E0482E"/>
<path d="M21.596 16.2278V16.4892H0V16.2278H21.596Z" fill="#E0482E"/>
<path d="M21.596 14.6877V14.8845H0V14.6877H21.596Z" fill="#E0482E"/>
<path d="M21.596 13.1478V13.2785H0V13.1478H21.596Z" fill="#E0482E"/>
<path d="M21.596 43.9412V45.3821H0V43.9412H21.596Z" fill="#E0482E"/>
<path d="M21.596 45.4798H0V47.0197H21.596V45.4798Z" fill="#E0482E"/>
<path d="M33.71 29.2535V30.6297L21.5957 43.7791V42.4029L33.71 29.2535Z" fill="#E0482E"/>
<path d="M33.71 27.7137V29.0238L21.5957 42.1746V40.8631L33.71 27.7137Z" fill="#E0482E"/>
<path d="M33.71 26.1735V27.4189L21.5957 40.5683V39.3243L33.71 26.1735Z" fill="#E0482E"/>
<path d="M33.71 24.6349V25.8143L21.5957 38.9637V37.7843L33.71 24.6349Z" fill="#E0482E"/>
<path d="M33.71 23.0949V24.2082L21.5957 37.3576V36.2443L33.71 23.0949Z" fill="#E0482E"/>
<path d="M33.71 21.5553V22.6039L21.5957 35.7534V34.7047L33.71 21.5553Z" fill="#E0482E"/>
<path d="M33.71 20.0153V20.9979L21.5957 34.1487V33.1661L33.71 20.0153Z" fill="#E0482E"/>
<path d="M33.71 18.4767V19.3932L21.5957 32.5427V31.6261L33.71 18.4767Z" fill="#E0482E"/>
<path d="M33.71 16.9369V17.7888L21.5957 30.9382V30.0863L33.71 16.9369Z" fill="#E0482E"/>
<path d="M33.71 15.3967V16.1825L21.5957 29.3333V28.5461L33.71 15.3967Z" fill="#E0482E"/>
<path d="M33.71 13.8567V14.5778L21.5957 27.7272V27.0061L33.71 13.8567Z" fill="#E0482E"/>
<path d="M33.71 12.3181V12.9732L21.5957 26.1226V25.4675L33.71 12.3181Z" fill="#E0482E"/>
<path d="M33.71 10.7783V11.3673L21.5957 24.5167V23.9277L33.71 10.7783Z" fill="#E0482E"/>
<path d="M33.71 9.23806V9.76239L21.5957 22.9118V22.3875L33.71 9.23806Z" fill="#E0482E"/>
<path d="M33.71 7.69825V8.15652L21.5957 21.3073V20.8477L33.71 7.69825Z" fill="#E0482E"/>
<path d="M33.71 6.15865V6.55223L21.5957 19.7017V19.3094L33.71 6.15865Z" fill="#E0482E"/>
<path d="M33.71 4.62009V4.94762L21.5957 18.097V17.7695L33.71 4.62009Z" fill="#E0482E"/>
<path d="M33.71 3.07986V3.34134L21.5957 16.4908V16.2293L33.71 3.07986Z" fill="#E0482E"/>
<path d="M33.71 1.54005V1.73684L21.5957 14.8863V14.6895L33.71 1.54005Z" fill="#E0482E"/>
<path d="M33.71 0V0.132113L21.5957 13.2815V13.1494L33.71 0Z" fill="#E0482E"/>
<path d="M33.71 30.7935V32.2344L21.5957 45.3838V43.9429L33.71 30.7935Z" fill="#E0482E"/>
<path d="M33.71 33.8721V32.3335L21.5957 45.483V47.0215L33.71 33.8721Z" fill="#E0482E"/>
<path fill-rule="evenodd" clip-rule="evenodd" d="M60.3223 5.70432H40.5246H40.4734L40.479 5.74699L26.7461 18.8937V52.6225H48.2384L60.3223 39.1703V5.70432Z" fill="#F7F7F6"/>
<path d="M48.2738 48.7882V50.1644H26.6777V48.7882H48.2738Z" fill="#E0482E"/>
<path d="M48.2738 47.2482V48.5583H26.6777V47.2482H48.2738Z" fill="#E0482E"/>
<path d="M48.2738 45.708V46.9534H26.6777V45.708H48.2738Z" fill="#E0482E"/>
<path d="M48.2738 44.1682V45.3475H26.6777V44.1682H48.2738Z" fill="#E0482E"/>
<path d="M48.2738 42.6296V43.7429H26.6777V42.6296H48.2738Z" fill="#E0482E"/>
<path d="M48.2738 41.0898V42.1384H26.6777V41.0898H48.2738Z" fill="#E0482E"/>
<path d="M48.2738 39.55V40.5326H26.6777V39.55H48.2738Z" fill="#E0482E"/>
<path d="M48.2738 38.0099V38.9279H26.6777V38.0099H48.2738Z" fill="#E0482E"/>
<path d="M48.2738 36.4714V37.3219H26.6777V36.4714H48.2738Z" fill="#E0482E"/>
<path d="M48.2738 34.9312V35.717H26.6777V34.9312H48.2738Z" fill="#E0482E"/>
<path d="M48.2738 33.3914V34.1125H26.6777V33.3914H48.2738Z" fill="#E0482E"/>
<path d="M48.2738 31.8513V32.5064H26.6777V31.8513H48.2738Z" fill="#E0482E"/>
<path d="M48.2738 30.3128V30.9018H26.6777V30.3128H48.2738Z" fill="#E0482E"/>
<path d="M48.2738 28.7728V29.2971H26.6777V28.7728H48.2738Z" fill="#E0482E"/>
<path d="M48.2738 27.2327V27.691H26.6777V27.2327H48.2738Z" fill="#E0482E"/>
<path d="M48.2738 25.6931V26.0867H26.6777V25.6931H48.2738Z" fill="#E0482E"/>
<path d="M48.2738 24.1531V24.4807H26.6777V24.1531H48.2738Z" fill="#E0482E"/>
<path d="M48.2738 22.6146V22.876H26.6777V22.6146H48.2738Z" fill="#E0482E"/>
<path d="M48.2738 21.0745V21.2713H26.6777V21.0745H48.2738Z" fill="#E0482E"/>
<path d="M48.2738 19.5346V19.6653H26.6777V19.5346H48.2738Z" fill="#E0482E"/>
<path d="M48.2738 50.328V51.7689H26.6777V50.328H48.2738Z" fill="#E0482E"/>
<path d="M48.2738 51.8666H26.6777V53.4065H48.2738V51.8666Z" fill="#E0482E"/>
<path d="M60.3883 35.6403V37.0165L48.2754 50.1659V48.7897L60.3883 35.6403Z" fill="#E0482E"/>
<path d="M60.3883 34.1003V35.4104L48.2754 48.5598V47.2497L60.3883 34.1003Z" fill="#E0482E"/>
<path d="M60.3883 32.5603V33.8057L48.2754 46.9551V45.7097L60.3883 32.5603Z" fill="#E0482E"/>
<path d="M60.3883 31.0202V32.1996L48.2754 45.3504V44.1711L60.3883 31.0202Z" fill="#E0482E"/>
<path d="M60.3883 29.4817V30.595L48.2754 43.7444V42.6311L60.3883 29.4817Z" fill="#E0482E"/>
<path d="M60.3883 27.9423V28.991L48.2754 42.1404V41.0917L60.3883 27.9423Z" fill="#E0482E"/>
<path d="M60.3883 26.4021V27.3847L48.2754 40.5341V39.5515L60.3883 26.4021Z" fill="#E0482E"/>
<path d="M60.3883 24.8621V25.78L48.2754 38.9294V38.0129L60.3883 24.8621Z" fill="#E0482E"/>
<path d="M60.3883 23.3235V24.1754L48.2754 37.3248V36.4729L60.3883 23.3235Z" fill="#E0482E"/>
<path d="M60.3883 21.7837V22.5695L48.2754 35.7189V34.9331L60.3883 21.7837Z" fill="#E0482E"/>
<path d="M60.3883 20.2435V20.9646L48.2754 34.114V33.3929L60.3883 20.2435Z" fill="#E0482E"/>
<path d="M60.3883 18.7036V19.3587L48.2754 32.5095V31.8544L60.3883 18.7036Z" fill="#E0482E"/>
<path d="M60.3883 17.1651V17.7541L48.2754 30.9035V30.3145L60.3883 17.1651Z" fill="#E0482E"/>
<path d="M60.3883 15.6251V16.1494L48.2754 29.2988V28.7745L60.3883 15.6251Z" fill="#E0482E"/>
<path d="M60.3883 14.0851V14.5433L48.2754 27.6928V27.2345L60.3883 14.0851Z" fill="#E0482E"/>
<path d="M60.3883 12.5455V12.939L48.2754 26.0885V25.6949L60.3883 12.5455Z" fill="#E0482E"/>
<path d="M60.3883 11.0052V11.3328L48.2754 24.4836V24.156L60.3883 11.0052Z" fill="#E0482E"/>
<path d="M60.3883 9.46667V9.72815L48.2754 22.8776V22.6161L60.3883 9.46667Z" fill="#E0482E"/>
<path d="M60.3883 7.92686V8.12365L48.2754 21.2731V21.0763L60.3883 7.92686Z" fill="#E0482E"/>
<path d="M60.3883 6.3868V6.51754L48.2754 19.6683V19.5362L60.3883 6.3868Z" fill="#E0482E"/>
<path d="M60.3883 37.1803V38.6212L48.2754 51.7706V50.3298L60.3883 37.1803Z" fill="#E0482E"/>
<path d="M60.3883 40.2588V38.7189L48.2754 51.8697V53.4083L60.3883 40.2588Z" fill="#E0482E"/>
</svg>
