<?xml version="1.0" encoding="UTF-8" standalone="no" ?>
<!DOCTYPE svg PUBLIC "-//W3C//DTD SVG 1.1//EN" "http://www.w3.org/Graphics/SVG/1.1/DTD/svg11.dtd">
<svg xmlns="http://www.w3.org/2000/svg" xmlns:xlink="http://www.w3.org/1999/xlink" version="1.1" width="1080" height="1080" viewBox="0 0 1080 1080" xml:space="preserve">
<desc>Created with Fabric.js 5.2.4</desc>
<defs>
</defs>
<g transform="matrix(1 0 0 1 540 540)" id="c7414d89-aa0f-41d7-a578-10516d3a968e"  >
<rect style="stroke: none; stroke-width: 1; stroke-dasharray: none; stroke-linecap: butt; stroke-dashoffset: 0; stroke-linejoin: miter; stroke-miterlimit: 4; fill: rgb(255,255,255); fill-rule: nonzero; opacity: 1; visibility: hidden;" vector-effect="non-scaling-stroke"  x="-540" y="-540" rx="0" ry="0" width="1080" height="1080" />
</g>
<g transform="matrix(1 0 0 1 540 540)" id="c7334d41-7d1d-46c8-a83a-a5d842b859b1"  >
</g>
<g transform="matrix(6.14 0 0 6.14 540 540)"  >
<g style=""   >
		<g transform="matrix(1 0 0 1 -21.53 -1.33)"  >
<path style="stroke: none; stroke-width: 1; stroke-dasharray: none; stroke-linecap: butt; stroke-dashoffset: 0; stroke-linejoin: miter; stroke-miterlimit: 4; fill: rgb(214,49,185); fill-rule: nonzero; opacity: 1;" vector-effect="non-scaling-stroke"  transform=" translate(-66.47, -20.17)" d="M 59.1562 29.322 L 59.1562 11.0117 L 62.8695 11.0117 L 62.8695 18.1822 L 70.0656 18.1822 L 70.0656 11.0117 L 73.7789 11.0117 L 73.7789 29.322 L 70.0656 29.322 L 70.0656 21.2552 L 62.8695 21.2552 L 62.8695 29.322 L 59.1562 29.322 Z" stroke-linecap="round" />
</g>
		<g transform="matrix(1 0 0 1 -6.46 3.4)"  >
<path style="stroke: none; stroke-width: 1; stroke-dasharray: none; stroke-linecap: butt; stroke-dashoffset: 0; stroke-linejoin: miter; stroke-miterlimit: 4; fill: rgb(214,49,185); fill-rule: nonzero; opacity: 1;" vector-effect="non-scaling-stroke"  transform=" translate(-81.54, -24.9)" d="M 76.5873 33.6243 L 76.5873 30.8842 L 77.8165 30.8842 C 79.114 30.8842 79.7628 30.2866 79.7628 29.0915 C 79.7628 28.5111 79.4298 27.3245 78.764 25.5319 L 75.23 16.1847 L 78.8921 16.1847 L 80.8383 22.1003 L 81.6834 24.9685 L 81.7346 24.9685 C 81.9736 23.8588 82.2297 22.9028 82.5029 22.1003 L 84.3467 16.1847 L 87.8551 16.1847 L 83.2712 29.6549 C 82.759 31.1573 82.1785 32.1902 81.5298 32.7536 C 80.8981 33.3341 79.9335 33.6243 78.636 33.6243 L 76.5873 33.6243 Z" stroke-linecap="round" />
</g>
		<g transform="matrix(1 0 0 1 7.54 3.23)"  >
<path style="stroke: none; stroke-width: 1; stroke-dasharray: none; stroke-linecap: butt; stroke-dashoffset: 0; stroke-linejoin: miter; stroke-miterlimit: 4; fill: rgb(214,49,185); fill-rule: nonzero; opacity: 1;" vector-effect="non-scaling-stroke"  transform=" translate(-95.54, -24.73)" d="M 89.0349 33.6243 L 89.0349 16.1847 L 92.3897 16.1847 L 92.3897 17.8237 L 92.4665 17.8237 C 93.4397 16.492 94.7286 15.8262 96.3335 15.8262 C 98.0578 15.8262 99.4407 16.4664 100.482 17.7468 C 101.524 19.0273 102.044 20.7004 102.044 22.7662 C 102.044 24.8832 101.524 26.5733 100.482 27.8367 C 99.4407 29.083 98.0663 29.7062 96.3591 29.7062 C 94.6518 29.7062 93.3884 29.083 92.569 27.8367 L 92.5177 27.8367 L 92.5177 33.6243 L 89.0349 33.6243 Z M 95.6164 26.8124 C 96.5042 26.8124 97.2042 26.4624 97.7163 25.7624 C 98.2456 25.0624 98.5102 24.0978 98.5102 22.8686 C 98.5102 21.554 98.2627 20.5211 97.7676 19.7699 C 97.2725 19.0187 96.5127 18.6431 95.4884 18.6431 C 94.4469 18.6431 93.6787 19.0358 93.1836 19.8212 C 92.6885 20.5894 92.4409 21.6052 92.4409 22.8686 C 92.4409 24.0808 92.7141 25.0454 93.2604 25.7624 C 93.8067 26.4624 94.5921 26.8124 95.6164 26.8124 Z" stroke-linecap="round" />
</g>
		<g transform="matrix(1 0 0 1 21.5 1.27)"  >
<path style="stroke: none; stroke-width: 1; stroke-dasharray: none; stroke-linecap: butt; stroke-dashoffset: 0; stroke-linejoin: miter; stroke-miterlimit: 4; fill: rgb(214,49,185); fill-rule: nonzero; opacity: 1;" vector-effect="non-scaling-stroke"  transform=" translate(-109.5, -22.77)" d="M 109.837 29.7062 C 107.72 29.7062 106.055 29.0574 104.843 27.7599 C 103.631 26.4453 103.025 24.7722 103.025 22.7406 C 103.025 20.7772 103.631 19.1383 104.843 17.8237 C 106.055 16.492 107.609 15.8262 109.504 15.8262 C 111.57 15.8262 113.166 16.5432 114.293 17.9773 C 115.419 19.4114 115.983 21.3321 115.983 23.7393 L 106.456 23.7393 C 106.593 24.7807 106.943 25.5917 107.506 26.1721 C 108.07 26.7355 108.838 27.0172 109.811 27.0172 C 111.092 27.0172 111.937 26.4794 112.346 25.4039 L 115.778 25.4039 C 115.522 26.6331 114.873 27.6575 113.832 28.4769 C 112.79 29.2964 111.459 29.7062 109.837 29.7062 Z M 109.555 18.5151 C 107.865 18.5151 106.849 19.4541 106.508 21.3321 L 112.346 21.3321 C 112.295 20.4955 112.013 19.8212 111.501 19.309 C 110.989 18.7797 110.34 18.5151 109.555 18.5151 Z" stroke-linecap="round" />
</g>
		<g transform="matrix(1 0 0 1 33.33 1.18)"  >
<path style="stroke: none; stroke-width: 1; stroke-dasharray: none; stroke-linecap: butt; stroke-dashoffset: 0; stroke-linejoin: miter; stroke-miterlimit: 4; fill: rgb(214,49,185); fill-rule: nonzero; opacity: 1;" vector-effect="non-scaling-stroke"  transform=" translate(-121.33, -22.68)" d="M 120.95 16.1847 L 120.95 18.2846 L 121.026 18.2846 C 121.436 17.5164 121.889 16.953 122.384 16.5944 C 122.879 16.2188 123.502 16.031 124.253 16.031 C 124.612 16.031 124.885 16.0652 125.073 16.1335 L 125.073 19.1809 L 124.996 19.1809 C 123.818 19.0614 122.87 19.3175 122.153 19.9492 C 121.436 20.5809 121.078 21.5711 121.078 22.9198 L 121.078 29.322 L 117.595 29.322 L 117.595 16.1847 L 120.95 16.1847 Z" stroke-linecap="round" />
</g>
		<g transform="matrix(1 0 0 1 40.37 -1.33)"  >
<path style="stroke: none; stroke-width: 1; stroke-dasharray: none; stroke-linecap: butt; stroke-dashoffset: 0; stroke-linejoin: miter; stroke-miterlimit: 4; fill: rgb(214,49,185); fill-rule: nonzero; opacity: 1;" vector-effect="non-scaling-stroke"  transform=" translate(-128.37, -20.17)" d="M 126.624 29.322 L 126.624 11.0117 L 130.107 11.0117 L 130.107 29.322 L 126.624 29.322 Z" stroke-linecap="round" />
</g>
		<g transform="matrix(1 0 0 1 49.89 1.24)"  >
<path style="stroke: none; stroke-width: 1; stroke-dasharray: none; stroke-linecap: butt; stroke-dashoffset: 0; stroke-linejoin: miter; stroke-miterlimit: 4; fill: rgb(214,49,185); fill-rule: nonzero; opacity: 1;" vector-effect="non-scaling-stroke"  transform=" translate(-137.89, -22.74)" d="M 140.672 29.322 C 140.501 29.1001 140.364 28.6135 140.262 27.8623 L 140.211 27.8623 C 139.835 28.4257 139.357 28.8611 138.776 29.1684 C 138.196 29.4757 137.385 29.6293 136.344 29.6293 C 134.961 29.6293 133.851 29.2793 133.015 28.5794 C 132.178 27.8794 131.76 26.8892 131.76 25.6087 C 131.76 24.2771 132.221 23.304 133.143 22.6893 C 134.064 22.0577 135.362 21.6223 137.035 21.3833 C 138.264 21.2126 139.101 21.0418 139.545 20.8711 C 139.989 20.6833 140.211 20.3589 140.211 19.898 C 140.211 19.4199 140.023 19.0444 139.647 18.7712 C 139.272 18.481 138.725 18.3358 138.008 18.3358 C 136.42 18.3358 135.575 18.9505 135.473 20.1797 L 132.374 20.1797 C 132.426 18.9334 132.929 17.9005 133.885 17.081 C 134.841 16.2615 136.224 15.8518 138.034 15.8518 C 141.722 15.8518 143.565 17.4651 143.565 20.6919 L 143.565 27.3758 C 143.565 28.366 143.719 28.972 144.026 29.194 L 144.026 29.322 L 140.672 29.322 Z M 137.189 27.1965 C 138.145 27.1965 138.896 26.9489 139.442 26.4538 C 140.006 25.9587 140.287 25.3697 140.287 24.6868 L 140.287 22.715 C 139.912 22.9369 139.101 23.193 137.855 23.4832 C 136.864 23.7052 136.164 23.9612 135.755 24.2515 C 135.345 24.5246 135.14 24.9515 135.14 25.5319 C 135.14 26.6416 135.823 27.1965 137.189 27.1965 Z" stroke-linecap="round" />
</g>
		<g transform="matrix(1 0 0 1 63.73 1.07)"  >
<path style="stroke: none; stroke-width: 1; stroke-dasharray: none; stroke-linecap: butt; stroke-dashoffset: 0; stroke-linejoin: miter; stroke-miterlimit: 4; fill: rgb(214,49,185); fill-rule: nonzero; opacity: 1;" vector-effect="non-scaling-stroke"  transform=" translate(-151.73, -22.57)" d="M 149.185 16.1847 L 149.185 17.9773 L 149.262 17.9773 C 150.167 16.5432 151.465 15.8262 153.155 15.8262 C 154.504 15.8262 155.596 16.2871 156.433 17.2091 C 157.269 18.1139 157.688 19.2919 157.688 20.7431 L 157.688 29.322 L 154.205 29.322 L 154.205 21.2552 C 154.205 20.5382 154 19.9577 153.59 19.5138 C 153.198 19.07 152.643 18.848 151.926 18.848 C 151.157 18.848 150.517 19.1297 150.005 19.6931 C 149.51 20.2565 149.262 20.9821 149.262 21.8699 L 149.262 29.322 L 145.78 29.322 L 145.78 16.1847 L 149.185 16.1847 Z" stroke-linecap="round" />
</g>
		<g transform="matrix(1 0 0 1 77.67 1.27)"  >
<path style="stroke: none; stroke-width: 1; stroke-dasharray: none; stroke-linecap: butt; stroke-dashoffset: 0; stroke-linejoin: miter; stroke-miterlimit: 4; fill: rgb(214,49,185); fill-rule: nonzero; opacity: 1;" vector-effect="non-scaling-stroke"  transform=" translate(-165.67, -22.77)" d="M 166.006 29.7062 C 163.889 29.7062 162.225 29.0574 161.012 27.7599 C 159.8 26.4453 159.194 24.7722 159.194 22.7406 C 159.194 20.7772 159.8 19.1383 161.012 17.8237 C 162.225 16.492 163.778 15.8262 165.673 15.8262 C 167.739 15.8262 169.335 16.5432 170.462 17.9773 C 171.589 19.4114 172.152 21.3321 172.152 23.7393 L 162.626 23.7393 C 162.762 24.7807 163.112 25.5917 163.676 26.1721 C 164.239 26.7355 165.007 27.0172 165.98 27.0172 C 167.261 27.0172 168.106 26.4794 168.516 25.4039 L 171.947 25.4039 C 171.691 26.6331 171.042 27.6575 170.001 28.4769 C 168.96 29.2964 167.628 29.7062 166.006 29.7062 Z M 165.724 18.5151 C 164.034 18.5151 163.018 19.4541 162.677 21.3321 L 168.516 21.3321 C 168.465 20.4955 168.183 19.8212 167.671 19.309 C 167.158 18.7797 166.51 18.5151 165.724 18.5151 Z" stroke-linecap="round" />
</g>
		<g transform="matrix(1 0 0 1 -18.54 -1.33)"  >
<path style="stroke: none; stroke-width: 1; stroke-dasharray: none; stroke-linecap: butt; stroke-dashoffset: 0; stroke-linejoin: miter; stroke-miterlimit: 4; fill: rgb(255,255,255); fill-rule: nonzero; opacity: 1;" vector-effect="non-scaling-stroke"  transform=" translate(-69.46, -20.17)" d="M 62.1439 29.322 L 62.1439 11.0117 L 65.8572 11.0117 L 65.8572 18.1822 L 73.0533 18.1822 L 73.0533 11.0117 L 76.7666 11.0117 L 76.7666 29.322 L 73.0533 29.322 L 73.0533 21.2552 L 65.8572 21.2552 L 65.8572 29.322 L 62.1439 29.322 Z" stroke-linecap="round" />
</g>
		<g transform="matrix(1 0 0 1 -3.47 3.4)"  >
<path style="stroke: none; stroke-width: 1; stroke-dasharray: none; stroke-linecap: butt; stroke-dashoffset: 0; stroke-linejoin: miter; stroke-miterlimit: 4; fill: rgb(255,255,255); fill-rule: nonzero; opacity: 1;" vector-effect="non-scaling-stroke"  transform=" translate(-84.53, -24.9)" d="M 79.575 33.6243 L 79.575 30.8842 L 80.8042 30.8842 C 82.1017 30.8842 82.7504 30.2866 82.7504 29.0915 C 82.7504 28.5111 82.4175 27.3245 81.7517 25.5319 L 78.2177 16.1847 L 81.8797 16.1847 L 83.826 22.1003 L 84.6711 24.9685 L 84.7223 24.9685 C 84.9613 23.8588 85.2174 22.9028 85.4906 22.1003 L 87.3344 16.1847 L 90.8428 16.1847 L 86.2589 29.6549 C 85.7467 31.1573 85.1662 32.1902 84.5175 32.7536 C 83.8858 33.3341 82.9212 33.6243 81.6237 33.6243 L 79.575 33.6243 Z" stroke-linecap="round" />
</g>
		<g transform="matrix(1 0 0 1 10.53 3.23)"  >
<path style="stroke: none; stroke-width: 1; stroke-dasharray: none; stroke-linecap: butt; stroke-dashoffset: 0; stroke-linejoin: miter; stroke-miterlimit: 4; fill: rgb(255,255,255); fill-rule: nonzero; opacity: 1;" vector-effect="non-scaling-stroke"  transform=" translate(-98.53, -24.73)" d="M 92.0226 33.6243 L 92.0226 16.1847 L 95.3774 16.1847 L 95.3774 17.8237 L 95.4542 17.8237 C 96.4274 16.492 97.7163 15.8262 99.3212 15.8262 C 101.045 15.8262 102.428 16.4664 103.47 17.7468 C 104.511 19.0273 105.032 20.7004 105.032 22.7662 C 105.032 24.8832 104.511 26.5733 103.47 27.8367 C 102.428 29.083 101.054 29.7062 99.3468 29.7062 C 97.6395 29.7062 96.3761 29.083 95.5567 27.8367 L 95.5054 27.8367 L 95.5054 33.6243 L 92.0226 33.6243 Z M 98.6041 26.8124 C 99.4919 26.8124 100.192 26.4624 100.704 25.7624 C 101.233 25.0624 101.498 24.0978 101.498 22.8686 C 101.498 21.554 101.25 20.5211 100.755 19.7699 C 100.26 19.0187 99.5004 18.6431 98.4761 18.6431 C 97.4346 18.6431 96.6664 19.0358 96.1713 19.8212 C 95.6762 20.5894 95.4286 21.6052 95.4286 22.8686 C 95.4286 24.0808 95.7018 25.0454 96.2481 25.7624 C 96.7944 26.4624 97.5798 26.8124 98.6041 26.8124 Z" stroke-linecap="round" />
</g>
		<g transform="matrix(1 0 0 1 24.49 1.27)"  >
<path style="stroke: none; stroke-width: 1; stroke-dasharray: none; stroke-linecap: butt; stroke-dashoffset: 0; stroke-linejoin: miter; stroke-miterlimit: 4; fill: rgb(255,255,255); fill-rule: nonzero; opacity: 1;" vector-effect="non-scaling-stroke"  transform=" translate(-112.49, -22.77)" d="M 112.824 29.7062 C 110.707 29.7062 109.043 29.0574 107.831 27.7599 C 106.619 26.4453 106.012 24.7722 106.012 22.7406 C 106.012 20.7772 106.619 19.1383 107.831 17.8237 C 109.043 16.492 110.596 15.8262 112.491 15.8262 C 114.557 15.8262 116.154 16.5432 117.28 17.9773 C 118.407 19.4114 118.971 21.3321 118.971 23.7393 L 109.444 23.7393 C 109.581 24.7807 109.931 25.5917 110.494 26.1721 C 111.057 26.7355 111.826 27.0172 112.799 27.0172 C 114.079 27.0172 114.924 26.4794 115.334 25.4039 L 118.766 25.4039 C 118.51 26.6331 117.861 27.6575 116.819 28.4769 C 115.778 29.2964 114.446 29.7062 112.824 29.7062 Z M 112.543 18.5151 C 110.853 18.5151 109.837 19.4541 109.495 21.3321 L 115.334 21.3321 C 115.283 20.4955 115.001 19.8212 114.489 19.309 C 113.977 18.7797 113.328 18.5151 112.543 18.5151 Z" stroke-linecap="round" />
</g>
		<g transform="matrix(1 0 0 1 36.32 1.18)"  >
<path style="stroke: none; stroke-width: 1; stroke-dasharray: none; stroke-linecap: butt; stroke-dashoffset: 0; stroke-linejoin: miter; stroke-miterlimit: 4; fill: rgb(255,255,255); fill-rule: nonzero; opacity: 1;" vector-effect="non-scaling-stroke"  transform=" translate(-124.32, -22.68)" d="M 123.937 16.1847 L 123.937 18.2846 L 124.014 18.2846 C 124.424 17.5164 124.876 16.953 125.371 16.5944 C 125.866 16.2188 126.49 16.031 127.241 16.031 C 127.599 16.031 127.872 16.0652 128.06 16.1335 L 128.06 19.1809 L 127.983 19.1809 C 126.805 19.0614 125.858 19.3175 125.141 19.9492 C 124.424 20.5809 124.065 21.5711 124.065 22.9198 L 124.065 29.322 L 120.582 29.322 L 120.582 16.1847 L 123.937 16.1847 Z" stroke-linecap="round" />
</g>
		<g transform="matrix(1 0 0 1 43.35 -1.33)"  >
<path style="stroke: none; stroke-width: 1; stroke-dasharray: none; stroke-linecap: butt; stroke-dashoffset: 0; stroke-linejoin: miter; stroke-miterlimit: 4; fill: rgb(255,255,255); fill-rule: nonzero; opacity: 1;" vector-effect="non-scaling-stroke"  transform=" translate(-131.35, -20.17)" d="M 129.612 29.322 L 129.612 11.0117 L 133.095 11.0117 L 133.095 29.322 L 129.612 29.322 Z" stroke-linecap="round" />
</g>
		<g transform="matrix(1 0 0 1 52.88 1.24)"  >
<path style="stroke: none; stroke-width: 1; stroke-dasharray: none; stroke-linecap: butt; stroke-dashoffset: 0; stroke-linejoin: miter; stroke-miterlimit: 4; fill: rgb(255,255,255); fill-rule: nonzero; opacity: 1;" vector-effect="non-scaling-stroke"  transform=" translate(-140.88, -22.74)" d="M 143.659 29.322 C 143.489 29.1001 143.352 28.6135 143.249 27.8623 L 143.198 27.8623 C 142.823 28.4257 142.345 28.8611 141.764 29.1684 C 141.184 29.4757 140.373 29.6293 139.331 29.6293 C 137.948 29.6293 136.839 29.2793 136.002 28.5794 C 135.166 27.8794 134.747 26.8892 134.747 25.6087 C 134.747 24.2771 135.208 23.304 136.13 22.6893 C 137.052 22.0577 138.35 21.6223 140.023 21.3833 C 141.252 21.2126 142.089 21.0418 142.532 20.8711 C 142.976 20.6833 143.198 20.3589 143.198 19.898 C 143.198 19.4199 143.01 19.0444 142.635 18.7712 C 142.259 18.481 141.713 18.3358 140.996 18.3358 C 139.408 18.3358 138.563 18.9505 138.461 20.1797 L 135.362 20.1797 C 135.413 18.9334 135.917 17.9005 136.873 17.081 C 137.829 16.2615 139.212 15.8518 141.022 15.8518 C 144.709 15.8518 146.553 17.4651 146.553 20.6919 L 146.553 27.3758 C 146.553 28.366 146.707 28.972 147.014 29.194 L 147.014 29.322 L 143.659 29.322 Z M 140.176 27.1965 C 141.133 27.1965 141.884 26.9489 142.43 26.4538 C 142.993 25.9587 143.275 25.3697 143.275 24.6868 L 143.275 22.715 C 142.9 22.9369 142.089 23.193 140.842 23.4832 C 139.852 23.7052 139.152 23.9612 138.742 24.2515 C 138.333 24.5246 138.128 24.9515 138.128 25.5319 C 138.128 26.6416 138.811 27.1965 140.176 27.1965 Z" stroke-linecap="round" />
</g>
		<g transform="matrix(1 0 0 1 66.72 1.07)"  >
<path style="stroke: none; stroke-width: 1; stroke-dasharray: none; stroke-linecap: butt; stroke-dashoffset: 0; stroke-linejoin: miter; stroke-miterlimit: 4; fill: rgb(255,255,255); fill-rule: nonzero; opacity: 1;" vector-effect="non-scaling-stroke"  transform=" translate(-154.72, -22.57)" d="M 152.173 16.1847 L 152.173 17.9773 L 152.25 17.9773 C 153.155 16.5432 154.452 15.8262 156.143 15.8262 C 157.491 15.8262 158.584 16.2871 159.42 17.2091 C 160.257 18.1139 160.675 19.2919 160.675 20.7431 L 160.675 29.322 L 157.193 29.322 L 157.193 21.2552 C 157.193 20.5382 156.988 19.9577 156.578 19.5138 C 156.185 19.07 155.63 18.848 154.913 18.848 C 154.145 18.848 153.505 19.1297 152.993 19.6931 C 152.498 20.2565 152.25 20.9821 152.25 21.8699 L 152.25 29.322 L 148.767 29.322 L 148.767 16.1847 L 152.173 16.1847 Z" stroke-linecap="round" />
</g>
		<g transform="matrix(1 0 0 1 80.66 1.27)"  >
<path style="stroke: none; stroke-width: 1; stroke-dasharray: none; stroke-linecap: butt; stroke-dashoffset: 0; stroke-linejoin: miter; stroke-miterlimit: 4; fill: rgb(255,255,255); fill-rule: nonzero; opacity: 1;" vector-effect="non-scaling-stroke"  transform=" translate(-168.66, -22.77)" d="M 168.994 29.7062 C 166.877 29.7062 165.212 29.0574 164 27.7599 C 162.788 26.4453 162.182 24.7722 162.182 22.7406 C 162.182 20.7772 162.788 19.1383 164 17.8237 C 165.212 16.492 166.766 15.8262 168.661 15.8262 C 170.727 15.8262 172.323 16.5432 173.45 17.9773 C 174.576 19.4114 175.14 21.3321 175.14 23.7393 L 165.613 23.7393 C 165.75 24.7807 166.1 25.5917 166.663 26.1721 C 167.227 26.7355 167.995 27.0172 168.968 27.0172 C 170.249 27.0172 171.094 26.4794 171.503 25.4039 L 174.935 25.4039 C 174.679 26.6331 174.03 27.6575 172.989 28.4769 C 171.947 29.2964 170.616 29.7062 168.994 29.7062 Z M 168.712 18.5151 C 167.022 18.5151 166.006 19.4541 165.665 21.3321 L 171.503 21.3321 C 171.452 20.4955 171.171 19.8212 170.658 19.309 C 170.146 18.7797 169.497 18.5151 168.712 18.5151 Z" stroke-linecap="round" />
</g>
		<g transform="matrix(1 0 0 1 -55.87 -0.43)"  >
<path style="stroke: none; stroke-width: 1; stroke-dasharray: none; stroke-linecap: butt; stroke-dashoffset: 0; stroke-linejoin: miter; stroke-miterlimit: 4; fill: rgb(214,49,185); fill-rule: nonzero; opacity: 1;" vector-effect="non-scaling-stroke"  transform=" translate(-32.13, -21.07)" d="M 23.1036 0 L 31.6797 0 C 32.8498 0 33.8966 0.679412 34.3051 1.70389 L 41.8327 20.5851 C 41.8908 20.7307 41.8915 20.8909 41.8347 21.037 L 41.7925 21.1455 L 41.7921 21.1466 L 34.2961 40.4213 C 33.8936 41.4561 32.8413 42.1449 31.663 42.1449 L 23.0881 42.1449 C 22.6059 42.1449 22.2679 41.7002 22.4269 41.2748 L 30.1562 20.5851 L 22.4458 0.879134 C 22.2787 0.452147 22.617 0 23.1036 0 Z" stroke-linecap="round" />
</g>
		<g transform="matrix(1 0 0 1 -78.26 -0.43)"  >
<path style="stroke: none; stroke-width: 1; stroke-dasharray: none; stroke-linecap: butt; stroke-dashoffset: 0; stroke-linejoin: miter; stroke-miterlimit: 4; fill: rgb(214,49,185); fill-rule: nonzero; opacity: 1;" vector-effect="non-scaling-stroke"  transform=" translate(-9.74, -21.07)" d="M 0.716429 0 L 9.29259 0 C 10.4626 0 11.5094 0.679412 11.9179 1.70389 L 19.4455 20.5851 C 19.5036 20.7307 19.5043 20.8909 19.4475 21.037 L 19.4053 21.1455 L 19.4049 21.1466 L 11.9089 40.4213 C 11.5065 41.4561 10.4541 42.1449 9.27582 42.1449 L 0.700956 42.1449 C 0.218745 42.1449 -0.119219 41.7002 0.0397026 41.2748 L 7.76905 20.5851 L 0.0586293 0.879134 C -0.10844 0.452147 0.229874 0 0.716429 0 Z" stroke-linecap="round" />
</g>
		<g transform="matrix(1 0 0 1 -64.14 -0.37)"  >
<path style="stroke: none; stroke-width: 1; stroke-dasharray: none; stroke-linecap: butt; stroke-dashoffset: 0; stroke-linejoin: miter; stroke-miterlimit: 4; fill: rgb(214,49,185); fill-rule: nonzero; opacity: 1;" vector-effect="non-scaling-stroke"  transform=" translate(-23.86, -21.13)" d="M 28.923 16.5586 L 16.8164 16.5586 L 16.8164 25.6924 L 28.923 25.6924 L 30.9013 20.995 L 28.923 16.5586 Z" stroke-linecap="round" />
</g>
		<g transform="matrix(1 0 0 1 -50.92 -0.43)"  >
<path style="stroke: none; stroke-width: 1; stroke-dasharray: none; stroke-linecap: butt; stroke-dashoffset: 0; stroke-linejoin: miter; stroke-miterlimit: 4; fill: rgb(255,255,255); fill-rule: nonzero; opacity: 1;" vector-effect="non-scaling-stroke"  transform=" translate(-37.08, -21.07)" d="M 28.0528 0 L 36.629 0 C 37.799 0 38.8458 0.679412 39.2543 1.70389 L 46.782 20.5851 C 46.84 20.7307 46.8407 20.8909 46.7839 21.037 L 46.7417 21.1455 L 46.7413 21.1466 L 39.2453 40.4213 C 38.8429 41.4561 37.7905 42.1449 36.6122 42.1449 L 28.0373 42.1449 C 27.5551 42.1449 27.2172 41.7002 27.3761 41.2748 L 35.1054 20.5851 L 27.395 0.879134 C 27.2279 0.452147 27.5663 0 28.0528 0 Z" stroke-linecap="round" />
</g>
		<g transform="matrix(1 0 0 1 -73.31 -0.43)"  >
<path style="stroke: none; stroke-width: 1; stroke-dasharray: none; stroke-linecap: butt; stroke-dashoffset: 0; stroke-linejoin: miter; stroke-miterlimit: 4; fill: rgb(255,255,255); fill-rule: nonzero; opacity: 1;" vector-effect="non-scaling-stroke"  transform=" translate(-14.69, -21.07)" d="M 5.66565 0 L 14.2418 0 C 15.4118 0 16.4587 0.679412 16.8671 1.70389 L 24.3948 20.5851 C 24.4528 20.7307 24.4535 20.8909 24.3967 21.037 L 24.3545 21.1455 L 24.3541 21.1466 L 16.8581 40.4213 C 16.4557 41.4561 15.4033 42.1449 14.225 42.1449 L 5.65018 42.1449 C 5.16796 42.1449 4.83 41.7002 4.98892 41.2748 L 12.7183 20.5851 L 5.00785 0.879134 C 4.84078 0.452147 5.17909 0 5.66565 0 Z" stroke-linecap="round" />
</g>
		<g transform="matrix(1 0 0 1 -59.19 -0.37)"  >
<path style="stroke: none; stroke-width: 1; stroke-dasharray: none; stroke-linecap: butt; stroke-dashoffset: 0; stroke-linejoin: miter; stroke-miterlimit: 4; fill: rgb(255,255,255); fill-rule: nonzero; opacity: 1;" vector-effect="non-scaling-stroke"  transform=" translate(-28.81, -21.13)" d="M 33.8723 16.5586 L 21.7656 16.5586 L 21.7656 25.6924 L 33.8723 25.6924 L 35.8505 20.995 L 33.8723 16.5586 Z" stroke-linecap="round" />
</g>
</g>
</g>
</svg>