<?xml version="1.0" encoding="UTF-8" standalone="no" ?>
<!DOCTYPE svg PUBLIC "-//W3C//DTD SVG 1.1//EN" "http://www.w3.org/Graphics/SVG/1.1/DTD/svg11.dtd">
<svg xmlns="http://www.w3.org/2000/svg" xmlns:xlink="http://www.w3.org/1999/xlink" version="1.1" width="1080" height="1080" viewBox="0 0 1080 1080" xml:space="preserve">
<desc>Created with Fabric.js 5.2.4</desc>
<defs>
</defs>
<g transform="matrix(1 0 0 1 540 540)" id="eda379ea-9770-4289-9c3e-f628378c6b80"  >
<rect style="stroke: none; stroke-width: 1; stroke-dasharray: none; stroke-linecap: butt; stroke-dashoffset: 0; stroke-linejoin: miter; stroke-miterlimit: 4; fill: rgb(255,255,255); fill-rule: nonzero; opacity: 1; visibility: hidden;" vector-effect="non-scaling-stroke"  x="-540" y="-540" rx="0" ry="0" width="1080" height="1080" />
</g>
<g transform="matrix(1 0 0 1 540 540)" id="6bb5a0d0-ffde-4bf5-92c1-266253489eda"  >
</g>
<g transform="matrix(13.33 0 0 13.33 540 540)"  >
<g style=""   >
		<g transform="matrix(1 0 0 1 1.79 1.98)" clip-path="url(#CLIPPATH_3)"  >
<clipPath id="CLIPPATH_3" >
	<rect transform="matrix(1 0 0 1 -1.79 -1.98)" id="clip0_396_40560" x="-40.5" y="-12" rx="0" ry="0" width="81" height="24" />
</clipPath>
<path style="stroke: none; stroke-width: 1; stroke-dasharray: none; stroke-linecap: butt; stroke-dashoffset: 0; stroke-linejoin: miter; stroke-miterlimit: 4; fill: rgb(255,255,255); fill-rule: nonzero; opacity: 1;" vector-effect="non-scaling-stroke"  transform=" translate(-42.29, -13.98)" d="M 36.8463 8.36919 L 40.2014 8.36919 L 40.2014 9.82058 C 40.5333 9.30746 40.9806 8.9043 41.5434 8.61109 C 42.1062 8.30322 42.77 8.14928 43.5348 8.14928 C 44.7614 8.14928 45.7643 8.55978 46.5435 9.38077 C 47.3372 10.1871 47.734 11.4186 47.734 13.0752 L 47.734 19.8044 L 44.379 19.8044 L 44.379 13.669 C 44.379 12.9213 44.1986 12.3202 43.8378 11.8657 C 43.4771 11.4113 42.9576 11.184 42.2793 11.184 C 41.6155 11.184 41.1033 11.4186 40.7425 11.8877 C 40.3817 12.3422 40.2014 12.936 40.2014 13.669 L 40.2014 19.8044 L 36.8463 19.8044 L 36.8463 8.36919 Z" stroke-linecap="round" />
</g>
		<g transform="matrix(1 0 0 1 10.94 0)" clip-path="url(#CLIPPATH_4)"  >
<clipPath id="CLIPPATH_4" >
	<rect transform="matrix(1 0 0 1 -10.94 0)" id="clip0_396_40560" x="-40.5" y="-12" rx="0" ry="0" width="81" height="24" />
</clipPath>
<path style="stroke: none; stroke-width: 1; stroke-dasharray: none; stroke-linecap: butt; stroke-dashoffset: 0; stroke-linejoin: miter; stroke-miterlimit: 4; fill: rgb(255,255,255); fill-rule: nonzero; opacity: 1;" vector-effect="non-scaling-stroke"  transform=" translate(-51.44, -12)" d="M 49.7618 8.36919 L 53.1169 8.36919 L 53.1169 19.8044 L 49.7618 19.8044 L 49.7618 8.36919 Z M 49.7618 4.19093 L 53.1169 4.19093 L 53.1169 7.15969 L 49.7618 7.15969 L 49.7618 4.19093 Z" stroke-linecap="round" />
</g>
		<g transform="matrix(1 0 0 1 17.82 0.69)" clip-path="url(#CLIPPATH_5)"  >
<clipPath id="CLIPPATH_5" >
	<rect transform="matrix(1 0 0 1 -17.82 -0.69)" id="clip0_396_40560" x="-40.5" y="-12" rx="0" ry="0" width="81" height="24" />
</clipPath>
<path style="stroke: none; stroke-width: 1; stroke-dasharray: none; stroke-linecap: butt; stroke-dashoffset: 0; stroke-linejoin: miter; stroke-miterlimit: 4; fill: rgb(255,255,255); fill-rule: nonzero; opacity: 1;" vector-effect="non-scaling-stroke"  transform=" translate(-58.32, -12.69)" d="M 59.8708 19.9364 C 58.7741 19.9364 57.9011 19.6432 57.2517 19.0567 C 56.6023 18.4557 56.2777 17.532 56.2777 16.2859 L 56.2777 11.0741 L 54.6109 11.0741 L 54.6109 8.36919 L 56.2777 8.36919 L 56.2777 5.44441 L 59.6327 5.44441 L 59.6327 8.36919 L 61.9921 8.36919 L 61.9921 11.0741 L 59.6327 11.0741 L 59.6327 15.7361 C 59.6327 16.0733 59.741 16.3592 59.9574 16.5938 C 60.1739 16.8137 60.513 16.9236 60.9748 16.9236 C 61.3211 16.9236 61.6746 16.865 62.0354 16.7477 L 62.0354 19.3426 C 61.8334 19.5479 61.5303 19.7018 61.1263 19.8044 C 60.7367 19.8924 60.3182 19.9364 59.8708 19.9364 Z" stroke-linecap="round" />
</g>
		<g transform="matrix(1 0 0 1 24.76 0)" clip-path="url(#CLIPPATH_6)"  >
<clipPath id="CLIPPATH_6" >
	<rect transform="matrix(1 0 0 1 -24.76 0)" id="clip0_396_40560" x="-40.5" y="-12" rx="0" ry="0" width="81" height="24" />
</clipPath>
<path style="stroke: none; stroke-width: 1; stroke-dasharray: none; stroke-linecap: butt; stroke-dashoffset: 0; stroke-linejoin: miter; stroke-miterlimit: 4; fill: rgb(255,255,255); fill-rule: nonzero; opacity: 1;" vector-effect="non-scaling-stroke"  transform=" translate(-65.26, -12)" d="M 63.5863 8.36919 L 66.9414 8.36919 L 66.9414 19.8044 L 63.5863 19.8044 L 63.5863 8.36919 Z M 63.5863 4.19093 L 66.9414 4.19093 L 66.9414 7.15969 L 63.5863 7.15969 L 63.5863 4.19093 Z" stroke-linecap="round" />
</g>
		<g transform="matrix(1 0 0 1 34 2.09)" clip-path="url(#CLIPPATH_7)"  >
<clipPath id="CLIPPATH_7" >
	<rect transform="matrix(1 0 0 1 -34 -2.09)" id="clip0_396_40560" x="-40.5" y="-12" rx="0" ry="0" width="81" height="24" />
</clipPath>
<path style="stroke: none; stroke-width: 1; stroke-dasharray: none; stroke-linecap: butt; stroke-dashoffset: 0; stroke-linejoin: miter; stroke-miterlimit: 4; fill: rgb(255,255,255); fill-rule: nonzero; opacity: 1;" vector-effect="non-scaling-stroke"  transform=" translate(-74.5, -14.09)" d="M 73.8035 20.0243 C 72.9089 20.0243 72.0502 19.7971 71.2277 19.3426 C 70.4052 18.8881 69.7342 18.2138 69.2147 17.3195 C 68.6952 16.4252 68.4354 15.3476 68.4354 14.0868 C 68.4354 12.826 68.6952 11.7484 69.2147 10.8542 C 69.7342 9.95986 70.4052 9.28547 71.2277 8.831 C 72.0502 8.37652 72.9089 8.14928 73.8035 8.14928 C 74.4096 8.14928 74.9508 8.24457 75.427 8.43516 C 75.9176 8.61109 76.3072 8.81634 76.5958 9.0509 C 76.8844 9.28547 77.0648 9.49072 77.137 9.66665 L 77.2019 9.66665 L 77.2019 8.36919 L 80.557 8.36919 L 80.557 19.8044 L 77.2019 19.8044 L 77.2019 18.507 L 77.137 18.507 C 77.0648 18.6829 76.8844 18.8881 76.5958 19.1227 C 76.3072 19.3573 75.9176 19.5699 75.427 19.7604 C 74.9508 19.9364 74.4096 20.0243 73.8035 20.0243 Z M 71.7472 14.0868 C 71.7472 14.9664 72.0142 15.6701 72.5481 16.1979 C 73.0965 16.7257 73.7458 16.9896 74.4962 16.9896 C 75.2755 16.9896 75.932 16.733 76.466 16.2199 C 77.0143 15.6921 77.2885 14.9811 77.2885 14.0868 C 77.2885 13.1925 77.0143 12.4888 76.466 11.9757 C 75.932 11.4479 75.2755 11.184 74.4962 11.184 C 73.7458 11.184 73.0965 11.4479 72.5481 11.9757 C 72.0142 12.5035 71.7472 13.2072 71.7472 14.0868 Z" stroke-linecap="round" />
</g>
		<g transform="matrix(1 0 0 1 -7.43 0)" clip-path="url(#CLIPPATH_8)"  >
<clipPath id="CLIPPATH_8" >
	<rect transform="matrix(1 0 0 1 7.43 0)" id="clip0_396_40560" x="-40.5" y="-12" rx="0" ry="0" width="81" height="24" />
</clipPath>
<path style="stroke: none; stroke-width: 1; stroke-dasharray: none; stroke-linecap: butt; stroke-dashoffset: 0; stroke-linejoin: miter; stroke-miterlimit: 4; fill: rgb(255,255,255); fill-rule: nonzero; opacity: 1;" vector-effect="non-scaling-stroke"  transform=" translate(-33.07, -12)" d="M 31.3926 8.36918 L 34.7477 8.36918 L 34.7477 19.8044 L 31.3926 19.8044 L 31.3926 8.36918 Z M 31.3926 4.19092 L 34.7477 4.19092 L 34.7477 7.15968 L 31.3926 7.15968 L 31.3926 4.19092 Z" stroke-linecap="round" />
</g>
		<g transform="matrix(1 0 0 1 -28.39 0)" clip-path="url(#CLIPPATH_9)"  >
<clipPath id="CLIPPATH_9" >
	<rect transform="matrix(1 0 0 1 28.39 0)" id="clip0_396_40560" x="-40.5" y="-12" rx="0" ry="0" width="81" height="24" />
</clipPath>
<circle style="stroke: none; stroke-width: 1; stroke-dasharray: none; stroke-linecap: butt; stroke-dashoffset: 0; stroke-linejoin: miter; stroke-miterlimit: 4; fill: rgb(255,255,255); fill-rule: nonzero; opacity: 1;" vector-effect="non-scaling-stroke"  cx="0" cy="0" r="12" />
</g>
		<g transform="matrix(1 0 0 1 -28.38 0)" clip-path="url(#CLIPPATH_10)"  >
<clipPath id="CLIPPATH_10" >
	<rect transform="matrix(1 0 0 1 28.38 0)" id="clip0_396_40560" x="-40.5" y="-12" rx="0" ry="0" width="81" height="24" />
</clipPath>
<path style="stroke: none; stroke-width: 1; stroke-dasharray: none; stroke-linecap: butt; stroke-dashoffset: 0; stroke-linejoin: miter; stroke-miterlimit: 4; fill: rgb(20,20,20); fill-rule: nonzero; opacity: 1;" vector-effect="non-scaling-stroke"  transform=" translate(-12.12, -12)" d="M 13.1185 9.39957 C 13.1353 8.36267 13.8696 7.48831 14.8728 7.29214 L 14.8728 5.26318 C 13.8472 5.36968 12.8943 5.85169 12.1937 6.62516 L 12.1153 6.71484 L 12.0368 6.62516 C 11.3362 5.84609 10.389 5.36968 9.35767 5.26318 L 9.35767 7.29214 C 10.3609 7.48831 11.0952 8.36267 11.112 9.39396 L 11.112 14.6009 C 11.0952 15.6378 10.3609 16.5121 9.35767 16.7083 L 9.35767 18.7373 C 10.3834 18.6308 11.3362 18.1487 12.0368 17.3753 L 12.1153 17.2856 L 12.1937 17.3753 C 12.8943 18.1544 13.8416 18.6308 14.8728 18.7373 L 14.8728 16.7083 C 13.8696 16.5121 13.1353 15.6378 13.1185 14.6065 L 13.1185 9.39957 Z" stroke-linecap="round" />
</g>
</g>
</g>
</svg>