<svg width="1034" height="221" viewBox="0 0 1034 221" fill="none" xmlns="http://www.w3.org/2000/svg">
<path fill-rule="evenodd" clip-rule="evenodd" d="M111.204 218.539C115.021 221.273 120.097 221.062 123.642 218.341L229.321 142.641C232.7 140.22 234.158 136.16 233.386 132.371C233.315 131.646 233.163 130.918 232.925 130.198L192.45 7.37962C192.167 6.51881 191.778 5.7206 191.302 4.99432C189.498 2.00375 186.187 0 182.401 0H51.7288C46.8804 0 42.8109 3.28651 41.6867 7.72311C41.5533 8.02496 41.4336 8.33567 41.3282 8.65523L1.15732 130.55C-0.0375832 134.176 0.937221 137.983 3.37588 140.607C4.01873 141.516 4.82387 142.336 5.78438 143.024L111.204 218.539ZM30.6646 107.06L68.2897 80.2071L53.9319 36.4578L30.6646 107.06ZM70.4222 20.4095L85.9179 67.6259L152.075 20.4095H70.4222ZM177.339 27.5741L92.6174 88.04L103.752 121.967H208.447L177.339 27.5741ZM194.473 142.376H110.45L126.443 191.108L194.473 142.376ZM103.628 187.884L88.6926 142.376H40.0977L103.628 187.884ZM45.0812 121.967L74.9892 100.621L81.9944 121.967H45.0812Z" fill="#020617"/>
<path d="M380.281 153.291C379.286 153.291 378.353 152.815 377.775 152.012L345.919 107.749C345.341 106.947 344.408 106.47 343.413 106.47H335.304C333.605 106.47 332.227 107.836 332.227 109.521V150.241C332.227 151.925 330.849 153.291 329.15 153.291H317.763C316.064 153.291 314.686 151.925 314.686 150.241V49.5845C314.686 47.8999 316.064 46.5343 317.763 46.5343H329.15C330.849 46.5343 332.227 47.8999 332.227 49.5845V87.1018C332.227 88.7864 333.605 90.152 335.304 90.152H343.237C344.244 90.152 345.187 89.6634 345.763 88.8439L374.546 47.8424C375.122 47.0229 376.065 46.5343 377.072 46.5343H391.355C393.854 46.5343 395.311 49.3307 393.864 51.3504L361.663 96.2996C360.899 97.3654 360.906 98.7949 361.679 99.8538L397.166 148.452C398.639 150.469 397.185 153.291 394.673 153.291H380.281Z" fill="#020617"/>
<path d="M446.684 133.922C446.684 135.607 448.062 136.972 449.761 136.972H488.383C490.083 136.972 491.46 138.338 491.46 140.023V150.241C491.46 151.925 490.083 153.291 488.383 153.291H432.22C430.521 153.291 429.143 151.925 429.143 150.241V49.5845C429.143 47.8999 430.521 46.5343 432.22 46.5343H443.607C445.306 46.5343 446.684 47.8999 446.684 49.5845V133.922Z" fill="#020617"/>
<path d="M599.558 153.291C598.295 153.291 597.16 152.525 596.696 151.361L589.001 132.04C588.537 130.875 587.402 130.109 586.139 130.109H542.178C540.908 130.109 539.768 130.883 539.309 132.056L531.755 151.344C531.295 152.518 530.156 153.291 528.886 153.291H516.772C514.593 153.291 513.104 151.108 513.916 149.104L554.683 48.4482C555.151 47.292 556.282 46.5343 557.539 46.5343H570.02C571.265 46.5343 572.387 47.2774 572.863 48.417L614.936 149.073C615.775 151.082 614.286 153.291 612.093 153.291H599.558ZM566.948 76.5903C565.919 74.0187 562.244 74.024 561.223 76.5986L547.879 110.235C547.085 112.236 548.573 114.401 550.743 114.401H577.547C579.72 114.401 581.208 112.229 580.407 110.226L566.948 76.5903Z" fill="#020617"/>
<path d="M677.87 154.969C654.861 154.969 638.831 142.794 637.359 122.792C637.235 121.112 638.626 119.739 640.325 119.739H652.173C653.873 119.739 655.221 121.114 655.478 122.78C657.019 132.772 666.217 138.345 677.716 138.345C689.256 138.345 698.95 132.245 698.95 122.484C698.95 111.808 687.41 109.216 674.485 106.166C658.02 102.2 639.094 97.625 639.094 75.6636C639.094 56.4474 653.866 45.0092 676.793 45.0092C698.976 45.0092 712.577 56.3964 713.92 74.7464C714.043 76.4266 712.652 77.7988 710.952 77.7988H699.565C697.866 77.7988 696.523 76.4207 696.23 74.7613C694.691 66.0284 686.447 61.3277 676.331 61.3277C665.56 61.3277 656.789 66.2081 656.789 74.9011C656.789 84.8142 667.868 87.4068 680.639 90.457C697.411 94.5748 717.107 99.3026 717.107 122.332C717.107 143.683 699.719 154.969 677.87 154.969Z" fill="#020617"/>
<path d="M817.434 46.5343C819.134 46.5343 820.512 47.8999 820.512 49.5845V59.9551C820.512 61.6397 819.134 63.0053 817.434 63.0053H792.046C790.346 63.0053 788.968 64.3709 788.968 66.0555V150.241C788.968 151.925 787.59 153.291 785.891 153.291H774.35C772.651 153.291 771.273 151.925 771.273 150.241V66.0555C771.273 64.3709 769.895 63.0053 768.196 63.0053H742.807C741.107 63.0053 739.73 61.6397 739.73 59.9551V49.5845C739.73 47.8999 741.107 46.5343 742.807 46.5343H817.434Z" fill="#020617"/>
<path d="M871.153 133.77C871.153 135.454 872.53 136.82 874.23 136.82H914.698C916.398 136.82 917.775 138.185 917.775 139.87V150.241C917.775 151.925 916.398 153.291 914.698 153.291H856.689C854.989 153.291 853.611 151.925 853.611 150.241V49.5845C853.611 47.8999 854.989 46.5343 856.689 46.5343H913.005C914.705 46.5343 916.083 47.8999 916.083 49.5845V59.9551C916.083 61.6397 914.705 63.0053 913.005 63.0053H874.23C872.53 63.0053 871.153 64.3709 871.153 66.0555V87.8643C871.153 89.5489 872.53 90.9145 874.23 90.9145H909.005C910.704 90.9145 912.082 92.2801 912.082 93.9647V103.878C912.082 105.562 910.704 106.928 909.005 106.928H874.23C872.53 106.928 871.153 108.294 871.153 109.978V133.77Z" fill="#020617"/>
<path d="M1017.27 153.291C1016.18 153.291 1015.17 152.714 1014.61 151.777L993.161 115.305C992.61 114.367 991.597 113.791 990.503 113.791H974.883C973.184 113.791 971.806 115.157 971.806 116.841V150.241C971.806 151.925 970.428 153.291 968.728 153.291H957.342C955.642 153.291 954.265 151.925 954.265 150.241V49.5845C954.265 47.8999 955.642 46.5343 957.342 46.5343H996.117C1016.89 46.5343 1032.28 60.7177 1032.28 80.3914C1032.28 93.6025 1024.98 104.404 1013.78 109.906C1012.07 110.747 1011.31 112.844 1012.28 114.476L1032.62 148.693C1033.83 150.726 1032.35 153.291 1029.97 153.291H1017.27ZM974.883 63.0053C973.184 63.0053 971.806 64.3709 971.806 66.0555V94.4222C971.806 96.1068 973.184 97.4724 974.883 97.4724H995.04C1006.73 97.4724 1014.27 90.3045 1014.27 80.2389C1014.27 70.3258 1006.73 63.0053 995.04 63.0053H974.883Z" fill="#020617"/>
</svg>
