<?xml version="1.0" encoding="UTF-8" standalone="no" ?>
<!DOCTYPE svg PUBLIC "-//W3C//DTD SVG 1.1//EN" "http://www.w3.org/Graphics/SVG/1.1/DTD/svg11.dtd">
<svg xmlns="http://www.w3.org/2000/svg" xmlns:xlink="http://www.w3.org/1999/xlink" version="1.1" width="1080" height="1080" viewBox="0 0 1080 1080" xml:space="preserve">
<desc>Created with Fabric.js 5.2.4</desc>
<defs>
</defs>
<g transform="matrix(1 0 0 1 540 540)" id="4f7b60ae-f36f-441a-aa98-81c723af6432"  >
<rect style="stroke: none; stroke-width: 1; stroke-dasharray: none; stroke-linecap: butt; stroke-dashoffset: 0; stroke-linejoin: miter; stroke-miterlimit: 4; fill: rgb(255,255,255); fill-rule: nonzero; opacity: 1; visibility: hidden;" vector-effect="non-scaling-stroke"  x="-540" y="-540" rx="0" ry="0" width="1080" height="1080" />
</g>
<g transform="matrix(1 0 0 1 540 540)" id="4c67945c-a0e4-40ae-b5ac-667699c01f89"  >
</g>
<g transform="matrix(8.57 0 0 8.57 540 540)"  >
<g style=""   >
		<g transform="matrix(1 0 0 1 55.72 -1.08)" clip-path="url(#CLIPPATH_3)"  >
<clipPath id="CLIPPATH_3" >
	<rect transform="matrix(1 0 0 1 -55.72 1.08)" id="clip0_0_188" x="-63" y="-33" rx="0" ry="0" width="126" height="66" />
</clipPath>
<path style="stroke: none; stroke-width: 1; stroke-dasharray: none; stroke-linecap: butt; stroke-dashoffset: 0; stroke-linejoin: miter; stroke-miterlimit: 4; fill: rgb(0,13,31); fill-rule: nonzero; opacity: 1;" vector-effect="non-scaling-stroke"  transform=" translate(-118.72, -31.92)" d="M 118.664 39.3797 C 117.189 39.3797 115.754 39.1403 114.357 38.6445 C 112.979 38.1487 112.009 37.4516 111.446 36.5871 L 113.444 35.4302 C 113.735 35.9069 114.395 36.3307 115.461 36.6803 C 116.529 37.0299 117.635 37.2121 118.739 37.2121 C 120.35 37.2121 121.611 37.0108 122.522 36.5871 C 123.337 36.2015 123.745 35.7056 123.726 35.0636 C 123.707 34.4216 123.318 33.9428 122.522 33.6313 C 122.095 33.447 121.339 33.2648 120.717 33.2266 C 120.388 33.1715 119.418 33.0613 118.932 33.0063 C 116.739 32.841 115.206 32.5846 114.295 32.235 C 112.627 31.593 111.811 30.4891 111.871 28.8915 C 111.871 27.2748 112.705 26.0798 114.393 25.3085 C 115.654 24.7386 117.265 24.4631 119.204 24.4631 C 122.443 24.4631 124.539 25.3636 125.49 27.1625 L 123.433 28.1902 C 122.889 27.1435 121.454 26.6286 119.125 26.6286 C 117.981 26.6286 116.913 26.7578 115.885 27.0502 C 114.877 27.3257 114.179 27.8766 114.159 28.6118 C 114.14 29.917 115.072 30.3026 117.304 30.6501 C 117.711 30.7052 118.255 30.7603 118.934 30.8154 C 119.263 30.8345 119.711 30.8895 120.274 30.9616 C 121.632 31.0908 122.738 31.2921 123.573 31.6036 C 125.241 32.2286 126.057 33.3474 125.997 34.9471 C 125.978 35.0022 125.978 35.0933 125.978 35.2035 C 125.861 38.1974 122.388 39.3733 118.664 39.3733 L 118.664 39.3797 Z" stroke-linecap="round" />
</g>
		<g transform="matrix(1 0 0 1 -32.7 -1.09)" clip-path="url(#CLIPPATH_4)"  >
<clipPath id="CLIPPATH_4" >
	<rect transform="matrix(1 0 0 1 32.7 1.09)" id="clip0_0_188" x="-63" y="-33" rx="0" ry="0" width="126" height="66" />
</clipPath>
<path style="stroke: none; stroke-width: 1; stroke-dasharray: none; stroke-linecap: butt; stroke-dashoffset: 0; stroke-linejoin: miter; stroke-miterlimit: 4; fill: rgb(0,13,31); fill-rule: nonzero; opacity: 1;" vector-effect="non-scaling-stroke"  transform=" translate(-30.3, -31.91)" d="M 30.301 23.3557 C 25.567 23.3557 21.731 27.1866 21.731 31.9094 C 21.731 36.6323 25.569 40.4631 30.301 40.4631 C 35.033 40.4631 38.8719 36.6323 38.8719 31.9094 C 38.8719 27.1866 35.033 23.3557 30.301 23.3557 Z M 30.301 37.9778 C 26.943 37.9778 24.221 35.2614 24.221 31.9094 C 24.221 28.5574 26.943 25.8411 30.301 25.8411 C 33.66 25.8411 36.381 28.5574 36.381 31.9094 C 36.381 35.2614 33.66 37.9778 30.301 37.9778 Z" stroke-linecap="round" />
</g>
		<g transform="matrix(1 0 0 1 11.16 -1.12)" clip-path="url(#CLIPPATH_5)"  >
<clipPath id="CLIPPATH_5" >
	<rect transform="matrix(1 0 0 1 -11.16 1.12)" id="clip0_0_188" x="-63" y="-33" rx="0" ry="0" width="126" height="66" />
</clipPath>
<path style="stroke: none; stroke-width: 1; stroke-dasharray: none; stroke-linecap: butt; stroke-dashoffset: 0; stroke-linejoin: miter; stroke-miterlimit: 4; fill: rgb(0,13,31); fill-rule: nonzero; opacity: 1;" vector-effect="non-scaling-stroke"  transform=" translate(-74.16, -31.88)" d="M 73.0009 39.0778 L 73.0009 26.8818 L 66.5979 26.8818 L 66.5979 24.6782 L 81.7309 24.6782 L 81.7309 26.8818 L 75.3279 26.8818 L 75.3279 39.0778 L 72.9989 39.0778 L 73.0009 39.0778 Z" stroke-linecap="round" />
</g>
		<g transform="matrix(1 0 0 1 -55.28 -1.08)" clip-path="url(#CLIPPATH_6)"  >
<clipPath id="CLIPPATH_6" >
	<rect transform="matrix(1 0 0 1 55.28 1.08)" id="clip0_0_188" x="-63" y="-33" rx="0" ry="0" width="126" height="66" />
</clipPath>
<path style="stroke: none; stroke-width: 1; stroke-dasharray: none; stroke-linecap: butt; stroke-dashoffset: 0; stroke-linejoin: miter; stroke-miterlimit: 4; fill: rgb(0,13,31); fill-rule: nonzero; opacity: 1;" vector-effect="non-scaling-stroke"  transform=" translate(-7.72, -31.92)" d="M 12.339 39.1324 L 6.324 32.6658 L 2.3268 36.2487 L 2.3268 39.1324 L 0 39.1324 L 0 24.7307 L 2.3289 24.7307 L 2.3289 33.2167 L 11.874 24.7117 L 15.268 24.7117 L 8.031 31.1593 L 15.443 39.1324 L 12.339 39.1324 Z" stroke-linecap="round" />
</g>
		<g transform="matrix(1 0 0 1 -54.2 -2.52)" clip-path="url(#CLIPPATH_7)"  >
<clipPath id="CLIPPATH_7" >
	<rect transform="matrix(1 0 0 1 54.2 2.52)" id="clip0_0_188" x="-63" y="-33" rx="0" ry="0" width="126" height="66" />
</clipPath>
<path style="stroke: none; stroke-width: 1; stroke-dasharray: none; stroke-linecap: butt; stroke-dashoffset: 0; stroke-linejoin: miter; stroke-miterlimit: 4; fill: rgb(0,13,31); fill-rule: nonzero; opacity: 1;" vector-effect="non-scaling-stroke"  transform=" translate(-8.8, -30.48)" d="M 2.32861 33.2168 L 11.874 24.7139 L 15.268 24.7139 L 2.32861 36.2489 L 2.32861 33.2168 Z" stroke-linecap="round" />
</g>
		<g transform="matrix(1 0 0 1 -52.12 2.15)" clip-path="url(#CLIPPATH_8)"  >
<clipPath id="CLIPPATH_8" >
	<rect transform="matrix(1 0 0 1 52.12 -2.15)" id="clip0_0_188" x="-63" y="-33" rx="0" ry="0" width="126" height="66" />
</clipPath>
<path style="stroke: none; stroke-width: 1; stroke-dasharray: none; stroke-linecap: butt; stroke-dashoffset: 0; stroke-linejoin: miter; stroke-miterlimit: 4; fill: rgb(0,13,31); fill-rule: nonzero; opacity: 1;" vector-effect="non-scaling-stroke"  transform=" translate(-10.88, -35.15)" d="M 6.32397 32.6662 L 8.03098 31.1619 L 15.445 39.1329 L 12.339 39.1329 L 6.32397 32.6662 Z" stroke-linecap="round" />
</g>
		<g transform="matrix(1 0 0 1 -10.27 -1.12)" clip-path="url(#CLIPPATH_9)"  >
<clipPath id="CLIPPATH_9" >
	<rect transform="matrix(1 0 0 1 10.27 1.12)" id="clip0_0_188" x="-63" y="-33" rx="0" ry="0" width="126" height="66" />
</clipPath>
<path style="stroke: none; stroke-width: 1; stroke-dasharray: none; stroke-linecap: butt; stroke-dashoffset: 0; stroke-linejoin: miter; stroke-miterlimit: 4; fill: rgb(0,13,31); fill-rule: nonzero; opacity: 1;" vector-effect="non-scaling-stroke"  transform=" translate(-52.73, -31.88)" d="M 45.158 39.0775 L 47.487 39.0775 L 47.487 29.1041 L 59.7469 39.0775 L 60.312 39.0775 L 60.312 24.6758 L 57.983 24.6758 L 57.983 34.7423 L 45.667 24.7224 L 45.158 24.7224 L 45.158 39.0775 Z" stroke-linecap="round" />
</g>
		<g transform="matrix(1 0 0 1 7.56 -17.23)" clip-path="url(#CLIPPATH_10)"  >
<clipPath id="CLIPPATH_10" >
	<rect transform="matrix(1 0 0 1 -7.56 17.23)" id="clip0_0_188" x="-63" y="-33" rx="0" ry="0" width="126" height="66" />
</clipPath>
<path style="stroke: none; stroke-width: 1; stroke-dasharray: none; stroke-linecap: butt; stroke-dashoffset: 0; stroke-linejoin: miter; stroke-miterlimit: 4; fill: rgb(65,61,236); fill-rule: nonzero; opacity: 1;" vector-effect="non-scaling-stroke"  transform=" translate(-70.56, -15.77)" d="M 97.983 9.2651 C 95.355 7.9281 92.209 7.0954 88.366 6.7204 C 87.067 6.5996 85.71 6.5361 84.331 6.5361 C 81.562 6.5361 78.615 6.7776 75.316 7.2734 C 75.045 7.32 74.773 7.3645 74.471 7.4154 C 74.043 7.4853 73.601 7.5595 73.164 7.6421 L 72.83 6 L 72.287 6.4958 C 71.489 7.2247 70.622 7.9875 69.686 8.6316 C 69.003 9.0998 68.41 9.4495 67.739 9.6274 L 67.02 9.8436 C 65.181 10.3923 63.309 11.0047 61.294 11.7166 C 55.658 13.6871 50.153 16.2678 44.93 19.391 C 42.183 21.0712 39.652 22.8023 37.408 24.5334 L 37.043 24.8152 L 37.737 25.5441 L 38.037 25.311 C 47.722 17.7934 59.867 12.8014 67.34 10.8076 C 67.884 10.6 68.497 10.494 69.164 10.494 C 70.304 10.494 71.61 10.7864 73.276 11.4136 L 73.981 11.6785 L 73.646 10.0173 C 76.028 9.5194 80.603 8.7227 85.407 8.7227 C 93.111 8.7227 98.346 10.6529 100.966 14.4562 C 102.497 16.7891 102.671 19.6834 101.486 23.0587 L 101.376 23.3765 L 101.665 23.5503 C 101.909 23.6986 102.157 23.866 102.403 24.0461 L 102.845 24.3724 L 103.04 23.8617 C 103.692 22.1582 104.04 20.4525 104.078 18.7914 C 104.144 14.8864 101.866 11.3246 97.986 9.263 L 97.983 9.2651 Z" stroke-linecap="round" />
</g>
		<g transform="matrix(1 0 0 1 -6.18 16.1)" clip-path="url(#CLIPPATH_11)"  >
<clipPath id="CLIPPATH_11" >
	<rect transform="matrix(1 0 0 1 6.18 -16.1)" id="clip0_0_188" x="-63" y="-33" rx="0" ry="0" width="126" height="66" />
</clipPath>
<path style="stroke: none; stroke-width: 1; stroke-dasharray: none; stroke-linecap: butt; stroke-dashoffset: 0; stroke-linejoin: miter; stroke-miterlimit: 4; fill: rgb(65,61,236); fill-rule: nonzero; opacity: 1;" vector-effect="non-scaling-stroke"  transform=" translate(-56.82, -49.1)" d="M 89.3621 38.4943 L 89.1011 38.2083 L 88.7971 38.4455 C 83.9631 42.2212 78.1531 45.6199 71.0371 48.8363 C 66.2941 50.8745 62.3261 52.2179 58.5681 53.0654 C 58.2311 53.1056 57.8831 53.1248 57.5341 53.1248 C 54.9001 53.1248 52.3591 51.9467 50.4391 50.9191 L 49.7091 50.5292 L 50.1591 53.5443 C 46.9261 54.377 43.6561 54.7986 40.4421 54.7986 C 39.9371 54.7986 39.4301 54.788 38.9291 54.7668 C 33.3151 54.574 28.6321 52.6225 26.3971 49.5481 C 24.7511 47.2831 24.4011 44.4673 25.3521 41.1873 C 25.3821 41.0983 25.4121 41.0115 25.4501 40.9034 L 25.6001 40.4795 L 25.3051 40.3059 C 25.2231 40.2572 25.1401 40.2042 25.0591 40.1533 L 24.6201 39.8736 L 24.3951 40.4922 C 24.3521 40.6067 24.3101 40.7212 24.2711 40.8377 C 22.4221 46.4186 24.5711 51.5103 29.8721 54.1249 C 34.5851 56.5043 39.8751 56.9641 44.8901 57.1061 C 45.3311 57.1146 45.7711 57.1187 46.2131 57.1187 C 47.7371 57.1187 49.2511 57.0721 50.6751 57.0255 L 51.1191 60.0003 L 51.6961 59.4685 C 53.3101 57.9832 54.8911 56.5573 56.4941 55.4322 C 57.3671 54.8114 58.1011 54.4002 58.8021 54.1418 L 61.3621 53.3706 C 65.3021 52.1162 68.4951 50.9594 71.4171 49.7326 C 78.4251 46.7577 84.5541 43.2998 89.6381 39.4541 L 90.0201 39.166 L 89.6811 38.8291 C 89.5701 38.7189 89.4621 38.6065 89.3581 38.4921 L 89.3621 38.4943 Z" stroke-linecap="round" />
</g>
		<g transform="matrix(1 0 0 1 33.59 -1.09)" clip-path="url(#CLIPPATH_12)"  >
<clipPath id="CLIPPATH_12" >
	<rect transform="matrix(1 0 0 1 -33.59 1.09)" id="clip0_0_188" x="-63" y="-33" rx="0" ry="0" width="126" height="66" />
</clipPath>
<path style="stroke: none; stroke-width: 1; stroke-dasharray: none; stroke-linecap: butt; stroke-dashoffset: 0; stroke-linejoin: miter; stroke-miterlimit: 4; fill: rgb(0,13,31); fill-rule: nonzero; opacity: 1;" vector-effect="non-scaling-stroke"  transform=" translate(-96.59, -31.91)" d="M 96.59 23.3557 C 91.856 23.3557 88.019 27.1866 88.019 31.9094 C 88.019 36.6323 91.858 40.4631 96.59 40.4631 C 101.322 40.4631 105.16 36.6323 105.16 31.9094 C 105.16 27.1866 101.322 23.3557 96.59 23.3557 Z M 96.59 37.9778 C 93.231 37.9778 90.51 35.2614 90.51 31.9094 C 90.51 28.5574 93.231 25.8411 96.59 25.8411 C 99.948 25.8411 102.67 28.5574 102.67 31.9094 C 102.67 35.2614 99.948 37.9778 96.59 37.9778 Z" stroke-linecap="round" />
</g>
		<g transform="matrix(1 0 0 1 33.59 -1.09)" clip-path="url(#CLIPPATH_13)"  >
<clipPath id="CLIPPATH_13" >
	<rect transform="matrix(1 0 0 1 -33.59 1.09)" id="clip0_0_188" x="-63" y="-33" rx="0" ry="0" width="126" height="66" />
</clipPath>
<path style="stroke: none; stroke-width: 1; stroke-dasharray: none; stroke-linecap: butt; stroke-dashoffset: 0; stroke-linejoin: miter; stroke-miterlimit: 4; fill: rgb(0,13,31); fill-rule: nonzero; opacity: 1;" vector-effect="non-scaling-stroke"  transform=" translate(-96.59, -31.91)" d="M 96.589 33.4856 C 97.462 33.4856 98.169 32.7798 98.169 31.9092 C 98.169 31.0385 97.462 30.3328 96.589 30.3328 C 95.717 30.3328 95.01 31.0385 95.01 31.9092 C 95.01 32.7798 95.717 33.4856 96.589 33.4856 Z" stroke-linecap="round" />
</g>
</g>
</g>
</svg>