<?xml version="1.0" encoding="UTF-8" standalone="no" ?>
<!DOCTYPE svg PUBLIC "-//W3C//DTD SVG 1.1//EN" "http://www.w3.org/Graphics/SVG/1.1/DTD/svg11.dtd">
<svg xmlns="http://www.w3.org/2000/svg" xmlns:xlink="http://www.w3.org/1999/xlink" version="1.1" width="1080" height="1080" viewBox="0 0 1080 1080" xml:space="preserve">
<desc>Created with Fabric.js 5.2.4</desc>
<defs>
</defs>
<g transform="matrix(1 0 0 1 540 540)" id="d4541a45-7613-4462-ad47-2b7775db1d7b"  >
<rect style="stroke: none; stroke-width: 1; stroke-dasharray: none; stroke-linecap: butt; stroke-dashoffset: 0; stroke-linejoin: miter; stroke-miterlimit: 4; fill: rgb(255,255,255); fill-rule: nonzero; opacity: 1; visibility: hidden;" vector-effect="non-scaling-stroke"  x="-540" y="-540" rx="0" ry="0" width="1080" height="1080" />
</g>
<g transform="matrix(1 0 0 1 540 540)" id="26b8de9b-ab1b-4abf-90d8-a41396081f79"  >
</g>
<g transform="matrix(8.64 0 0 8.64 540 540)"  >
<g style=""   >
		<g transform="matrix(1 0 0 1 -52.99 -6.69)"  >
<path style="stroke: none; stroke-width: 1; stroke-dasharray: none; stroke-linecap: butt; stroke-dashoffset: 0; stroke-linejoin: miter; stroke-miterlimit: 4; fill: rgb(242,242,242); fill-rule: nonzero; opacity: 1;" vector-effect="non-scaling-stroke"  transform=" translate(-9.51, -10.31)" d="M 9.51364 8.3127e-7 C 8.25792 0.00626346 7.01571 0.26115 5.85798 0.75015 C 4.70025 1.23915 3.64967 1.95272 2.76624 2.85 C 1.8828 3.74727 1.18382 4.81074 0.709201 5.97964 C 0.234586 7.14855 -0.00635202 8.40001 0.00012729 9.66256 L 0.00012729 12.8542 L 7.72992 12.8542 L 7.72992 8.23017 C 7.72983 8.01301 7.7723 7.79797 7.8549 7.59732 C 7.9375 7.39667 8.05862 7.21436 8.21132 7.06079 C 8.36403 6.90722 8.54535 6.78546 8.74489 6.70237 C 8.94444 6.61927 9.15832 6.57654 9.37431 6.57658 L 9.65298 6.57658 C 9.86897 6.57654 10.0829 6.61928 10.2824 6.70237 C 10.482 6.78546 10.6633 6.90722 10.8161 7.06079 C 10.9688 7.21435 11.0899 7.39667 11.1726 7.59732 C 11.2552 7.79797 11.2977 8.013 11.2977 8.23017 L 11.2977 20.626 C 12.3128 20.626 13.318 20.425 14.2558 20.0345 C 15.1936 19.6439 16.0458 19.0714 16.7636 18.3498 C 17.4814 17.6281 18.0507 16.7713 18.4392 15.8284 C 18.8276 14.8855 19.0275 13.8748 19.0275 12.8542 L 19.0275 9.66256 C 19.033 7.10448 18.0311 4.6482 16.2408 2.83057 C 15.3624 1.93362 14.3152 1.22142 13.1602 0.735457 C 12.0053 0.249496 10.7657 -0.000526135 9.51364 8.3127e-7 Z" stroke-linecap="round" />
</g>
		<g transform="matrix(1 0 0 1 -52.99 6.14)"  >
<path style="stroke: none; stroke-width: 1; stroke-dasharray: none; stroke-linecap: butt; stroke-dashoffset: 0; stroke-linejoin: miter; stroke-miterlimit: 4; fill: rgb(242,242,242); fill-rule: nonzero; opacity: 1;" vector-effect="non-scaling-stroke"  transform=" translate(-9.51, -23.14)" d="M 9.65335 26.9007 L 9.37468 26.9007 C 9.15872 26.9007 8.94487 26.8579 8.74535 26.7749 C 8.54582 26.6918 8.36452 26.57 8.21182 26.4164 C 8.05911 26.2629 7.93799 26.0807 7.85537 25.8801 C 7.77275 25.6795 7.73024 25.4644 7.73029 25.2473 L 7.73029 12.8516 C 6.71517 12.8515 5.70997 13.0524 4.77211 13.4429 C 3.83425 13.8335 2.98211 14.4059 2.26431 15.1276 C 1.54652 15.8493 0.977135 16.7061 0.588708 17.6491 C 0.20028 18.592 0.00041149 19.6027 0.000498842 20.6233 L 0.000498842 23.7705 C -0.0123788 25.0349 0.22419 26.2893 0.696522 27.4612 C 1.16885 28.6331 1.86757 29.6992 2.75228 30.5979 C 3.63698 31.4965 4.69011 32.2099 5.85076 32.6968 C 7.01141 33.1837 8.25656 33.4344 9.51417 33.4344 C 10.7718 33.4344 12.0169 33.1837 13.1776 32.6968 C 14.3382 32.2099 15.3914 31.4965 16.2761 30.5979 C 17.1608 29.6992 17.8595 28.6331 18.3318 27.4612 C 18.8042 26.2893 19.0407 25.0349 19.0278 23.7705 L 19.0278 20.6233 L 11.2981 20.6233 L 11.2981 25.2473 C 11.2981 25.4645 11.2555 25.6795 11.1729 25.8801 C 11.0902 26.0807 10.969 26.263 10.8163 26.4165 C 10.6636 26.5701 10.4823 26.6918 10.2827 26.7749 C 10.0832 26.8579 9.86932 26.9007 9.65335 26.9007 Z" stroke-linecap="round" />
</g>
		<g transform="matrix(1 0 0 1 -28.99 -0.28)"  >
<path style="stroke: none; stroke-width: 1; stroke-dasharray: none; stroke-linecap: butt; stroke-dashoffset: 0; stroke-linejoin: miter; stroke-miterlimit: 4; fill: rgb(242,242,242); fill-rule: nonzero; opacity: 1;" vector-effect="non-scaling-stroke"  transform=" translate(-33.51, -16.72)" d="M 32.2404 9.8125 L 29.5312 9.8125 L 29.5312 23.6309 L 37.4828 23.6309 L 37.4828 21.0257 L 32.2407 21.0257 L 32.2404 9.8125 Z" stroke-linecap="round" />
</g>
		<g transform="matrix(1 0 0 1 -19.06 1.7)"  >
<path style="stroke: none; stroke-width: 1; stroke-dasharray: none; stroke-linecap: butt; stroke-dashoffset: 0; stroke-linejoin: miter; stroke-miterlimit: 4; fill: rgb(242,242,242); fill-rule: nonzero; opacity: 1;" vector-effect="non-scaling-stroke"  transform=" translate(-43.44, -18.7)" d="M 46.1589 14.9305 C 45.7768 14.453 45.2875 14.0734 44.7312 13.823 C 44.1749 13.5725 43.5674 13.4582 42.9586 13.4894 C 42.3225 13.4844 41.6928 13.6166 41.1119 13.8772 C 40.531 14.1378 40.0125 14.5207 39.5914 15 C 38.6872 16.0186 38.1875 17.3361 38.1875 18.7015 C 38.1875 20.0668 38.6872 21.3843 39.5914 22.403 C 40.0126 22.8821 40.5312 23.2648 41.1121 23.5253 C 41.693 23.7857 42.3226 23.9179 42.9586 23.9129 C 44.3331 23.9129 45.3999 23.4325 46.1589 22.4719 L 46.1589 23.6367 L 48.6919 23.6367 L 48.6919 13.7665 L 46.1589 13.7665 L 46.1589 14.9305 Z M 45.3838 20.7049 C 45.1283 20.962 44.8231 21.1637 44.4872 21.2978 C 44.1512 21.4319 43.7915 21.4954 43.4302 21.4845 C 43.0702 21.4961 42.7118 21.4329 42.3772 21.2987 C 42.0427 21.1646 41.7394 20.9624 41.4861 20.7049 C 40.9931 20.1552 40.7203 19.4412 40.7203 18.701 C 40.7203 17.9607 40.9931 17.2468 41.4861 16.6971 C 41.7395 16.4398 42.0429 16.2378 42.3774 16.1037 C 42.7118 15.9696 43.0703 15.9063 43.4302 15.9177 C 43.7914 15.907 44.1511 15.9706 44.487 16.1046 C 44.823 16.2386 45.1282 16.4402 45.3838 16.6971 C 45.8824 17.2441 46.1589 17.959 46.1589 18.701 C 46.1589 19.4429 45.8824 20.1579 45.3838 20.7049 Z" stroke-linecap="round" />
</g>
		<g transform="matrix(1 0 0 1 -7.51 3.68)"  >
<path style="stroke: none; stroke-width: 1; stroke-dasharray: none; stroke-linecap: butt; stroke-dashoffset: 0; stroke-linejoin: miter; stroke-miterlimit: 4; fill: rgb(242,242,242); fill-rule: nonzero; opacity: 1;" vector-effect="non-scaling-stroke"  transform=" translate(-54.99, -20.68)" d="M 55.2195 20.3919 L 52.659 13.7578 L 49.8906 13.7578 L 53.9143 23.3126 C 53.7459 23.8828 53.4148 24.3907 52.962 24.7734 C 52.4861 25.0979 51.9152 25.251 51.3418 25.208 L 51.3418 27.5772 C 52.4597 27.6811 53.5773 27.3759 54.4893 26.7176 C 55.3317 26.0783 56.0084 25.0541 56.5194 23.645 L 60.0985 13.7585 L 57.389 13.7585 L 55.2195 20.3919 Z" stroke-linecap="round" />
</g>
		<g transform="matrix(1 0 0 1 2.97 1.7)"  >
<path style="stroke: none; stroke-width: 1; stroke-dasharray: none; stroke-linecap: butt; stroke-dashoffset: 0; stroke-linejoin: miter; stroke-miterlimit: 4; fill: rgb(242,242,242); fill-rule: nonzero; opacity: 1;" vector-effect="non-scaling-stroke"  transform=" translate(-65.47, -18.7)" d="M 65.5816 13.4875 C 64.8911 13.4631 64.2031 13.5829 63.561 13.8395 C 62.919 14.0961 62.3369 14.4839 61.8515 14.9783 C 60.9143 15.9913 60.3949 17.3245 60.3985 18.7081 C 60.402 20.0916 60.9283 21.4221 61.8708 22.4302 C 62.8527 23.4169 64.1551 23.9104 65.7781 23.9106 C 67.6625 23.9106 69.0892 23.2067 70.0582 21.7989 L 68.0164 20.614 C 67.7568 20.9453 67.421 21.2082 67.0379 21.3801 C 66.6549 21.5521 66.236 21.6279 65.8173 21.601 C 64.3118 21.601 63.389 20.9826 63.0487 19.7457 L 70.4509 19.7457 C 70.5141 19.4004 70.547 19.05 70.549 18.6989 C 70.5865 17.324 70.082 15.9901 69.1454 14.9877 C 68.6917 14.497 68.1392 14.1093 67.5246 13.8506 C 66.91 13.5919 66.2476 13.4681 65.5816 13.4875 Z M 63.0097 17.7714 C 63.1218 17.1914 63.4347 16.6702 63.893 16.3003 C 64.3802 15.9382 64.9757 15.7536 65.5813 15.7773 C 66.1347 15.7701 66.6756 15.9434 67.1229 16.2712 C 67.5986 16.6395 67.9178 17.1755 68.0161 17.7711 L 63.0097 17.7714 Z" stroke-linecap="round" />
</g>
		<g transform="matrix(1 0 0 1 12.57 1.6)"  >
<path style="stroke: none; stroke-width: 1; stroke-dasharray: none; stroke-linecap: butt; stroke-dashoffset: 0; stroke-linejoin: miter; stroke-miterlimit: 4; fill: rgb(242,242,242); fill-rule: nonzero; opacity: 1;" vector-effect="non-scaling-stroke"  transform=" translate(-75.07, -18.6)" d="M 74.8454 15.4575 L 74.8454 13.7593 L 72.3125 13.7593 L 72.3125 23.6298 L 74.8454 23.6298 L 74.8454 18.9119 C 74.8454 17.9644 75.1497 17.2866 75.7582 16.8785 C 76.3676 16.4704 77.105 16.3017 77.83 16.4047 L 77.83 13.5628 C 77.1933 13.5547 76.5661 13.7183 76.0136 14.0365 C 75.468 14.3548 75.0537 14.8589 74.8454 15.4575 Z" stroke-linecap="round" />
</g>
		<g transform="matrix(1 0 0 1 23.16 -0.28)"  >
<path style="stroke: none; stroke-width: 1; stroke-dasharray: none; stroke-linecap: butt; stroke-dashoffset: 0; stroke-linejoin: miter; stroke-miterlimit: 4; fill: rgb(242,242,242); fill-rule: nonzero; opacity: 1;" vector-effect="non-scaling-stroke"  transform=" translate(-85.66, -16.72)" d="M 90.1775 11.9496 L 90.1775 9.81244 L 81.1684 9.81244 L 81.1684 12.4184 L 86.7447 12.4184 L 81.0234 21.4546 L 81.0234 23.6305 L 90.2869 23.6305 L 90.2869 21.0253 L 84.4556 21.0253 L 90.1775 11.9496 Z" stroke-linecap="round" />
</g>
		<g transform="matrix(1 0 0 1 33.66 1.7)"  >
<path style="stroke: none; stroke-width: 1; stroke-dasharray: none; stroke-linecap: butt; stroke-dashoffset: 0; stroke-linejoin: miter; stroke-miterlimit: 4; fill: rgb(242,242,242); fill-rule: nonzero; opacity: 1;" vector-effect="non-scaling-stroke"  transform=" translate(-96.16, -18.7)" d="M 96.2695 13.4875 C 95.579 13.4631 94.8909 13.5829 94.2488 13.8395 C 93.6067 14.0961 93.0246 14.4839 92.5391 14.9783 C 91.6018 15.9913 91.0823 17.3246 91.086 18.7082 C 91.0896 20.0917 91.6161 21.4222 92.5587 22.4302 C 93.5406 23.4169 94.8429 23.9104 96.4657 23.9106 C 98.3501 23.9106 99.7769 23.2067 100.746 21.7989 L 98.704 20.614 C 98.4444 20.9452 98.1087 21.2081 97.7257 21.38 C 97.3427 21.552 96.9239 21.6278 96.5053 21.601 C 94.9996 21.601 94.0768 20.9826 93.7369 19.7457 L 101.139 19.7457 C 101.202 19.4003 101.235 19.05 101.237 18.6989 C 101.274 17.324 100.77 15.9901 99.8333 14.9877 C 99.3797 14.497 98.8271 14.1093 98.2125 13.8506 C 97.5979 13.5919 96.9355 13.4681 96.2695 13.4875 Z M 93.6977 17.7714 C 93.8097 17.1914 94.1228 16.6701 94.5812 16.3003 C 95.0685 15.938 95.664 15.7535 96.2695 15.7774 C 96.823 15.7699 97.3639 15.9432 97.8111 16.2712 C 98.2869 16.6395 98.606 17.1755 98.704 17.7711 L 93.6977 17.7714 Z" stroke-linecap="round" />
</g>
		<g transform="matrix(1 0 0 1 43.26 1.6)"  >
<path style="stroke: none; stroke-width: 1; stroke-dasharray: none; stroke-linecap: butt; stroke-dashoffset: 0; stroke-linejoin: miter; stroke-miterlimit: 4; fill: rgb(242,242,242); fill-rule: nonzero; opacity: 1;" vector-effect="non-scaling-stroke"  transform=" translate(-105.76, -18.6)" d="M 105.533 15.4575 L 105.533 13.7593 L 103 13.7593 L 103 23.6298 L 105.533 23.6298 L 105.533 18.9119 C 105.533 17.9644 105.837 17.2866 106.446 16.8785 C 107.055 16.4704 107.792 16.3018 108.517 16.4047 L 108.517 13.5628 C 107.881 13.5547 107.253 13.7183 106.701 14.0365 C 106.155 14.3548 105.741 14.8588 105.533 15.4575 Z" stroke-linecap="round" />
</g>
		<g transform="matrix(1 0 0 1 51.85 1.66)"  >
<path style="stroke: none; stroke-width: 1; stroke-dasharray: none; stroke-linecap: butt; stroke-dashoffset: 0; stroke-linejoin: miter; stroke-miterlimit: 4; fill: rgb(242,242,242); fill-rule: nonzero; opacity: 1;" vector-effect="non-scaling-stroke"  transform=" translate(-114.35, -18.66)" d="M 114.293 13.4857 C 113.104 13.4989 111.957 13.9252 111.046 14.6923 C 110.135 15.4594 109.515 16.52 109.294 17.6939 C 109.072 18.8678 109.261 20.0827 109.829 21.1324 C 110.397 22.1821 111.309 23.0017 112.409 23.4522 C 113.51 23.9026 114.732 23.9562 115.868 23.6037 C 117.003 23.2512 117.982 22.5143 118.639 21.5183 C 119.296 20.5223 119.589 19.3286 119.47 18.1397 C 119.35 16.9508 118.825 15.8402 117.984 14.9963 C 117.504 14.5037 116.929 14.1155 116.294 13.8556 C 115.659 13.5958 114.978 13.4699 114.293 13.4857 Z M 116.197 20.6517 C 115.949 20.9038 115.652 21.1021 115.324 21.2344 C 114.997 21.3666 114.646 21.43 114.293 21.4206 C 113.941 21.4307 113.591 21.3676 113.265 21.2353 C 112.939 21.1029 112.643 20.9043 112.397 20.6517 C 111.911 20.1182 111.641 19.4208 111.641 18.6972 C 111.641 17.9737 111.911 17.2764 112.397 16.7428 C 112.643 16.4903 112.939 16.2917 113.265 16.1594 C 113.591 16.0271 113.941 15.9638 114.293 15.9738 C 114.646 15.9645 114.996 16.028 115.324 16.1603 C 115.652 16.2925 115.949 16.4908 116.197 16.7428 C 116.689 17.2733 116.963 17.9718 116.963 18.6972 C 116.963 19.4227 116.689 20.1212 116.197 20.6517 Z" stroke-linecap="round" />
</g>
		<g transform="matrix(1 0 0 1 60.77 5.11)"  >
<path style="stroke: none; stroke-width: 1; stroke-dasharray: none; stroke-linecap: butt; stroke-dashoffset: 0; stroke-linejoin: miter; stroke-miterlimit: 4; fill: rgb(242,242,242); fill-rule: nonzero; opacity: 1;" vector-effect="non-scaling-stroke"  transform=" translate(-123.27, -22.11)" d="M 124.809 20.5938 L 121.727 20.5938 L 121.727 23.6339 L 124.809 23.6339 L 124.809 20.5938 Z" stroke-linecap="round" />
</g>
		<g transform="matrix(1 0 0 1 60.77 5.11)"  >
<path style="stroke: none; stroke-width: 1; stroke-dasharray: none; stroke-linecap: butt; stroke-dashoffset: 0; stroke-linejoin: miter; stroke-miterlimit: 4; fill: rgb(242,242,242); fill-rule: nonzero; opacity: 1;" vector-effect="non-scaling-stroke"  transform=" translate(-123.27, -22.11)" d="M 124.809 20.5938 L 121.727 20.5938 L 121.727 23.6339 L 124.809 23.6339 L 124.809 20.5938 Z" stroke-linecap="round" />
</g>
</g>
</g>
</svg>