<svg width="321" height="128" viewBox="0 0 321 128" fill="none" xmlns="http://www.w3.org/2000/svg">
<path d="M40.4664 86.7783L2.53573 95.5594C1.15224 95.906 0.114624 97.2925 0.114624 98.679V124.791C0.114624 126.986 1.84399 128.373 4.03452 127.911L56.953 115.663C59.1436 115.201 60.0659 113.121 59.1436 111.157L49.5744 91.3999C48.0756 88.2803 49.5744 85.0452 52.9179 84.352L87.5051 76.0331C89.9262 75.4554 92.0015 72.9135 92.0015 70.3716V46.2237C92.0015 44.0284 90.2721 42.5264 88.0816 43.1041L38.1606 55.0047C35.0478 55.698 33.6643 58.702 35.0478 61.5905L43.8099 79.7304C45.3087 82.8499 43.8099 85.9695 40.4664 86.7783Z" fill="black"/>
<path d="M15.4501 21.4988L25.3651 41.8339C26.6333 44.4913 25.3651 47.2643 22.4828 47.842L4.15157 52.117C1.84575 52.6947 0.00109863 55.0055 0.00109863 57.3163V79.1534C0.00109863 82.8507 2.99866 85.1615 6.57268 84.3527L23.6357 80.4243C25.9416 79.9622 27.7862 77.5358 27.7862 75.225L27.9015 52.8102C27.9015 49.6906 30.4379 46.571 33.4355 45.8778L89.3516 32.4751C90.735 32.1285 91.7727 30.742 91.7727 29.3555V3.24345C91.7727 1.04819 90.0433 -0.453836 87.8528 0.123866L17.6406 16.9927C15.4501 17.4549 14.5278 19.5346 15.4501 21.4988Z" fill="black"/>
<path d="M186.678 82.2857H154.742V32H140.003V96H186.678V82.2857Z" fill="black"/>
<path d="M196.29 96H211.029V32H196.29V96Z" fill="black"/>
<path d="M222.038 96H236.05V81.92H222.038V96Z" fill="black"/>
<path d="M261.761 71.04H292.605V58.4229H261.761V44.9829H295.244V32H247.021V96H261.761V71.04Z" fill="black"/>
<path d="M305.263 96H320.003V32H305.263V96Z" fill="black"/>
</svg>
