<svg width="151" height="45" viewBox="0 0 151 45" fill="none" xmlns="http://www.w3.org/2000/svg">
<path d="M18.5006 36.4233C16.5497 36.4303 15.9504 35.0599 15.1917 33.3675C13.2153 28.913 11.2325 24.4515 9.24971 19.99C8.22326 25.4655 7.20316 30.9479 6.1831 36.4303C5.09287 36.4373 4.01541 36.4303 2.92522 36.4233C0.113625 36.4373 0.343143 34.787 0.725673 32.6402C1.93064 26.0739 3.14836 19.5075 4.37247 12.9481C4.79324 10.7524 5.1184 9.03906 8.05111 9.03906C9.13496 9.03906 10.2251 9.03906 11.3217 9.03906C13.9038 14.7453 16.4987 20.4516 19.0807 26.1788C18.2137 26.5144 17.3466 26.8501 16.4732 27.1858C17.4996 27.1927 18.5324 27.1927 19.5589 27.1927C20.4514 22.4445 21.344 17.6963 22.2493 12.9412C22.702 10.7524 23.0272 9.03906 25.9535 9.03906C27.0437 9.03906 28.1403 9.03906 29.2305 9.03906C27.7068 16.8992 26.1894 24.7662 24.6848 32.6333C24.1556 35.4094 22.7084 36.4303 20.5535 36.4303C19.8649 36.4303 19.1827 36.4303 18.5006 36.4233Z" fill="black"/>
<path d="M44.8613 18.9113C45.9972 12.8378 47.1364 6.761 48.2722 0.6875C42.5929 9.66078 36.9137 18.6307 31.2344 27.604H41.0963C40.064 33.0995 39.0317 38.5917 37.9994 44.0873C43.7088 35.6385 49.4148 27.1897 55.1241 18.7409C52.0707 18.7977 47.9148 18.8545 44.8613 18.9113Z" fill="#FFCC00"/>
<path d="M67.0976 35.9951H63.4027C62.5976 35.9951 61.9929 35.8982 61.582 35.7044C61.1711 35.5107 60.8905 35.2434 60.7435 34.9093C60.5932 34.5719 60.5431 34.1777 60.5932 33.7234C60.6433 33.269 60.7101 32.7712 60.797 32.2267L64.4751 12.6699H54.209C54.2858 12.2289 54.4362 11.7813 54.6533 11.3303C54.8705 10.8759 55.1611 10.4616 55.5219 10.0841C55.8827 9.70995 56.3404 9.39929 56.895 9.15208C57.4462 8.90486 58.1143 8.78125 58.8894 8.78125H82.7257C82.6489 9.22223 82.4785 9.66986 82.2246 10.1242C81.9673 10.5785 81.6333 10.9928 81.219 11.3703C80.8047 11.7445 80.3036 12.0585 79.7123 12.3024C79.121 12.5496 78.4362 12.6732 77.6578 12.6732H71.4774L69.8036 21.7333L66.062 23.0162H69.5598L67.101 36.0018L67.0976 35.9951Z" fill="black"/>
<path d="M90.4256 35.9957H86.7307C85.9256 35.9957 85.3209 35.8988 84.91 35.705C84.4991 35.5112 84.2185 35.244 84.0715 34.9099C83.9211 34.5725 83.871 34.1783 83.9211 33.7239C83.9712 33.2696 84.0381 32.7718 84.1249 32.2273L87.8031 12.6705C87.9133 12.1259 88.0303 11.6148 88.1539 11.1337C88.2775 10.656 88.4746 10.2384 88.7519 9.89095C89.0258 9.54017 89.4067 9.26957 89.8911 9.07581C90.3755 8.88204 91.0303 8.78516 91.8621 8.78516H110.564C111.549 8.78516 112.388 8.83861 113.079 8.94218C113.771 9.04574 114.325 9.2395 114.736 9.52681C115.147 9.81411 115.421 10.2083 115.548 10.7128C115.675 11.2173 115.668 11.872 115.525 12.6772L113.901 21.3464C113.764 22.048 113.564 22.6293 113.296 23.097C113.029 23.5647 112.698 23.9389 112.308 24.2262C111.917 24.5101 111.459 24.7139 110.934 24.8275C110.41 24.9444 109.842 25.0279 109.231 25.0814L112.201 36.009H104.387L101.694 25.1215H92.4801L90.4289 36.009L90.4256 35.9957ZM94.7986 12.6671L93.4323 19.9366L89.6906 21.2195H104.854C105.529 21.2195 106.067 21.0792 106.471 20.7919C106.875 20.5079 107.146 20.0268 107.286 19.352L108.225 14.2974C108.365 13.6226 108.275 13.1816 107.955 12.9745C107.634 12.7674 107.136 12.6638 106.461 12.6638H94.7953L94.7986 12.6671Z" fill="black"/>
<path d="M118.733 32.2234L122.411 12.6666C122.521 12.122 122.638 11.6108 122.762 11.1298C122.885 10.652 123.083 10.2345 123.36 9.88705C123.634 9.53627 124.015 9.26566 124.499 9.0719C124.983 8.87814 125.638 8.78125 126.47 8.78125H147.584C148.412 8.78125 149.034 8.87814 149.444 9.0719C149.855 9.26566 150.129 9.53961 150.27 9.88705C150.41 10.2378 150.45 10.652 150.39 11.1298C150.333 11.6108 150.246 12.122 150.136 12.6666L146.458 32.2234C146.371 32.7679 146.257 33.2656 146.117 33.72C145.977 34.1744 145.773 34.5686 145.509 34.906C145.245 35.2434 144.871 35.5073 144.387 35.7011C143.902 35.8948 143.257 35.9917 142.456 35.9917H121.342C120.537 35.9917 119.932 35.8948 119.521 35.7011C119.11 35.5073 118.83 35.2401 118.683 34.906C118.532 34.5686 118.482 34.1744 118.532 33.72C118.583 33.2656 118.649 32.7679 118.736 32.2234H118.733ZM139.476 32.1064L143.134 12.6666H129.41L125.992 30.8236L122.251 32.1064H139.476Z" fill="black"/>
</svg>
