<svg xmlns="http://www.w3.org/2000/svg" width="966" height="319" fill="none"><path fill="#000" fill-rule="evenodd" d="M261.493 159.101c0 18.634-4.978 36.105-13.676 51.157A28.267 28.267 0 0 0 244 210a27.87 27.87 0 0 0-14.406 3.985c-62.271-25.954-103.149-70.4-127.968-124.649A27.872 27.872 0 0 0 105 76a28.15 28.15 0 0 0-.242-3.695c15.75-9.881 34.379-15.595 54.343-15.595 56.549 0 102.392 45.842 102.392 102.391zM77.564 103.994c27.29 57.981 71.869 106.101 138.443 134.649.04 1.775.245 3.509.601 5.187-16.392 11.148-36.189 17.663-57.507 17.663-56.549 0-102.39-45.843-102.39-102.392 0-20.408 5.97-39.421 16.26-55.389a28.186 28.186 0 0 0 4.593.282zm211.929 55.107c0 25.154-7.123 48.645-19.462 68.565A27.911 27.911 0 0 1 272 238c0 15.464-12.536 28-28 28-2.931 0-5.757-.45-8.412-1.286-21.486 15.587-47.913 24.779-76.487 24.779-72.013 0-130.39-58.379-130.39-130.392 0-26.979 8.193-52.044 22.228-72.843A27.928 27.928 0 0 1 49 76c0-15.464 12.536-28 28-28 3.74 0 7.31.733 10.57 2.064 20.538-13.5 45.117-21.354 71.531-21.354 72.013 0 130.392 58.378 130.392 130.391z" clip-rule="evenodd"/><path fill="#000" d="M333.41 209v-97.28h29.83v13.3h.57c7.473-10.767 17.48-16.15 30.02-16.15 10.513 0 18.747 3.42 24.7 10.26 6.08 6.713 9.12 15.58 9.12 26.6V209h-30.97v-57c0-5.32-1.33-9.5-3.99-12.54-2.533-3.167-6.27-4.75-11.21-4.75-5.067 0-9.183 1.9-12.35 5.7-3.167 3.8-4.75 8.74-4.75 14.82V209h-30.97zm136.859-26.98c3.547 5.32 8.614 7.98 15.2 7.98 6.587 0 11.654-2.66 15.2-7.98 3.674-5.32 5.51-12.477 5.51-21.47 0-8.993-1.836-16.15-5.51-21.47-3.546-5.447-8.613-8.17-15.2-8.17-6.586 0-11.653 2.66-15.2 7.98-3.546 5.32-5.32 12.54-5.32 21.66 0 8.993 1.774 16.15 5.32 21.47zm52.82 15.39c-9.5 9.753-21.976 14.63-37.43 14.63-15.453 0-27.993-4.877-37.62-14.63-9.626-9.753-14.44-22.04-14.44-36.86s4.814-27.107 14.44-36.86c9.627-9.753 22.167-14.63 37.62-14.63 15.454 0 27.93 4.877 37.43 14.63 9.627 9.753 14.44 22.04 14.44 36.86s-4.813 27.107-14.44 36.86zm63.1 14.63c-12.667 0-22.927-4.623-30.78-13.87-7.854-9.247-11.78-21.85-11.78-37.81 0-15.2 3.926-27.55 11.78-37.05 7.98-9.627 18.24-14.44 30.78-14.44 11.653 0 20.71 4.623 27.17 13.87h.57V73.15h30.97V209h-29.64v-13.11h-.38c-6.334 10.767-15.897 16.15-28.69 16.15zm7.98-24.51c6.333 0 11.336-2.47 15.01-7.41 3.673-5.067 5.51-11.653 5.51-19.76 0-8.487-1.71-15.263-5.13-20.33-3.42-5.193-8.424-7.79-15.01-7.79-6.08 0-10.894 2.533-14.44 7.6-3.42 5.067-5.13 11.78-5.13 20.14 0 8.487 1.71 15.2 5.13 20.14 3.42 4.94 8.106 7.41 14.06 7.41zm113.029 24.32c-15.707 0-28.31-4.813-37.81-14.44-9.373-9.753-14.06-22.167-14.06-37.24 0-14.693 4.623-26.917 13.87-36.67 9.373-9.753 21.407-14.63 36.1-14.63 13.3 0 24.383 4.053 33.25 12.16 11.653 10.64 17.353 26.41 17.1 47.31h-69.92c1.013 6.713 3.357 11.97 7.03 15.77 3.673 3.673 8.613 5.51 14.82 5.51 7.98 0 13.363-3.23 16.15-9.69h30.21c-2.28 9.373-7.727 17.037-16.34 22.99-8.487 5.953-18.62 8.93-30.4 8.93zm-21.28-61.94h38.38c-.507-5.827-2.47-10.45-5.89-13.87-3.293-3.42-7.473-5.13-12.54-5.13-11.02 0-17.67 6.333-19.95 19zM762.216 209V73.15h30.59v71.44l28.88-32.87h35.72l-34.2 36.48 38.19 60.8h-35.91l-23.37-39.71-9.31 9.88V209h-30.59zm102.519 0v-97.28h30.97V209h-30.97zm0-110.77V73.15h30.97v25.08h-30.97zm80.6 111.91c-9.88 0-17.544-1.963-22.99-5.89-5.32-4.053-7.98-11.02-7.98-20.9V131.1h-12.92v-19.38h12.92V80.94h30.21v30.78h17.67v19.38h-17.67v45.6c0 3.547.886 6.017 2.66 7.41 1.9 1.393 4.623 2.09 8.17 2.09h3.99c1.646-.127 2.596-.19 2.85-.19v22.61c-3.547 1.013-9.184 1.52-16.91 1.52z"/></svg>