<svg width="146" height="26" viewBox="0 0 146 26" fill="none" xmlns="http://www.w3.org/2000/svg">
<g clip-path="url(#clip0_407_1762)">
<path d="M134.487 14.8811H140.753C140.696 13.4854 139.785 12.1182 137.62 12.1182C135.655 12.1182 134.572 13.5994 134.487 14.8811ZM141.123 18.527L144.285 19.467C143.573 21.8881 141.351 23.9104 137.905 23.9104C134.059 23.9104 130.67 21.1475 130.67 16.4192C130.67 11.9473 133.974 9.04199 137.563 9.04199C141.892 9.04199 144.484 11.8049 144.484 16.3053C144.484 16.8465 144.427 17.4161 144.427 17.4731H134.401C134.487 19.3245 136.053 20.6633 137.933 20.6633C139.699 20.6633 140.668 19.7803 141.123 18.527Z" fill="#FFAB40"/>
<path d="M123.302 12.5455C121.365 12.5455 119.741 13.9412 119.741 16.4762C119.741 19.0112 121.393 20.4354 123.33 20.4354C125.267 20.4354 126.236 19.1536 126.549 18.0713L129.882 19.1821C129.255 21.5178 127.062 23.9104 123.33 23.9104C119.2 23.9104 115.953 20.7772 115.953 16.4762C115.953 12.1467 119.143 9.04199 123.216 9.04199C127.033 9.04199 129.198 11.4061 129.796 13.7703L126.407 14.9096C126.065 13.7418 125.182 12.5455 123.302 12.5455Z" fill="#FFAB40"/>
<path d="M105.782 15.4225V23.4833H101.994V9.46941H105.669V11.2069C106.523 9.75424 108.204 9.09912 109.713 9.09912C113.188 9.09912 114.783 11.5772 114.783 14.6534V23.4833H110.995V15.3085C110.995 13.7419 110.226 12.5171 108.403 12.5171C106.751 12.5171 105.782 13.7989 105.782 15.4225Z" fill="#FFAB40"/>
<path d="M88.1211 19.6663C88.1211 17.1598 89.9725 15.7641 92.3082 15.4223L95.7547 14.9096C96.5522 14.7957 96.8086 14.3969 96.8086 13.9127C96.8086 12.9158 96.0395 12.0897 94.4444 12.0897C92.7924 12.0897 91.8809 13.1436 91.767 14.3684L88.4059 13.6563C88.6338 11.4631 90.6561 9.04199 94.416 9.04199C98.8594 9.04199 100.511 11.5485 100.511 14.3684V21.2614C100.511 22.002 100.597 22.9989 100.682 23.4831H97.2073C97.1219 23.1129 97.0649 22.3438 97.0649 21.8026C96.3528 22.9135 95.0141 23.8819 92.9348 23.8819C89.944 23.8819 88.1211 21.8596 88.1211 19.6663ZM93.7323 21.062C95.3274 21.062 96.8086 20.293 96.8086 17.8149V17.1883L93.6469 17.6725C92.6785 17.8149 91.9094 18.3561 91.9094 19.4385C91.9094 20.2645 92.5076 21.062 93.7323 21.062Z" fill="#FFAB40"/>
<path d="M86.7942 23.4834H83.0059V2.86133H86.7942V23.4834Z" fill="#FFAB40"/>
<path d="M68.5625 19.6663C68.5625 17.1598 70.4139 15.7641 72.7496 15.4223L76.1961 14.9096C76.9936 14.7957 77.25 14.3969 77.25 13.9127C77.25 12.9158 76.4809 12.0897 74.8858 12.0897C73.2338 12.0897 72.3223 13.1436 72.2084 14.3684L68.8473 13.6563C69.0752 11.4631 71.0975 9.04199 74.8574 9.04199C79.3008 9.04199 80.9528 11.5485 80.9528 14.3684V21.2614C80.9528 22.002 81.0383 22.9989 81.1237 23.4831H77.6487C77.5633 23.1129 77.5063 22.3438 77.5063 21.8026C76.7942 22.9135 75.4555 23.8819 73.3762 23.8819C70.3854 23.8819 68.5625 21.8596 68.5625 19.6663ZM74.1738 21.062C75.7688 21.062 77.25 20.293 77.25 17.8149V17.1883L74.0883 17.6725C73.1199 17.8149 72.3508 18.3561 72.3508 19.4385C72.3508 20.2645 72.949 21.062 74.1738 21.062Z" fill="#FFAB40"/>
<path d="M53.8613 3.28857H61.1246C65.0554 3.28857 67.2771 5.59574 67.2771 8.72893C67.2771 10.8082 66.0238 12.4888 64.3433 13.0584C66.3086 13.5426 67.9037 15.3371 67.9037 17.8437C67.9037 21.1193 65.4541 23.4834 61.6658 23.4834H53.8613V3.28857ZM57.7351 11.6342H60.5265C62.3209 11.6342 63.4033 10.6373 63.4033 9.09921C63.4033 7.5611 62.4064 6.59266 60.498 6.59266H57.7351V11.6342ZM57.7351 20.2078H60.9252C62.8336 20.2078 63.973 19.2109 63.973 17.5873C63.973 15.9922 62.9476 14.8814 60.9822 14.8814H57.7351V20.2078Z" fill="#FFAB40"/>
<path d="M42.307 14.8811H48.5734C48.5164 13.4854 47.605 12.1182 45.4402 12.1182C43.4748 12.1182 42.3925 13.5994 42.307 14.8811ZM48.9437 18.527L52.1054 19.467C51.3933 21.8881 49.1716 23.9104 45.725 23.9104C41.8798 23.9104 38.4902 21.1475 38.4902 16.4192C38.4902 11.9473 41.7943 9.04199 45.3832 9.04199C49.7127 9.04199 52.3047 11.8049 52.3047 16.3053C52.3047 16.8465 52.2478 17.4161 52.2478 17.4731H42.2216C42.307 19.3245 43.8736 20.6633 45.7535 20.6633C47.5195 20.6633 48.488 19.7803 48.9437 18.527Z" fill="#FFAB40"/>
<path d="M28.2903 15.4225V23.4833H24.502V9.46941H28.1763V11.2069C29.0308 9.75424 30.7114 9.09912 32.221 9.09912C35.696 9.09912 37.2911 11.5772 37.2911 14.6534V23.4833H33.5027V15.3085C33.5027 13.7419 32.7337 12.5171 30.9107 12.5171C29.2587 12.5171 28.2903 13.7989 28.2903 15.4225Z" fill="#FFAB40"/>
<path d="M80.309 6.07714L80.309 2.12109L86.7969 2.12109L86.7969 6.07714L80.309 6.07714Z" fill="#FFAB40"/>
<ellipse cx="11.903" cy="13.216" rx="2.18624" ry="2.18623" fill="#FFAB40"/>
<path d="M21.1985 11.6092C21.1858 11.5496 21.1705 11.4918 21.1568 11.4501C21.1441 11.4076 21.1364 11.3804 21.1364 11.3804C21.1245 11.3838 21.1135 11.3897 21.1016 11.394C21.1381 11.4722 21.1713 11.542 21.1985 11.6092Z" fill="#FFAB40"/>
<path d="M21.1025 11.3937C20.9749 11.449 20.8686 11.5757 20.7036 11.5017C20.6866 11.4422 20.6602 11.352 20.6339 11.2618C20.6083 11.1717 20.5735 11.0841 20.5539 11.0246C20.4416 10.9318 20.4119 11.0739 20.3404 11.0977C20.3004 10.9829 20.2613 10.8672 20.2256 10.8808C20.1941 10.8672 20.1703 10.8672 20.1533 10.8808C20.1363 10.8936 20.1269 10.9199 20.1193 10.948C20.1065 11.0075 20.1142 11.1002 20.1414 11.2125C20.2877 11.2984 20.5539 11.6505 20.5722 12.0107C20.5722 12.4063 20.6339 13.1975 20.77 13.1975C20.8219 13.2672 21.5162 13.3468 21.5613 13.3953C21.6497 13.4931 21.5119 12.684 21.5613 12.6041C21.5868 12.5641 21.5527 12.3165 21.5613 12.2085C21.5655 12.154 21.3635 11.8869 21.3635 11.8129C21.6117 11.9752 21.1674 11.6576 21.1657 11.6151C21.1622 11.5725 21.1059 11.443 21.1016 11.3954L21.1025 11.3937Z" fill="#FFAB40"/>
<path d="M21.6249 12.3634C21.5807 12.1312 21.5432 11.8973 21.4837 11.6677C21.3825 11.6158 21.2762 11.5418 21.209 11.6311C21.3587 11.9628 21.4624 12.1669 21.6249 12.3634Z" fill="#FFAB40"/>
<path d="M20.4191 8.72029C20.4386 8.70838 20.4573 8.71093 20.4914 8.83596C20.4658 8.79514 20.4454 8.75601 20.4191 8.72029C20.4003 8.7305 20.3774 8.75346 20.3323 8.71008C20.624 9.08687 20.9285 9.56146 21.1548 10.059C21.2177 10.1092 21.2815 10.1577 21.3427 10.2011C21.0774 9.57167 20.7482 8.96949 20.3629 8.44642C19.9785 7.92335 19.5388 7.48192 19.082 7.16553C19.2215 7.29991 19.3414 7.43089 19.4605 7.55252C19.5821 7.67159 19.6851 7.79747 19.7965 7.91569C19.8526 7.97438 19.9045 8.03647 19.9555 8.0994C20.0074 8.16234 20.0593 8.22613 20.112 8.29077C20.2175 8.4209 20.3127 8.56634 20.4199 8.72029H20.4191Z" fill="#FFAB40"/>
<path d="M3.59873 11.5465C3.42693 12.3196 3.47966 13.029 3.59363 13.7051C3.56641 13.3453 3.58087 12.9813 3.60128 12.6207C3.63616 12.2618 3.67698 11.9046 3.74928 11.5635C3.88366 10.878 4.08438 10.246 4.27915 9.7085C3.99253 10.2954 3.76458 10.9111 3.59788 11.5473L3.59873 11.5465Z" fill="#FFAB40"/>
<path d="M4.64942 16.8202C4.612 16.7147 4.58904 16.6067 4.55587 16.5055C4.52355 16.4034 4.49037 16.3039 4.46401 16.2053C4.43509 16.1066 4.40362 16.0114 4.373 15.9169C4.34664 15.8217 4.31857 15.729 4.2888 15.6371C4.25648 15.5461 4.23181 15.4551 4.2046 15.365C4.17653 15.2748 4.14846 15.1863 4.1204 15.0987C4.07447 14.921 4.01153 14.7483 3.9707 14.5723C4.06341 15.2927 4.26158 15.9892 4.5278 16.651C4.56607 16.7079 4.60605 16.7683 4.65027 16.8202H4.64942Z" fill="#FFAB40"/>
<path d="M4.11852 15.9355C4.01476 15.5264 3.91865 15.1496 3.82679 14.7882C3.74174 14.4224 3.65159 14.0669 3.59375 13.7046C3.63458 14.5185 3.8336 15.2968 4.11852 15.9355Z" fill="#FFAB40"/>
<path d="M13.9319 1.9631C14.3231 1.96395 14.6404 1.97841 14.8904 2.00818C15.0154 2.02179 15.1252 2.03285 15.2196 2.04816C15.3131 2.06432 15.3922 2.07963 15.4586 2.09408C15.5878 2.07537 15.7605 2.04901 15.9918 2.0405C15.9476 2.02689 15.9 2.01158 15.8558 1.99797C15.0461 1.82787 14.2142 1.73261 13.3773 1.7207C13.2055 1.73261 13.038 1.74622 12.8798 1.76323C12.7216 1.78449 12.5727 1.81171 12.4375 1.84063L12.8134 1.85424C12.9385 1.86104 13.0635 1.87295 13.1877 1.8823C13.4377 1.89761 13.6844 1.93419 13.931 1.96225L13.9319 1.9631Z" fill="#FFAB40"/>
<path d="M15.4596 2.0957C14.9118 2.18416 15.1712 2.24029 15.4332 2.24455C15.6969 2.2505 15.9784 2.20967 15.4596 2.0957Z" fill="#FFAB40"/>
<path d="M10.7932 4.18262C10.7617 4.18857 10.7294 4.19452 10.6979 4.20048C10.6078 4.22599 10.5151 4.25151 10.4258 4.27703C10.5508 4.24471 10.6699 4.21409 10.7932 4.18262Z" fill="#FFAB40"/>
<path d="M3.45849 7.65133C3.79785 7.13592 4.17293 6.64091 4.57523 6.17822C3.71875 7.1053 3.03492 8.19737 2.69727 9.18483C2.76446 9.0462 2.86397 8.92287 2.93967 8.78934C2.98049 8.63624 3.03663 8.44658 3.12678 8.25096C3.17101 8.15229 3.21694 8.04938 3.27307 7.94902C3.33006 7.84951 3.39215 7.74914 3.45764 7.65218L3.45849 7.65133Z" fill="#FFAB40"/>
<path d="M15.2388 4.12266C13.6892 3.76544 12.1046 3.80966 10.6962 4.20091C9.24177 4.46287 7.87753 5.07099 6.78035 5.92322C5.68147 6.77545 4.8505 7.86242 4.35124 8.99277C4.13691 9.49373 3.89791 10.0848 3.7108 10.7398C3.51943 11.393 3.391 12.1117 3.35868 12.8303C3.33742 13.1893 3.35358 13.549 3.37994 13.8978C3.40206 14.0721 3.41907 14.2448 3.44884 14.4132C3.465 14.4974 3.48116 14.5807 3.49732 14.6632C3.50582 14.7041 3.51262 14.7457 3.52198 14.7857C3.53219 14.8257 3.54324 14.8665 3.55345 14.9065C3.71505 15.5469 3.96936 16.1066 4.26789 16.5267C4.23812 16.4247 4.21686 16.3226 4.1922 16.2239C4.16923 16.1253 4.13776 16.03 4.1165 15.9356C4.17604 16.0691 4.24663 16.1942 4.31042 16.3149C4.37591 16.4357 4.45416 16.5454 4.5256 16.6518C5.12692 18.1291 6.11694 19.3905 7.36976 20.3065C8.62003 21.2242 10.128 21.7974 11.6998 21.9267C11.8163 21.9335 11.9269 21.9344 12.0323 21.931C12.1387 21.9216 12.2407 21.9089 12.3419 21.897C12.444 21.8876 12.5444 21.8646 12.649 21.8519C12.7009 21.8451 12.7536 21.8391 12.808 21.834C12.8625 21.8281 12.9177 21.8196 12.9747 21.8153C13.4391 21.7728 13.8933 21.6954 14.333 21.5704C14.333 21.5618 14.3245 21.555 14.3109 21.5499C14.7659 21.4207 15.2091 21.2506 15.6309 21.0439C16.0528 20.838 16.4542 20.5939 16.8259 20.3116C17.571 19.7494 18.2114 19.046 18.7022 18.2303C19.181 17.4819 19.5867 16.6773 19.8189 15.8165C19.8402 15.7357 19.8657 15.6779 19.8938 15.632C19.9193 15.586 19.9456 15.5529 19.9737 15.5231C20.0298 15.4636 20.0877 15.4176 20.1302 15.3096C20.3063 14.8793 20.4304 14.4821 20.5155 14.0594C20.6014 13.6366 20.6371 13.1859 20.598 12.6475C20.598 12.6475 20.6728 12.6364 20.7094 12.6313C20.7018 12.5905 20.6941 12.5505 20.6864 12.5114C20.6779 12.4731 20.6703 12.4348 20.6635 12.3991C20.6499 12.3268 20.6414 12.2588 20.6363 12.1967C20.7613 12.3047 20.8897 12.4697 20.9867 12.6398C21.0369 12.7257 21.0862 12.8108 21.1313 12.8873C21.1729 12.9656 21.2112 13.0362 21.2478 13.0923C21.3209 13.2037 21.3847 13.2548 21.44 13.1808C21.4936 13.1059 21.5523 12.9052 21.5676 12.5105C21.5676 12.5105 21.5676 12.5105 21.5684 12.5105C21.5914 12.5947 21.6144 12.6696 21.6365 12.7419C21.6373 12.7512 21.639 12.7589 21.6399 12.7674C21.6407 12.7666 21.6424 12.7657 21.6441 12.7657C21.7454 13.1238 21.8321 13.3424 21.9597 13.5652C21.9537 13.4444 21.9563 13.3228 21.9435 13.202C21.9333 13.0812 21.924 12.9605 21.9138 12.8388C21.9699 12.8788 22.0252 12.9043 22.0754 12.8737C22.0873 12.8941 22.0992 12.9128 22.1102 12.9358C22.1196 13.0455 22.1272 13.1374 22.1272 13.1374C22.1596 13.1714 22.1902 13.1961 22.2208 13.2122C22.2718 13.3721 22.3093 13.5592 22.3501 13.7455C22.379 13.9343 22.4088 14.1214 22.4334 14.2813C22.4734 14.6037 22.5185 14.8248 22.6035 14.7296C22.6486 14.6539 22.6622 14.4897 22.6631 14.2745C22.6605 14.1665 22.6503 14.0466 22.641 13.9182C22.635 13.8535 22.6316 13.788 22.6239 13.72C22.6154 13.6528 22.6069 13.5831 22.5984 13.5133C22.6112 13.4793 22.6231 13.4393 22.6325 13.3993C22.6631 13.7685 22.7294 13.7693 22.7941 13.7311C22.857 13.6928 22.9267 13.6154 22.9437 13.8433C22.9454 14.4523 22.9276 15.0664 22.8196 15.6694C22.7107 16.2826 22.5551 16.8618 22.3628 17.4147C22.3118 17.5516 22.2676 17.6911 22.2114 17.8246C22.1562 17.959 22.1017 18.0925 22.0464 18.2261C21.9861 18.3571 21.9257 18.4872 21.8653 18.6173C21.8057 18.7483 21.7351 18.8725 21.6705 19.0009C21.4017 19.507 21.0981 19.9935 20.7528 20.4655C20.4058 20.9359 20.0145 21.3883 19.5731 21.8255C19.494 21.9012 19.4192 21.9812 19.3367 22.0517C18.8944 22.4626 18.4164 22.8104 17.918 23.1149C17.6705 23.2706 17.4094 23.4024 17.1491 23.5342C17.0156 23.5938 16.882 23.6541 16.7485 23.7145C16.6141 23.7741 16.4746 23.8217 16.3377 23.8753C16.3981 23.8234 16.4619 23.7715 16.5274 23.7196C15.6462 24.0598 14.7353 24.3107 13.8031 24.4894C12.6617 24.7267 11.4676 24.7624 10.2718 24.5974C9.07762 24.4264 7.88433 24.0352 6.76844 23.41C5.60152 22.75 4.57153 21.8961 3.69974 20.8899C2.8305 19.8829 2.11691 18.7185 1.62105 17.4223C2.06078 18.4702 2.63999 19.4432 3.33061 20.3575C3.40631 20.4613 3.48201 20.565 3.5577 20.6688C3.6385 20.7683 3.7193 20.8678 3.79925 20.9665C3.84008 21.0158 3.8792 21.0651 3.92088 21.1128L4.04846 21.2531C4.13436 21.3458 4.21771 21.4394 4.30532 21.5278C4.21771 21.4326 4.13521 21.3339 4.05016 21.2386L3.92343 21.0958L3.80265 20.9486C3.72185 20.8508 3.64105 20.753 3.5611 20.656C3.48456 20.5557 3.40801 20.4562 3.33146 20.3567C3.25747 20.258 3.18942 20.1542 3.12223 20.0496C3.05504 19.945 2.9853 19.8421 2.92066 19.7366C2.79733 19.5214 2.66465 19.3122 2.55493 19.0919C2.49795 18.9831 2.44096 18.8742 2.38398 18.7662C2.33124 18.6556 2.27936 18.5459 2.22748 18.4362C2.20111 18.3817 2.1756 18.3273 2.14923 18.2729C2.12542 18.2176 2.1016 18.1623 2.07864 18.107C2.03101 17.9973 1.98338 17.8876 1.93575 17.7796C1.57257 16.9052 1.29956 16.0538 1.02399 15.3003C1.03419 15.1276 1.06651 15.1242 1.0529 14.9618C0.993366 14.3902 0.995918 13.8153 1.01123 13.2624C1.02569 12.7087 1.07417 12.1788 1.08777 11.6762C1.05035 11.6694 1.15497 11.1812 1.04695 11.3275C1.05801 11.2654 1.06906 11.2033 1.08097 11.1403C1.09543 11.0783 1.10989 11.0153 1.12435 10.9515C1.15412 10.8248 1.18388 10.6964 1.21705 10.5671C1.2919 10.3111 1.36335 10.0483 1.45605 9.79141C1.5394 9.532 1.64317 9.2794 1.73758 9.02849C1.78946 8.90517 1.84134 8.78269 1.89152 8.66191C1.91704 8.60153 1.9417 8.54114 1.96637 8.4816C1.99273 8.42292 2.0191 8.36508 2.04547 8.30725C2.09225 8.20773 2.13647 8.10737 2.179 8.00531L2.31253 7.70167C2.35676 7.59961 2.39588 7.49414 2.44096 7.39208L2.57449 7.08164C4.48222 3.94235 7.94557 1.62551 12.1302 1.34484C13.1652 1.2819 14.3687 1.41798 15.3851 1.67569C13.8567 1.42394 12.2569 1.43244 10.7072 1.74288C9.94771 1.83304 9.2137 2.00315 8.54944 2.24299C7.88433 2.47859 7.29406 2.79839 6.81011 3.15561C6.69614 3.23641 6.58217 3.31466 6.47075 3.39631C6.36104 3.48051 6.25132 3.56386 6.1416 3.64806C7.5186 2.71248 9.07932 2.06694 10.7072 1.74288C11.6045 1.63487 12.5325 1.63742 13.4323 1.71737C13.4136 1.71907 13.3966 1.71992 13.3779 1.72162C12.6685 1.70801 11.9549 1.7599 11.2507 1.86876C10.583 1.91979 9.9324 2.03121 9.32852 2.20132C8.7272 2.37823 8.17351 2.60447 7.69806 2.88089C7.57814 2.94638 7.46502 3.02463 7.357 3.09692C7.12481 3.23896 6.90197 3.39886 6.67913 3.5528C7.53902 3.02548 8.45843 2.59851 9.42038 2.29573C10.0166 2.10521 10.6315 1.96827 11.2507 1.86961C11.6428 1.83984 12.0417 1.83134 12.438 1.84155C12.3964 1.85005 12.3521 1.85856 12.3139 1.86876C12.2271 1.87642 12.1021 1.91809 11.9737 1.96998C11.8452 2.02441 11.7125 2.0865 11.6096 2.16219C11.403 2.30848 11.3119 2.45563 11.5612 2.4922C12.1905 2.44542 12.8871 2.43862 13.5743 2.4956C14.2607 2.55088 14.9369 2.66571 15.5229 2.81455C15.8146 2.89365 16.0894 2.96594 16.3292 3.05014C16.45 3.09097 16.5648 3.12584 16.6686 3.16582C16.7732 3.20579 16.8693 3.24321 16.9569 3.27723C17.133 3.34272 17.2682 3.40822 17.3617 3.45074C17.4553 3.49412 17.5046 3.52048 17.5029 3.52389C17.5131 3.5494 17.4587 3.54515 17.3575 3.51793C17.2554 3.49242 17.1091 3.43798 16.9246 3.3844C16.8336 3.35548 16.7341 3.32486 16.6286 3.29084C16.524 3.25597 16.4092 3.22875 16.2935 3.19473C16.0613 3.12499 15.8078 3.068 15.5569 3.00762C15.0509 2.9013 14.5431 2.8171 14.1689 2.78988C14.0753 2.78138 13.9911 2.77372 13.9171 2.76777C13.8431 2.76352 13.7793 2.76182 13.7291 2.76096C13.6279 2.75841 13.5795 2.76096 13.5982 2.76692C13.7147 2.78988 13.8321 2.80774 13.9477 2.83326C14.0634 2.85878 14.1791 2.88429 14.2939 2.91066C14.0677 2.90385 13.8474 2.8979 13.6441 2.91406C13.525 2.91151 13.3974 2.8962 13.2665 2.89195C13.1355 2.88514 13.0019 2.87919 12.8735 2.87238C12.7451 2.86643 12.6209 2.87238 12.5103 2.87664C12.3989 2.88344 12.3003 2.89024 12.222 2.91321C11.6734 3.03228 11.0985 3.12499 10.5125 3.25512C10.367 3.29169 10.2182 3.31806 10.0719 3.36229C9.92559 3.40396 9.77845 3.44564 9.63301 3.49072C9.48842 3.54175 9.34383 3.59448 9.20094 3.64976C9.05806 3.7059 8.91942 3.77479 8.78078 3.84113C8.73826 3.86325 8.69488 3.88621 8.6515 3.90918C8.60898 3.93384 8.5656 3.95936 8.52222 3.98487C8.43547 4.03675 8.34787 4.08949 8.25771 4.14307C8.0791 4.25109 7.90389 4.37782 7.72358 4.49859C7.37231 4.76055 7.01679 5.03952 6.69529 5.35252C6.71571 5.38399 6.6298 5.45203 6.55836 5.51072C6.48862 5.5711 6.43673 5.62299 6.51668 5.61023C6.35253 5.73355 6.17647 5.85433 6.01913 5.99381C5.93918 6.06186 5.85923 6.12905 5.78438 6.19709C5.71124 6.26853 5.64064 6.33913 5.5743 6.40802C5.43907 6.54325 5.3319 6.68699 5.24685 6.81372C5.16094 6.9396 5.10991 7.06122 5.09205 7.16159C5.08014 7.17775 5.06909 7.19306 5.05718 7.20837C5.01976 7.25004 4.97383 7.31723 4.93045 7.39293C4.48137 7.88538 4.19049 8.38039 3.97276 8.88305C3.75502 9.38656 3.60363 9.89773 3.46414 10.4684C3.43353 10.5637 3.40291 10.6598 3.37144 10.7568C3.34422 10.8546 3.31615 10.9524 3.28894 11.051C3.27448 11.1004 3.26087 11.1497 3.24641 11.199C3.2345 11.2492 3.22174 11.2994 3.20984 11.3496C3.18432 11.4499 3.15881 11.5503 3.13329 11.6524C3.16646 11.5197 3.22089 11.3572 3.26852 11.1931C3.32551 11.0315 3.37484 10.869 3.40121 10.7329C3.42247 10.6436 3.44373 10.556 3.465 10.4693C3.6266 9.97343 3.81116 9.49543 4.02634 9.0336C4.24578 8.57431 4.49413 8.13204 4.77906 7.71103C4.81478 7.63363 4.87177 7.50775 4.933 7.39378C4.98318 7.33935 5.03507 7.28746 5.0878 7.23473C5.0878 7.21092 5.09035 7.1871 5.0946 7.16244C5.38633 6.76439 5.7427 6.3706 6.12204 6.02613C6.50052 5.68082 6.88666 5.36528 7.23198 5.10587C7.39528 4.98509 7.57304 4.88303 7.74995 4.77586C7.83755 4.72058 7.93111 4.6755 8.02297 4.62787C8.11567 4.58109 8.20923 4.53431 8.30194 4.48668C8.68297 4.31573 9.07677 4.16008 9.48502 4.04526C10.2981 3.80711 11.1469 3.68549 11.9762 3.66933C11.7704 3.68719 11.5671 3.72716 11.3655 3.75863C11.2643 3.77309 11.1657 3.79946 11.0661 3.81987C10.9666 3.84198 10.868 3.86155 10.7702 3.88621C10.3789 3.98912 9.99704 4.10395 9.63216 4.25109C9.8618 4.16178 10.0957 4.09969 10.3253 4.02655C10.5584 3.96956 10.7872 3.90152 11.0194 3.85984C11.4804 3.75863 11.9413 3.7025 12.3989 3.66592C12.541 3.67018 12.6796 3.67018 12.8199 3.67698L13.2588 3.7059L13.696 3.75523C13.5607 3.73227 13.4255 3.7093 13.292 3.68634C13.1567 3.66933 13.0215 3.65572 12.8871 3.64126C13.4383 3.6217 13.986 3.65572 14.5252 3.71951C15.2643 3.83348 16.0026 4.0325 16.7119 4.32083C17.4204 4.61086 18.1017 4.98679 18.7319 5.43927C19.9967 6.33913 21.0369 7.57069 21.7215 8.9528C21.6526 8.92048 21.5804 8.8805 21.5047 8.83542C21.144 8.19583 20.7179 7.5928 20.2425 7.08079C19.7679 6.56877 19.2448 6.14861 18.7209 5.86283C19.0432 6.12395 19.3171 6.34423 19.5748 6.57898C19.6395 6.63766 19.7041 6.69635 19.7687 6.75504C19.8334 6.81457 19.8938 6.87921 19.9575 6.943C20.0205 7.00764 20.0843 7.07398 20.1498 7.14203C20.211 7.21432 20.2739 7.28832 20.3394 7.36486C20.3224 7.37762 20.3029 7.40314 20.2501 7.36061C20.6091 7.72804 20.9952 8.19753 21.2929 8.70359C21.1109 8.59132 20.9288 8.45949 20.7307 8.34467C20.6193 8.24516 20.507 8.10482 20.376 7.95683C20.3114 7.88198 20.2476 7.80203 20.1778 7.72293C20.1064 7.64554 20.0332 7.56729 19.9584 7.49074C19.648 7.14798 19.3282 6.82393 18.9854 6.53135C18.8195 6.3791 18.6384 6.24557 18.4657 6.10438L18.1944 5.90791C18.1493 5.87559 18.1043 5.84157 18.0583 5.81095L17.918 5.71995C17.1772 5.22834 16.3666 4.84816 15.5016 4.59725C14.7455 4.33784 13.9579 4.16008 13.1635 4.09289C12.3692 4.02655 11.5705 4.05291 10.7948 4.18475C11.5569 4.00443 12.3147 3.92534 13.0572 3.91853C13.7997 3.91428 14.5303 3.98147 15.2422 4.12436L15.2388 4.12266ZM21.3822 15.3275C21.3796 15.3955 21.3762 15.4653 21.3737 15.535C21.3686 15.6048 21.3626 15.6754 21.3575 15.7459C21.3703 15.7264 21.383 15.7077 21.3966 15.6898C21.4264 15.5639 21.4119 15.4321 21.3822 15.3275ZM20.3462 18.2091C20.592 17.8297 20.8132 17.3492 20.9722 16.8193C21.1347 16.2894 21.2401 15.7136 21.2937 15.148C21.2844 15.1404 21.275 15.1344 21.2665 15.1336C21.184 15.6014 21.0768 16.1193 20.9297 16.6484C20.7826 17.1765 20.5878 17.7141 20.3454 18.2091H20.3462ZM17.5599 20.3354C17.5676 20.3345 17.5752 20.3337 17.5829 20.3328C17.5786 20.3286 17.5744 20.3252 17.571 20.3209C17.5676 20.326 17.5642 20.3311 17.5599 20.3362V20.3354ZM3.9583 18.3018C4.29766 18.7424 4.66509 19.2306 5.0929 19.7077C5.51987 20.1848 6.00892 20.6492 6.55241 21.0388C6.8688 21.288 7.27365 21.4045 7.72528 21.6682C8.01786 21.8187 8.26366 21.9148 8.49671 21.9922C8.61153 22.0347 8.72635 22.0671 8.84117 22.1019C8.95599 22.1377 9.07166 22.1751 9.19754 22.2091C9.08357 22.1436 8.97555 22.0679 8.86754 21.9948C9.06826 22.096 9.26133 22.1547 9.44249 22.2065C9.53265 22.2329 9.62366 22.2474 9.71126 22.2661C9.79971 22.2822 9.88477 22.3027 9.97322 22.3129C10.1484 22.335 10.3194 22.3673 10.5039 22.392C10.5958 22.4056 10.6894 22.4268 10.7872 22.4447C10.8858 22.4617 10.9879 22.483 11.0959 22.511C11.0985 22.4923 11.1342 22.4702 11.1835 22.4532C11.2337 22.4353 11.2975 22.4234 11.3596 22.4302C11.4378 22.4345 11.5152 22.4404 11.5926 22.4481C11.67 22.4515 11.7474 22.4557 11.824 22.4609C11.9005 22.4651 11.9771 22.4745 12.0519 22.477C12.1276 22.4796 12.2025 22.4821 12.2764 22.4847C12.4244 22.4932 12.5682 22.4864 12.7068 22.4779C12.8446 22.4728 12.9764 22.4498 13.0981 22.4209C13.7113 22.3324 14.3203 22.204 14.771 21.9897C14.8918 21.9599 15.0874 21.7694 15.3018 21.6563C15.4353 21.5933 15.5697 21.5329 15.7041 21.4725L16.0962 21.2718C16.08 21.2684 16.0655 21.2659 16.0511 21.2616C15.9431 21.3101 15.8342 21.3611 15.727 21.4164C15.619 21.4708 15.5076 21.5176 15.4013 21.5763C15.3613 21.5976 15.3213 21.6205 15.2797 21.6401C15.238 21.6597 15.1955 21.6792 15.1521 21.6988C15.0662 21.7379 14.9786 21.7779 14.891 21.8187C14.7107 21.8859 14.5286 21.9684 14.339 22.0245C13.9639 22.1555 13.5752 22.2389 13.212 22.2993C11.3945 22.5519 9.58708 22.2976 7.95152 21.5414C7.86392 21.5015 7.77631 21.4598 7.68701 21.4215L7.55262 21.3637C7.5084 21.3441 7.46502 21.3211 7.42079 21.3007L7.15628 21.1723C7.07038 21.1255 6.98617 21.0753 6.90197 21.0252C6.38825 20.7317 5.88219 20.3031 5.44927 19.8701C5.01295 19.4381 4.65148 19.0026 4.32828 18.7236C4.27725 18.6752 4.21686 18.5918 4.15222 18.511C4.08758 18.4302 4.02719 18.3469 3.96 18.3043L3.9583 18.3018ZM1.80477 17.4198C2.15263 18.1946 2.58215 18.972 3.07205 19.6898C3.56536 20.4051 4.1165 21.06 4.66509 21.6231C4.88708 21.8476 5.24345 22.1479 5.6585 22.4396C6.07526 22.7288 6.55836 22.995 7.00574 23.1906C7.45737 23.3786 7.86987 23.5002 8.14459 23.5232C8.41931 23.5478 8.54774 23.4951 8.45418 23.3326C8.03827 23.3879 7.23793 23.1472 6.37635 22.6225C5.94598 22.3622 5.49945 22.0364 5.0844 21.6563C4.66679 21.2778 4.27385 20.8542 3.92853 20.4179C3.58747 19.9782 3.29064 19.5308 3.04313 19.1157C2.98105 19.012 2.92661 18.9082 2.86963 18.8095C2.81434 18.71 2.75651 18.6165 2.71058 18.5212C2.66125 18.4277 2.61362 18.3384 2.56854 18.2524C2.54558 18.2099 2.52261 18.1682 2.5005 18.1283C2.48009 18.0874 2.45967 18.0475 2.44096 18.0092C2.36271 17.8553 2.28872 17.7217 2.22323 17.612C2.16114 17.5014 2.10415 17.4155 2.05142 17.3594C1.94681 17.2471 1.8626 17.2531 1.80562 17.4198H1.80477ZM4.76715 4.74014C4.25684 5.24705 3.80606 5.76672 3.29404 6.38761C3.72866 5.79649 4.22196 5.24365 4.76715 4.74014ZM2.40099 11.1735C2.4265 10.9303 2.47924 10.6896 2.52857 10.4455C2.5898 10.2048 2.65019 9.95982 2.73354 9.72082C2.80839 9.47842 2.90705 9.24367 3.00231 9.00553C3.10862 8.77333 3.21324 8.53774 3.33827 8.31235C3.3978 8.19838 3.45819 8.08356 3.52623 7.97469C3.59257 7.86412 3.65721 7.75185 3.72611 7.64298C3.86814 7.4278 4.00933 7.21092 4.16583 7.00679C4.24153 6.90218 4.31807 6.79926 4.40057 6.7006C4.48137 6.60109 4.56047 6.49988 4.64297 6.40207C4.81223 6.2107 4.97723 6.01593 5.15499 5.83732C5.69422 5.27342 6.3755 4.80393 7.07038 4.41354C7.76866 4.02315 8.47544 3.71015 9.11249 3.37334L9.07847 3.26533C9.03084 3.29169 8.98491 3.32061 8.93898 3.34953C8.80545 3.3895 8.67787 3.42608 8.55369 3.45925C8.42952 3.49157 8.31299 3.53239 8.19647 3.56641C7.96258 3.63275 7.74484 3.711 7.52371 3.79691C7.54667 3.78245 7.57134 3.76714 7.5943 3.75268C7.55262 3.77479 7.5101 3.79606 7.46757 3.81817C7.17754 3.94235 6.88241 4.08864 6.57537 4.31147C6.43418 4.41269 6.2998 4.52751 6.16201 4.63808L6.00977 4.74694L5.86178 4.86261L5.5675 5.09651C5.38038 5.26321 5.18476 5.42141 5.0087 5.60002C4.64382 5.94363 4.31637 6.32212 4.01529 6.70996C3.94299 6.80862 3.86985 6.90728 3.7984 7.00594C3.72611 7.10375 3.66317 7.20837 3.59683 7.30873C3.46159 7.5086 3.34847 7.71953 3.2328 7.92451C3.01677 8.34382 2.82795 8.76228 2.69697 9.18499C2.65019 9.31257 2.60681 9.43845 2.57194 9.56602C2.53622 9.69275 2.49965 9.81608 2.46988 9.94111C2.4146 10.192 2.36101 10.4353 2.32699 10.6836C2.28361 10.9286 2.26405 11.1769 2.23428 11.4253C2.21727 11.6762 2.19176 11.9279 2.1824 12.1907C2.19431 12.1176 2.21047 12.036 2.22748 11.9492C2.24619 11.8633 2.27086 11.7731 2.29212 11.683C2.31423 11.5928 2.33295 11.5018 2.35251 11.4159C2.37377 11.33 2.38993 11.2484 2.40014 11.1744L2.40099 11.1735Z" fill="#FFAB40"/>
<path d="M12.5895 3.61904C13.2265 3.58757 13.8755 3.61818 14.5236 3.7177C14.7762 3.74321 15.0245 3.78999 15.2763 3.83082C15.5238 3.88355 15.7755 3.93118 16.0213 3.99837C17.1951 4.32412 18.3934 4.97137 19.4226 5.85847C20.456 6.74217 21.315 7.85636 21.9469 9.02838C22.0813 9.04879 22.1876 9.00882 22.2472 8.86848C21.6348 7.50424 20.6627 6.30415 19.5025 5.36687C18.3399 4.42448 16.9977 3.73641 15.5859 3.27117C15.5629 3.26777 15.5391 3.26522 15.5161 3.26181C14.8757 3.18867 14.0626 3.04493 13.201 3.01686C12.342 2.98284 11.4387 3.05429 10.6919 3.27032C9.94943 3.50421 9.23668 3.77978 8.56222 4.12C7.8886 4.45936 7.25496 4.86591 6.69531 5.35241C6.9139 5.20101 7.14269 5.07003 7.36723 4.9331C7.59942 4.80977 7.82651 4.67964 8.06381 4.57162C8.29685 4.4534 8.53925 4.35984 8.7774 4.25778C9.0215 4.17103 9.26305 4.07577 9.51226 4.00602C9.75891 3.92522 10.0115 3.86909 10.2624 3.80785C10.5167 3.76022 10.7702 3.70579 11.0287 3.67857C11.2856 3.6403 11.5459 3.62754 11.8053 3.61053C11.9354 3.60883 12.0664 3.60713 12.1965 3.60543C12.3275 3.60202 12.4576 3.61393 12.5886 3.61904H12.5895Z" fill="#FFAB40"/>
<path d="M3.97154 14.5734C3.9069 14.1022 3.87798 13.6216 3.89669 13.136C3.90605 12.4589 3.99365 11.8159 4.13229 11.1951C4.27347 10.5742 4.46739 9.97371 4.73106 9.3877C4.28198 10.2102 3.94262 11.0973 3.7521 12.0243C3.6764 12.4921 3.67215 12.9335 3.72403 13.3545C3.77421 13.7756 3.85757 14.1753 3.97154 14.5734Z" fill="#FFAB40"/>
<path d="M5.21147 8.45733C5.16725 8.53473 5.12047 8.60957 5.07879 8.68697C5.03797 8.76522 4.99714 8.84262 4.95632 8.92001L4.89508 9.03483L4.83979 9.15306L4.72923 9.38695C5.06859 8.78053 5.47173 8.21153 5.93272 7.6927C6.39711 7.17729 6.92103 6.7146 7.49173 6.31485C8.41115 5.62933 9.48367 5.11646 10.6208 4.81537C11.7588 4.51344 12.9674 4.42668 14.1718 4.56192C14.3079 4.58148 14.4439 4.59934 14.5792 4.62145C14.7136 4.64867 14.8471 4.67674 14.9806 4.70396C13.897 4.3799 12.7539 4.25743 11.6372 4.34078C11.0793 4.38331 10.5264 4.47261 9.99143 4.6172C9.4573 4.76179 8.93933 4.95401 8.44858 5.1862C8.32695 5.24744 8.20362 5.30273 8.0854 5.36822C7.96803 5.43456 7.85066 5.50005 7.73328 5.56554C7.62016 5.63698 7.50704 5.70843 7.39477 5.77987C7.28165 5.84961 7.17704 5.93297 7.06902 6.00781C6.64291 6.32081 6.25337 6.66782 5.9038 7.0395C5.55679 7.41373 5.254 7.81518 4.99374 8.22939C4.9308 8.33485 4.86361 8.43521 4.80747 8.54238C4.75049 8.6487 4.69435 8.75416 4.63822 8.85963C4.53701 9.07651 4.43579 9.28829 4.35584 9.50688C4.33288 9.57067 4.30226 9.64041 4.2793 9.70845C5.04817 8.13923 6.24486 6.79285 7.72903 5.86662C6.7067 6.5513 5.84341 7.44095 5.21147 8.45733Z" fill="#FFAB40"/>
<path d="M11.9746 3.66932C12.1166 3.66847 12.257 3.65826 12.3973 3.66507C12.5606 3.65741 12.7231 3.6404 12.8847 3.63955C12.786 3.62765 12.6865 3.62424 12.5887 3.61914C12.4858 3.62509 12.3829 3.6302 12.2799 3.63615C12.1779 3.64721 12.0758 3.65826 11.9746 3.66847V3.66932Z" fill="#FFAB40"/>
<path d="M7.5269 3.7959C7.50819 3.8027 7.48948 3.81036 7.47076 3.81801C7.02679 4.06466 6.58282 4.32918 6.16521 4.63877C5.60981 5.09465 5.07313 5.61177 4.57812 6.17907C5.03911 5.67726 5.54773 5.22223 6.05549 4.82504C6.56495 4.42869 7.07357 4.09358 7.52775 3.79675L7.5269 3.7959Z" fill="#FFAB40"/>
<path d="M3.32445 5.87207C3.20793 6.00135 2.99019 6.27012 2.88048 6.4062C2.8354 6.50401 2.79117 6.60097 2.74609 6.69963C2.84561 6.57205 2.94086 6.43937 3.04888 6.31775C3.13989 6.16975 3.22749 6.01751 3.32445 5.87207Z" fill="#FFAB40"/>
<path d="M1.02415 15.3011C0.762185 13.8603 0.781747 12.4033 1.05051 11.0119C1.31758 9.61871 1.83725 8.28934 2.57381 7.085C2.60102 7.02121 2.62739 6.95486 2.65631 6.89108L2.74391 6.69971C2.59507 6.88682 2.46494 7.0867 2.33141 7.28317C2.26251 7.38013 2.20468 7.48474 2.14259 7.58511C2.0822 7.68717 2.01926 7.78753 1.96228 7.89129C1.73689 8.3072 1.52936 8.73076 1.36946 9.16708C1.03776 10.0346 0.842985 10.9311 0.799608 11.7944C0.776644 12.1354 0.822572 12.6491 0.80301 12.9808C0.72221 14.5654 1.05562 16.0708 1.62292 17.4223C1.37116 16.7682 1.17214 16.0802 1.0352 15.3606C1.0318 15.3402 1.0284 15.3206 1.02415 15.3002V15.3011Z" fill="#FFAB40"/>
</g>
<defs>
<clipPath id="clip0_407_1762">
<rect width="145.187" height="24.9231" fill="white" transform="translate(0 0.538574)"/>
</clipPath>
</defs>
</svg>
