<svg width="1335" height="292" viewBox="0 0 1335 292" fill="none" xmlns="http://www.w3.org/2000/svg">
<g clip-path="url(#clip0_1454_253)">
<path d="M252.09 218.503H290V145.803C289.985 65.7539 224.955 0.898054 144.788 1.00012C64.7976 1.11677 0 65.9143 0 145.803V146.211C0 226.261 65.0455 291.117 145.197 291L252.074 290.854V218.503H252.09Z" fill="#FFCC00"/>
<path d="M249.662 163.333C222.002 163.975 197.287 156.305 173.375 146.463C198.482 136.242 222.614 123.993 242.575 103.012C244.136 100.751 244.369 97.033 243.1 94.8902C240.548 90.603 239.178 88.2991 236.626 84.0128C235.358 81.8692 232.952 81.957 231.392 84.2166C212.335 104.236 189.516 116.28 165.661 126.224C176.16 101.277 184.529 75.5848 183.8 46.6563C183.348 44.0171 180.898 41.0134 178.361 40.5177C173.359 39.2492 170.998 38.6513 165.997 37.3828C163.634 36.785 161.943 38.4472 162.322 41.3488C163.022 69.0234 155.352 93.7527 145.481 117.709C135.245 92.5863 123.012 68.4109 102.015 48.4351C99.7551 46.875 96.0374 46.6417 93.8939 47.9102C89.6067 50.4619 87.3036 51.8324 83.0164 54.3841C80.8729 55.6527 80.9607 58.0585 83.2202 59.6187C103.24 78.676 115.284 101.495 125.228 125.349C100.28 114.851 74.5887 106.481 45.6602 107.211C43.021 107.663 40.0173 110.113 39.5216 112.649C38.2531 117.65 37.6553 120.013 36.3867 125.014C35.7889 127.376 37.4511 129.067 40.3527 128.688C67.9252 127.989 92.5671 135.6 116.45 145.428C91.4152 155.634 67.3274 167.882 47.337 188.849C45.7768 191.109 45.5435 194.827 46.812 196.971C49.3637 201.257 50.7344 203.561 53.286 207.848C54.5545 209.992 56.9604 209.904 58.5205 207.644C77.6216 187.566 100.557 175.493 124.499 165.534C113.943 190.585 105.471 216.363 106.2 245.365C106.755 248.164 109.277 250.905 111.639 251.503C116.64 252.772 119.002 253.37 124.003 254.638C126.366 255.236 128.057 253.574 127.678 250.673C127.051 223.114 134.648 198.487 144.446 174.647C154.653 199.653 166.886 223.727 187.839 243.688C190.099 245.248 193.817 245.482 195.96 244.213C200.247 241.662 202.551 240.291 206.838 237.739C208.981 236.471 208.893 234.064 206.634 232.505C186.555 213.404 174.482 190.468 164.524 166.526C189.574 177.083 215.353 185.554 244.354 184.825C246.994 184.373 249.895 181.748 250.493 179.387C251.762 174.385 252.36 172.023 253.627 167.022C254.225 164.659 252.563 162.968 249.662 163.347V163.333Z" fill="#380A53"/>
</g>
<path fill-rule="evenodd" clip-rule="evenodd" d="M689.437 40.5151C686.146 32.4306 681.596 25.4618 675.787 19.5954C669.977 13.7285 663.066 9.1496 655.039 5.85845C647.01 2.56728 638.34 0.921875 628.995 0.921875C619.652 0.921875 610.966 2.56728 602.953 5.85845C594.925 9.1496 588.014 13.7285 582.205 19.5954C576.396 25.4618 571.845 32.4449 568.554 40.5151C565.262 48.5999 563.617 57.4286 563.617 67.0157C563.617 76.6026 565.262 85.4318 568.554 93.516C571.845 101.601 576.396 108.583 582.205 114.437C588.014 120.303 594.925 124.881 602.953 128.173C610.98 131.464 619.666 133.109 628.995 133.109C638.325 133.109 647.01 131.464 655.039 128.173C663.066 124.881 669.977 120.303 675.787 114.437C681.596 108.57 686.146 101.586 689.437 93.516C692.728 85.4318 694.374 76.6026 694.374 67.0157C694.374 57.4286 692.728 48.5999 689.437 40.5151ZM663.294 83.3571C661.62 88.3793 659.216 92.7293 656.111 96.3781C652.992 100.027 649.128 102.903 644.521 105.006C639.913 107.095 634.734 108.155 628.981 108.155C623.587 108.155 618.621 107.167 614.07 105.192C609.521 103.218 605.628 100.399 602.395 96.7496C599.161 93.1009 596.642 88.7509 594.854 83.7287C593.051 78.6921 592.164 73.1256 592.164 67.0299C592.164 60.9342 593.037 55.3538 594.768 50.3313C596.5 45.2944 598.961 40.9588 602.137 37.3099C605.314 33.661 609.177 30.8421 613.728 28.8676C618.279 26.8928 623.372 25.9055 628.995 25.9055C634.619 25.9055 639.884 26.9214 644.449 28.9536C648.999 30.9854 652.863 33.8329 656.04 37.4817C659.216 41.1306 661.635 45.4803 663.309 50.5028C664.983 55.5397 665.828 61.0488 665.828 67.0299C665.828 73.0111 664.983 78.3487 663.309 83.3708L663.294 83.3571Z" fill="#FFF4E0"/>
<path fill-rule="evenodd" clip-rule="evenodd" d="M398.174 88.9218H365.664V129.889H337.461V4.14062H398.174C404.398 4.14062 410.123 5.09923 415.331 7.01677C420.554 8.93432 425.033 11.7245 428.81 15.3735C432.574 19.022 435.507 23.458 437.61 28.6663C439.714 33.875 440.759 39.8418 440.759 46.5384C440.759 53.2353 439.7 59.2307 437.61 64.4964C435.521 69.7624 432.588 74.198 428.81 77.7896C425.033 81.3812 420.539 84.1285 415.331 86.046C410.123 87.9634 404.398 88.9218 398.174 88.9218ZM395.842 28.5664H365.664V64.4964H395.656C400.45 64.4964 404.427 62.9656 407.604 59.9175C410.78 56.8555 412.369 52.4625 412.369 46.3526C412.369 40.2425 410.895 35.7496 407.962 32.8734C405.029 29.9973 400.993 28.5664 395.842 28.5664Z" fill="#FFF4E0"/>
<path fill-rule="evenodd" clip-rule="evenodd" d="M493.917 86.4051H482.241L482.227 86.4333V129.905H454.023V4.15625H518.686C530.906 4.15625 540.278 7.20393 546.804 13.314C553.328 19.4097 556.592 27.795 556.592 38.4551C556.592 49.9597 553.328 58.5739 546.804 64.3262C540.278 70.0785 531.092 73.3123 519.23 74.0278V82.284C522.708 82.7564 525.726 83.3286 528.302 83.9871C530.878 84.6448 533.182 85.7466 535.213 87.307C537.245 88.8658 539.134 90.9268 540.865 93.502C542.596 96.0779 544.357 99.526 546.16 103.833L551.554 116.769C552.628 119.288 553.715 121.434 554.788 123.237C555.876 125.04 557.249 126.413 558.924 127.372V129.89H527.315C526.127 128.931 525.225 127.888 524.624 126.742C524.024 125.612 523.551 124.381 523.194 123.065L515.295 103.662C513.979 100.313 512.691 97.5231 511.432 95.305C510.173 93.1014 508.742 91.3274 507.124 90.0112C505.507 88.695 503.647 87.764 501.559 87.2208C499.454 86.6767 496.908 86.4051 493.917 86.4051ZM512.061 28.5677H482.241V61.9793H512.233C517.27 61.9793 521.248 60.5054 524.181 57.5723C527.115 54.6389 528.588 50.489 528.588 45.0948C528.588 34.0765 523.079 28.5677 512.061 28.5677Z" fill="#FFF4E0"/>
<path fill-rule="evenodd" clip-rule="evenodd" d="M809.433 28.6663C811.536 33.875 812.58 39.8275 812.58 46.5384V46.5527C812.58 53.2497 811.522 59.2451 809.433 64.5107C807.343 69.7767 804.41 74.2123 800.632 77.804C796.855 81.3956 792.362 84.143 787.153 86.0605C781.944 87.9779 776.221 88.9363 769.997 88.9363H737.486V129.889H709.283V4.14062H769.997C776.221 4.14062 781.944 5.09923 787.153 7.01677C792.375 8.93432 796.855 11.7245 800.632 15.3735C804.395 19.022 807.329 23.458 809.433 28.6663ZM767.493 64.4964C772.286 64.4964 776.264 62.9656 779.44 59.9175C782.617 56.8555 784.205 52.4625 784.205 46.3526C784.205 40.2425 782.732 35.7496 779.798 32.8734C776.865 29.9973 772.83 28.5664 767.679 28.5664H737.5V64.4964H767.493Z" fill="#FFF4E0"/>
<path d="M854.078 77.6037H911.014V54.4371H854.078V29.11H916.409V4.14062H825.875V129.875H916.581V104.919H854.078V77.6037Z" fill="#FFF4E0"/>
<path d="M930.773 4.14062H958.977V104.734H1016.81V129.875H930.773V4.14062Z" fill="#FFF4E0"/>
<path d="M1055.79 4.14062H1027.59V129.875H1113.63V104.734H1055.79V4.14062Z" fill="#FFF4E0"/>
<path d="M1209.56 77.6037H1152.61V104.919H1215.12V129.875H1124.41V4.14062H1214.95V29.11H1152.61V54.4371H1209.56V77.6037Z" fill="#FFF4E0"/>
<path fill-rule="evenodd" clip-rule="evenodd" d="M1330.08 123.237C1329.01 121.434 1327.92 119.287 1326.85 116.769L1321.46 103.833C1319.67 99.526 1317.9 96.0779 1316.16 93.502C1314.43 90.9268 1312.54 88.8658 1310.51 87.307C1308.48 85.7466 1306.18 84.6448 1303.6 83.9871C1301.03 83.3286 1298 82.7564 1294.53 82.284V74.0278C1306.39 73.3123 1315.57 70.0785 1322.1 64.3262C1328.62 58.5739 1331.89 49.9597 1331.89 38.4551C1331.89 27.795 1328.62 19.4097 1322.1 13.314C1315.57 7.20393 1306.2 4.15625 1293.98 4.15625H1229.32V129.905H1257.53V86.4333H1269.2C1272.19 86.4333 1274.73 86.7058 1276.82 87.249C1278.92 87.793 1280.77 88.7232 1282.39 90.0394C1284.01 91.3556 1285.44 93.1304 1286.7 95.334C1287.96 97.5521 1289.24 100.342 1290.56 103.691L1298.46 123.093C1298.82 124.41 1299.29 125.64 1299.89 126.771C1300.49 127.916 1301.38 128.96 1302.58 129.919H1334.19V127.401C1332.52 126.442 1331.15 125.068 1330.06 123.265L1330.08 123.237ZM1287.52 61.9793H1257.53V28.5677H1287.34C1298.36 28.5677 1303.87 34.0765 1303.87 45.0948C1303.87 50.489 1302.4 54.6389 1299.46 57.5723C1296.53 60.5054 1292.56 61.9793 1287.52 61.9793Z" fill="#FFF4E0"/>
<path d="M365.664 210.622H414.158V162.113H442.547V287.862H414.158V236.85H365.664V287.862H337.461V162.113H365.664V210.622Z" fill="#FFF4E0"/>
<path d="M486.905 235.591H543.854V212.41H486.905V187.083H549.249V162.113H458.701V287.862H549.421V262.892H486.905V235.591Z" fill="#FFF4E0"/>
<path fill-rule="evenodd" clip-rule="evenodd" d="M553.199 287.862L600.619 162.113H632.959L680.565 287.862H651.459L644.276 267.929H589.487L582.304 287.862H553.199ZM605.112 224.087L598.101 243.661V243.689H635.648L628.637 224.115C627.678 221.239 626.834 218.606 626.118 216.216C625.403 213.812 624.774 211.366 624.23 208.847C623.921 207.417 623.644 205.932 623.398 204.39C623.295 203.753 623.199 203.106 623.107 202.45C623.029 201.894 622.955 201.332 622.884 200.763C622.527 197.886 622.169 194.595 621.812 190.875H611.938C611.839 191.893 611.739 192.88 611.638 193.834C611.359 196.473 611.069 198.866 610.765 201.02C610.349 203.954 609.877 206.672 609.334 209.19C608.79 211.694 608.189 214.127 607.531 216.459C607.062 218.122 606.52 219.893 605.9 221.768C605.65 222.524 605.388 223.297 605.112 224.087Z" fill="#FFF4E0"/>
<path fill-rule="evenodd" clip-rule="evenodd" d="M784.292 178.369C779.327 173.045 773.331 168.997 766.334 166.249C759.322 163.501 751.509 162.113 742.895 162.113H689.908V287.862H742.366C751.352 287.862 759.393 286.517 766.519 283.827C773.645 281.137 779.698 277.116 784.664 271.793C789.629 266.469 793.435 259.874 796.068 252.032C798.7 244.191 800.017 235.176 800.017 225.002C800.017 214.828 798.644 205.985 795.882 198.144C793.12 190.302 789.257 183.721 784.292 178.382V178.369ZM769.568 243.032C768.065 247.882 765.947 251.774 763.186 254.707C760.424 257.641 757.133 259.73 753.312 260.989C749.477 262.248 745.228 262.878 740.563 262.878H718.112V187.069H740.563C750.865 187.069 758.65 190.188 763.916 196.413C769.181 202.637 771.814 212.167 771.814 224.973C771.814 232.156 771.07 238.18 769.568 243.032Z" fill="#FFF4E0"/>
<path d="M861.604 181.703C854.908 181.703 849.871 182.933 846.523 185.381L846.509 185.366C843.146 187.813 841.472 191.09 841.472 195.154C841.472 198.03 842.13 200.362 843.446 202.165C844.763 203.968 846.824 205.456 849.643 206.658C852.447 207.86 856.039 208.904 860.417 209.806C864.782 210.707 870.019 211.638 876.129 212.597C889.064 214.743 898.58 218.907 904.69 225.074C910.8 231.241 913.848 239.784 913.848 250.673C913.848 257.14 912.589 262.893 910.07 267.916C907.552 272.938 903.989 277.159 899.381 280.579C894.774 283.984 889.321 286.589 883.04 288.392C876.759 290.181 869.832 291.082 862.292 291.082C854.021 291.082 846.694 290.094 840.284 288.12C833.889 286.145 828.437 283.297 823.943 279.592C819.45 275.885 815.974 271.45 813.527 266.299C811.065 261.147 809.663 255.453 809.305 249.228L834.461 244.377C835.061 252.047 837.994 257.856 843.261 261.805C848.526 265.755 855.352 267.73 863.737 267.73C870.562 267.73 875.885 266.413 879.72 263.78C883.555 261.147 885.473 257.555 885.473 252.648C885.473 247.74 883.426 244.077 879.362 241.687C875.299 239.297 868.231 237.322 858.171 235.763C842.602 233.373 831.226 229.152 824.043 223.099C816.861 217.047 813.269 208.518 813.269 197.5C813.269 191.405 814.442 185.953 816.775 181.159C819.107 176.38 822.397 172.331 826.648 169.04C830.897 165.749 836.006 163.23 842.002 161.499C847.983 159.767 854.508 158.895 861.934 158.895C869.361 158.895 876.158 159.782 882.325 161.584C888.492 163.373 893.857 165.92 898.408 169.211C902.959 172.517 906.593 176.466 909.283 181.073C911.988 185.681 913.561 190.804 914.048 196.427L887.82 202.179C886.86 195.354 884.114 190.231 879.563 186.826C875.012 183.406 869.032 181.703 861.604 181.703Z" fill="#FFF4E0"/>
<defs>
<clipPath id="clip0_1454_253">
<rect width="290" height="290" fill="white" transform="translate(0 1)"/>
</clipPath>
</defs>
</svg>
