<svg width="162" height="40" viewBox="0 0 162 40" fill="none" xmlns="http://www.w3.org/2000/svg">
<g clip-path="url(#clip0_0_568)">
<path d="M24.4822 26.0399C24.1093 27.644 23.5916 29.1077 22.9435 30.3322C22.6423 30.9016 22.3306 31.3813 22.0242 31.7777C21.3761 31.8128 20.7215 31.8323 20.063 31.8323C19.4045 31.8323 18.7486 31.8128 18.1005 31.7777C17.5385 31.7465 16.983 31.7036 16.4314 31.6465C15.889 31.5906 15.3517 31.5204 14.8223 31.4398C13.0528 31.1707 11.3629 30.7651 9.79679 30.2334C9.26346 30.0527 8.74448 29.8565 8.24114 29.6472C7.65044 29.4002 7.0793 29.1363 6.53554 28.8516C2.32108 26.6365 0 23.4933 0 19.9991C0 16.5049 2.32108 13.3617 6.53554 11.1479C7.0793 10.8619 7.65044 10.5981 8.24114 10.3511C7.58785 12.5362 7.16145 14.9177 6.98411 17.3941C6.01656 18.2494 5.47671 19.1594 5.47671 19.9991C5.47671 20.8389 6.01656 21.7488 6.98411 22.6055C7.38052 22.9551 7.84865 23.2957 8.37937 23.6194C8.60495 23.7572 8.84228 23.8911 9.09003 24.0211C10.1932 24.6009 11.4711 25.0831 12.8611 25.4575C13.3149 25.5797 13.7804 25.6902 14.2551 25.789C14.7089 25.8839 15.1731 25.9671 15.6438 26.0399C17.0665 26.257 18.5556 26.3727 20.063 26.3727C21.5704 26.3727 23.0596 26.257 24.4822 26.0399Z" fill="white"/>
<path d="M40.1247 19.9992C40.1247 23.4934 37.8036 26.6367 33.5892 28.8517C33.0467 29.1364 32.4756 29.4003 31.8835 29.6473C32.5381 27.4608 32.9645 25.0806 33.1419 22.6043C34.1081 21.7489 34.648 20.839 34.648 19.9992C34.648 19.1595 34.1081 18.2495 33.1419 17.3942C32.7455 17.0445 32.2774 16.7026 31.7466 16.3789C31.521 16.2425 31.2837 16.1073 31.036 15.9773C29.9328 15.3975 28.6549 14.9152 27.2649 14.5408C26.8111 14.4187 26.3456 14.3082 25.8709 14.2094C25.4158 14.1145 24.9529 14.0313 24.4822 13.9598C23.0595 13.7414 21.5704 13.6257 20.063 13.6257C18.5556 13.6257 17.0664 13.7414 15.6438 13.9598C16.0154 12.3557 16.5344 10.892 17.1812 9.66613C17.4824 9.09676 17.7941 8.61839 18.1005 8.22061C18.7486 8.18551 19.4032 8.16602 20.063 8.16602C20.7228 8.16602 21.3761 8.18551 22.0255 8.22061C22.5862 8.25181 23.143 8.29601 23.6933 8.3519C24.237 8.4078 24.773 8.478 25.3024 8.55859C27.0732 8.82768 28.7618 9.23325 30.3292 9.76492C30.8625 9.94561 31.3815 10.1419 31.8849 10.3512C32.4756 10.5982 33.0467 10.8621 33.5892 11.148C37.8036 13.3618 40.1247 16.5063 40.1247 19.9992Z" fill="white"/>
<path d="M29.7412 8.21423C28.0773 7.72026 26.3013 7.35628 24.4548 7.13269C23.868 7.06119 23.2747 7.004 22.6762 6.9611C21.8182 5.99656 20.9054 5.45969 20.0617 5.45969C19.2181 5.45969 18.3079 5.99656 17.4499 6.9611C17.0978 7.35628 16.7561 7.82295 16.4314 8.35202C16.2932 8.57691 16.1589 8.81349 16.0285 9.06048C15.2579 10.5177 14.658 12.2817 14.2551 14.2095C14.1599 14.6619 14.0765 15.1246 14.0047 15.5939C13.7857 17.0121 13.6709 18.4966 13.6709 19.9994C13.6709 21.5021 13.7857 22.9866 14.0047 24.4048C13.5353 24.2969 13.0776 24.1773 12.6356 24.0434C11.5598 23.721 10.5688 23.3285 9.6977 22.8709C9.12656 22.5706 8.64669 22.2612 8.24768 21.9557C8.21247 21.3097 8.19421 20.6571 8.19421 19.9994C8.19421 19.3416 8.21247 18.689 8.24768 18.043C8.27897 17.4827 8.32331 16.9289 8.37938 16.3791C8.62322 14.0301 9.10309 11.7942 9.7968 9.76504C9.97806 9.23337 10.175 8.716 10.3849 8.21423C10.6327 7.62536 10.8974 7.05599 11.1842 6.51523C13.4049 2.31387 16.5592 0 20.0617 0C23.5642 0 26.7211 2.31387 28.9431 6.51523C29.2287 7.05599 29.4934 7.62536 29.7412 8.21423Z" fill="white"/>
<path d="M31.9331 19.9992C31.9331 20.657 31.9136 21.3095 31.8784 21.9556C31.8471 22.5159 31.8027 23.0696 31.7454 23.6195C31.5028 25.9685 31.0217 28.2043 30.3292 30.2335C30.148 30.7652 29.9511 31.2825 29.7411 31.7843C29.4934 32.3732 29.2287 32.9426 28.9431 33.4846C26.7211 37.686 23.5681 39.9998 20.0617 39.9998C16.5553 39.9998 13.4049 37.686 11.1842 33.4846C10.8974 32.9426 10.6326 32.3732 10.3849 31.7843C12.0488 32.2796 13.8248 32.6423 15.6712 32.8672C16.258 32.9374 16.85 32.9946 17.4498 33.0374C18.3079 34.002 19.2193 34.5402 20.0617 34.5402C20.9041 34.5402 21.8182 34.002 22.6762 33.0374C23.027 32.6423 23.3686 32.1769 23.6933 31.6465C23.8315 31.4216 23.9658 31.1851 24.0975 30.9381C24.8682 29.4809 25.468 27.7169 25.8709 25.7891C25.9648 25.3367 26.0496 24.8739 26.1213 24.4046C26.3404 22.9864 26.4564 21.5019 26.4564 19.9992C26.4564 18.4965 26.3404 17.012 26.1213 15.5938C26.5907 15.7016 27.0484 15.8225 27.4905 15.9551C28.5663 16.2775 29.5573 16.6701 30.4283 17.1277C30.9995 17.4279 31.4794 17.7386 31.8784 18.0428C31.9136 18.6902 31.9331 19.3414 31.9331 19.9992Z" fill="white"/>
<path d="M80.2586 10.4632C79.441 10.4632 78.7707 10.8896 78.2648 11.7293L68.4484 28.0226L64.0475 23.5951C66.0856 22.4797 67.2357 20.3556 67.2357 17.6388C67.2357 13.3594 64.5782 10.7024 60.3012 10.7024H47.1636V29.2978H51.3663V14.9168H60.3012C62.1554 14.9168 63.0565 15.8228 63.0565 17.6869C63.0565 19.6485 62.1554 20.6013 60.3012 20.6013H52.429V24.4556H59.2971L63.7215 29.2978H72.5377L80.1386 16.4845L82.9995 21.2734H78.3326L76.2058 24.9119H85.1641L87.7851 29.2978H92.8354L82.2263 11.7293C82.0372 11.4161 81.4634 10.4619 80.2559 10.4619L80.2586 10.4632Z" fill="white"/>
<path d="M103.797 10.7026H93.0872V29.2981H103.797C108.984 29.2981 112.895 25.2241 112.895 19.8203C112.895 17.2309 111.978 14.8949 110.314 13.2427C108.664 11.6048 106.349 10.7026 103.795 10.7026H103.797ZM103.797 25.0837H97.2912V14.917H103.797C106.62 14.917 108.668 17.0398 108.668 19.9646C108.668 22.8894 106.62 25.0837 103.797 25.0837Z" fill="white"/>
<path d="M118.618 10.7026H114.39V29.2981H118.618V10.7026Z" fill="white"/>
<path d="M136.27 21.0188C136.27 23.8423 135.348 25.371 130.485 25.371C125.623 25.371 124.701 23.841 124.701 21.0188V10.7026H120.378V21.0188C120.378 23.9567 121.16 26.06 122.768 27.4496C124.393 28.8548 126.886 29.5373 130.39 29.5373C137.331 29.5373 140.425 26.9101 140.425 21.0188V10.7026H136.271V21.0188H136.27Z" fill="white"/>
<path d="M155.707 17.99H147.7C146.668 17.99 146.099 17.4492 146.099 16.4652C146.099 15.4812 146.661 14.917 147.724 14.917H160.861V10.7026H147.724C144.096 10.7026 141.752 12.8514 141.752 16.1779C141.752 19.5044 144.133 21.7247 147.676 21.7247H155.707C157.466 21.7247 157.668 22.6762 157.668 23.3925C157.668 24.4831 156.972 25.085 155.707 25.085H142.016V29.2994H155.707C159.421 29.2994 161.727 27.1194 161.727 23.6096C161.727 20.0998 159.645 17.9913 155.707 17.9913V17.99Z" fill="white"/>
</g>
<defs>
<clipPath id="clip0_0_568">
<rect width="161.727" height="40" fill="white"/>
</clipPath>
</defs>
</svg>
