<svg width="247" height="85" viewBox="0 0 247 85" fill="none" xmlns="http://www.w3.org/2000/svg">
<path d="M12.8996 54.5C12.3996 54.5 11.9996 54.5 11.4996 54L4.09962 46.6C3.89962 46.4 3.79961 46.3 3.79961 46.1C3.69961 46 3.59963 45.6 3.69963 45.2C3.69963 45 3.79961 44.9 3.89961 44.8C3.99961 44.7 4.09963 44.6 4.19963 44.5C4.39963 44.3 4.49962 44.1 4.59962 44C6.39962 42.3 8.09961 40.6 9.89961 39C13.8996 35.1 17.8996 31.2 21.8996 27.3C21.8996 27.1 22.1996 25.9 23.0996 25.6C23.3996 25.5 23.7996 25.5 23.9996 25.5C24.4996 25.5 24.8996 25.5 25.3996 26L33.1996 33.4C33.4996 33.8 33.7996 34.3 33.6996 34.8C33.5996 35.3 33.0996 35.6 32.8996 35.7C31.9996 36.2 29.1996 39 23.8996 44.6C20.6996 47.7 17.5996 50.8 14.3996 53.8C14.2996 53.9 14.1996 54.2 13.8996 54.4C13.5996 54.5 13.2996 54.5 12.8996 54.5Z" fill="#AF145B"/>
<path d="M33.1 18.6002L17.9 3.90018C15.6 2.10018 12.8 0.700195 9.60001 0.700195C6.40001 0.700195 3.19999 2.10018 0.899994 4.40018C-6.07967e-06 4.90018 0 5.30017 0 5.80017C0 6.30017 0 6.7002 0.5 7.2002L21.2 27.0002C21.7 27.5002 22.1 27.5002 22.1 27.9002C26.7 33.0002 27.2 40.3002 23 45.4002L33.1 35.7002C35.4 33.9002 36.8 30.6002 36.8 27.4002C36.8 24.2002 35.4 20.9002 33.1 18.6002Z" fill="url(#paint0_linear_585_1335)"/>
<path d="M15.2004 51.7998C10.6004 46.6998 10.1004 39.3998 14.7004 34.2998L4.6004 43.9998C2.3004 46.2998 0.900391 49.4998 0.900391 52.6998C0.900391 55.8998 2.3004 59.0998 4.6004 61.3998L26.7004 83.8998C27.2004 84.3998 27.6004 84.3998 28.1004 84.3998C28.6004 84.3998 29.0004 84.3998 29.5004 83.8998C31.8004 81.5998 33.2004 78.3998 33.2004 75.1998C33.2004 71.9998 31.8004 68.7998 29.5004 66.4998L15.7004 52.6998C15.6004 52.1998 15.2004 52.1998 15.2004 51.7998Z" fill="url(#paint1_linear_585_1335)"/>
<path d="M74.7992 39.2002C75.4992 37.4002 76.4992 36.1002 78.0992 35.2002C79.5992 34.3002 81.3992 33.9002 83.1992 33.9002V41.8002C80.9992 41.5002 79.0992 42.0002 77.2992 43.1002C75.5992 44.2002 74.7992 46.1002 74.7992 48.8002V62.0002H67.6992V34.4002H74.7992V39.2002ZM115.299 58.7002C112.499 61.5002 108.999 62.9002 104.899 62.9002C100.799 62.9002 97.3992 61.5002 94.4992 58.7002C91.6992 55.9002 90.2992 52.4002 90.2992 48.3002C90.2992 44.2002 91.6992 40.8002 94.4992 38.0002C97.2992 35.2002 100.799 33.7002 104.899 33.7002C108.999 33.7002 112.399 35.1002 115.299 38.0002C118.099 40.8002 119.599 44.2002 119.599 48.3002C119.599 52.4002 118.199 55.8002 115.299 58.7002ZM99.5992 53.8002C100.999 55.2002 102.799 56.0002 104.999 56.0002C107.199 56.0002 108.899 55.3002 110.399 53.8002C111.799 52.4002 112.599 50.5002 112.599 48.3002C112.599 46.1002 111.899 44.3002 110.399 42.8002C108.999 41.4002 107.199 40.6002 104.999 40.6002C102.799 40.6002 101.099 41.3002 99.5992 42.8002C98.1992 44.2002 97.4992 46.1002 97.4992 48.3002C97.4992 50.5002 98.1992 52.3002 99.5992 53.8002ZM148.299 34.5002H155.399V62.1002H148.299V59.0002C146.599 61.6002 143.799 62.9002 140.099 62.9002C137.099 62.9002 134.599 61.9002 132.599 59.9002C130.599 57.9002 129.699 55.1002 129.699 51.5002V34.6002H136.799V50.7002C136.799 52.5002 137.299 54.0002 138.299 55.0002C139.299 56.0002 140.599 56.4002 142.299 56.4002C144.099 56.4002 145.599 55.8002 146.699 54.7002C147.799 53.6002 148.399 51.8002 148.399 49.6002L148.299 34.5002ZM183.299 41.3002H176.999V52.8002C176.999 53.8002 177.199 54.5002 177.699 54.9002C178.199 55.3002 178.899 55.6002 179.799 55.7002C180.699 55.7002 181.899 55.7002 183.199 55.6002V62.1002C178.299 62.7002 174.799 62.2002 172.799 60.7002C170.799 59.2002 169.799 56.6002 169.799 52.8002V41.3002H164.999V34.5002H169.799V28.9002L176.899 26.7002V34.4002H183.099V41.3002H183.299ZM198.999 51.2002C199.999 54.7002 202.599 56.4002 206.799 56.4002C209.499 56.4002 211.599 55.5002 212.999 53.6002L218.699 56.9002C215.999 60.8002 211.999 62.8002 206.699 62.8002C202.099 62.8002 198.499 61.4002 195.699 58.7002C192.899 55.9002 191.599 52.5002 191.599 48.3002C191.599 44.1002 192.999 40.7002 195.699 37.9002C198.399 35.1002 201.899 33.7002 206.199 33.7002C210.199 33.7002 213.599 35.1002 216.199 37.9002C218.799 40.7002 220.199 44.2002 220.199 48.3002C220.199 49.2002 220.099 50.2002 219.899 51.2002H198.999ZM198.899 45.7002H212.999C212.599 43.8002 211.699 42.4002 210.499 41.5002C209.199 40.6002 207.799 40.1002 206.199 40.1002C204.299 40.1002 202.699 40.6002 201.499 41.6002C200.099 42.6002 199.299 43.9002 198.899 45.7002ZM237.699 39.2002C238.399 37.4002 239.399 36.1002 240.999 35.2002C242.499 34.3002 244.299 33.9002 246.099 33.9002V41.8002C243.899 41.5002 241.999 42.0002 240.199 43.1002C238.499 44.2002 237.699 46.1002 237.699 48.8002V62.0002H230.599V34.4002H237.699V39.2002Z" fill="#CB0766"/>
<defs>
<linearGradient id="paint0_linear_585_1335" x1="0" y1="23.0502" x2="36.8" y2="23.0502" gradientUnits="userSpaceOnUse">
<stop stop-color="#CB0766"/>
<stop offset="1" stop-color="#E04391"/>
</linearGradient>
<linearGradient id="paint1_linear_585_1335" x1="0.54119" y1="59.3498" x2="33.05" y2="59.3498" gradientUnits="userSpaceOnUse">
<stop stop-color="#CB0766"/>
<stop offset="1" stop-color="#E04391"/>
</linearGradient>
</defs>
</svg>
