<svg xmlns="http://www.w3.org/2000/svg" xmlns:xlink="http://www.w3.org/1999/xlink" viewBox="0 0 128 27"><path d="M 43.904 20.446 C 40.84 20.446 38.633 18.735 38.354 15.592 L 41 15.592 C 41.199 17.303 42.392 18.138 43.904 18.138 C 45.276 18.138 46.231 17.482 46.231 16.448 C 46.231 13.504 38.792 15.195 38.792 10.123 C 38.792 7.776 40.88 6.205 43.545 6.205 C 46.549 6.205 48.498 7.796 48.796 10.461 L 46.171 10.461 C 45.912 9.248 44.918 8.512 43.545 8.512 C 42.292 8.512 41.497 9.089 41.497 10.004 C 41.497 12.549 48.936 10.899 48.936 16.289 C 48.936 18.815 46.847 20.446 43.904 20.446 Z" fill="rgb(255,255,255)"></path><path d="M 59.77 20.446 C 55.693 20.446 52.69 17.442 52.69 13.325 C 52.69 9.208 55.693 6.205 59.77 6.205 C 63.808 6.205 66.831 9.208 66.831 13.325 C 66.831 17.442 63.808 20.446 59.77 20.446 Z M 55.395 13.325 C 55.395 16.09 57.205 18.138 59.77 18.138 C 62.296 18.138 64.106 16.09 64.106 13.325 C 64.106 10.56 62.296 8.512 59.77 8.512 C 57.205 8.512 55.395 10.56 55.395 13.325 Z" fill="rgb(255,255,255)"></path><path d="M 77.518 20.446 C 73.6 20.446 70.577 17.84 70.577 13.325 C 70.577 8.83 73.54 6.205 77.518 6.205 C 80.9 6.205 83.286 8.313 83.545 11.237 L 80.84 11.237 C 80.601 9.626 79.289 8.512 77.518 8.512 C 75.072 8.512 73.282 10.282 73.282 13.325 C 73.282 16.368 75.092 18.138 77.518 18.138 C 79.269 18.138 80.641 16.945 80.9 15.334 L 83.605 15.334 C 83.286 18.218 80.959 20.446 77.518 20.446 Z" fill="rgb(255,255,255)"></path><path d="M 87.74 20.287 L 87.74 6.364 L 90.445 6.364 L 90.445 11.913 L 95.735 6.364 L 99.315 6.364 L 93.945 11.933 L 99.832 20.287 L 96.511 20.287 L 92.115 13.822 L 90.464 15.553 L 90.464 20.287 Z" fill="rgb(255,255,255)"></path><path d="M 103.179 20.287 L 103.179 6.364 L 112.626 6.364 L 112.626 8.671 L 105.884 8.671 L 105.884 11.893 L 111.334 11.893 L 111.334 14.2 L 105.884 14.2 L 105.884 17.979 L 112.706 17.979 L 112.706 20.287 Z" fill="rgb(255,255,255)"></path><path d="M 120.208 20.287 L 120.208 8.671 L 116.011 8.671 L 116.011 6.364 L 127.09 6.364 L 127.09 8.671 L 122.913 8.671 L 122.913 20.287 Z" fill="rgb(255,255,255)"></path><path d="M 3.579 4.105 C 5.719 0.855 11.546 -0.46 15.151 0.141 C 18.361 0.676 22.461 2.856 23.841 5.874 C 23.841 5.874 25.574 10.365 20.264 9.931 C 18.179 9.76 16.131 9.245 14.239 8.345 C 11.178 6.889 7.653 6.192 4.345 7.302 C 3.542 7.571 2.785 7.966 2.105 8.473 C 1.714 8.763 1.349 9.088 1.011 9.439 C 0.802 9.656 0.012 10.341 0.012 10.644 C 0.012 10.644 0.607 6.206 5.442 4.383 C 8.992 3.044 12.308 3.243 15.767 4.879 C 16.757 5.346 17.738 5.852 18.79 6.169 C 19.401 6.352 21.299 6.955 21.705 6.223 C 22.072 5.564 20.956 4.372 20.473 4.036 C 16.954 1.592 12.813 0.646 8.649 1.77 C 6.89 2.245 5.041 2.987 3.579 4.105 Z" fill="rgb(255,255,255)"></path><path d="M 25.494 15.361 C 25.494 15.361 23.592 20.117 16.141 18.889 C 13.873 18.515 11.79 17.82 9.691 16.909 C 7.917 16.138 6.004 15.433 4.039 15.73 C 2.603 15.947 1.258 16.74 1.374 18.37 C 1.552 20.869 3.675 22.882 5.688 24.114 C 9.964 26.732 16.825 26.931 20.712 23.421 C 20.802 23.339 20.908 23.184 21.016 23.13 C 21.016 23.13 16.538 25.389 12.455 24.716 C 8.373 24.042 3.816 21.942 4.092 20.633 C 4.344 19.446 5.534 19.538 6.367 20.024 C 8.837 21.464 11.806 22.378 14.674 22.455 C 16.93 22.515 19.332 22.203 21.344 21.073 C 23.581 19.817 24.579 17.65 25.494 15.361 Z" fill="rgb(255,255,255)"></path><path d="M 0.566 18.135 C 0.566 18.135 -1.098 14.568 1.28 11.952 C 3.658 9.336 6.987 8.98 9.603 9.574 C 12.219 10.169 15.388 13.062 20.184 12.467 C 24.981 11.872 24.822 10.287 24.901 9.613 C 24.901 9.613 26.644 14.607 21.294 16.192 C 15.944 17.776 10.792 14.923 10.792 14.923 C 10.792 14.923 -0.146 10.207 0.567 18.133 Z" fill="rgb(255,255,255)"></path></svg>