<?xml version="1.0" encoding="UTF-8" standalone="no" ?>
<!DOCTYPE svg PUBLIC "-//W3C//DTD SVG 1.1//EN" "http://www.w3.org/Graphics/SVG/1.1/DTD/svg11.dtd">
<svg xmlns="http://www.w3.org/2000/svg" xmlns:xlink="http://www.w3.org/1999/xlink" version="1.1" width="1080" height="1080" viewBox="0 0 1080 1080" xml:space="preserve">
<desc>Created with Fabric.js 5.2.4</desc>
<defs>
</defs>
<g transform="matrix(1 0 0 1 540 540)" id="a02253ab-dcc0-483d-a7ee-7a27c38baa13"  >
<rect style="stroke: none; stroke-width: 1; stroke-dasharray: none; stroke-linecap: butt; stroke-dashoffset: 0; stroke-linejoin: miter; stroke-miterlimit: 4; fill: rgb(255,255,255); fill-rule: nonzero; opacity: 1; visibility: hidden;" vector-effect="non-scaling-stroke"  x="-540" y="-540" rx="0" ry="0" width="1080" height="1080" />
</g>
<g transform="matrix(1 0 0 1 540 540)" id="7658e372-309b-469f-80c6-f4866f036257"  >
</g>
<g transform="matrix(2.67 0 0 2.67 540 540)"  >
<g style=""   >
		<g transform="matrix(1 0 0 1 -154.96 -0.27)"  >
<path style="stroke: none; stroke-width: 1; stroke-dasharray: none; stroke-linecap: butt; stroke-dashoffset: 0; stroke-linejoin: miter; stroke-miterlimit: 4; fill: rgb(0,0,0); fill-rule: nonzero; opacity: 1;" vector-effect="non-scaling-stroke"  transform=" translate(-47.54, -114.73)" d="M 82.0423 116.711 C 73.244 101.127 65.0258 86.4855 53.2773 71.453 C 46.6254 62.9424 40.3276 53.6261 39.475 42.8747 C 38.5707 31.4883 53.0295 25.9729 55.4374 38.5448 C 57.761 50.6771 56.7286 62.975 62.0567 74.5431 C 64.6008 80.0639 69.4004 83.8268 75.3332 81.2088 C 85.5808 76.6809 75.8127 62.9777 72.8898 57.0716 C 68.1093 47.4216 67.4583 37.3049 66.3496 26.8872 C 65.5515 19.3967 62.5851 11.9767 57.2135 6.57249 C 50.7577 0.0776583 42.4796 -1.55283 33.8092 1.45584 C 20.2058 6.1764 -5.88704 32.408 28.7508 74.071 C 35.6315 82.3455 44.3264 88.9109 52.4329 95.9999 C 66.0336 107.896 77.2645 121.263 82.8595 137.812 C 88.637 154.898 89.8056 175.213 78.3623 189.182 C 63.9743 206.751 47.9329 200.967 39.3225 192.69 C 27.4951 181.32 31.6464 171.667 28.9796 157.467 C 27.5332 149.768 23.6924 142.6 18.8411 136.437 C 15.398 132.063 9.63953 128.083 4.59203 130.449 C -0.275683 132.731 -1.03022 139.649 1.18708 144.532 C 3.40439 149.415 7.63197 153.054 10.8217 157.367 C 13.2569 160.658 18.2663 168.913 17.1577 180.387 C 16.1661 190.647 18.0348 201.705 23.055 210.84 C 38.5707 239.079 76.1395 236.892 90.4212 192.549 C 102.08 156.35 89.0238 129.082 82.0423 116.716 L 82.0423 116.711 Z" stroke-linecap="round" />
</g>
		<g transform="matrix(1 0 0 1 73.26 -95.7)"  >
<path style="stroke: none; stroke-width: 1; stroke-dasharray: none; stroke-linecap: butt; stroke-dashoffset: 0; stroke-linejoin: miter; stroke-miterlimit: 4; fill: rgb(0,0,0); fill-rule: nonzero; opacity: 1;" vector-effect="non-scaling-stroke"  transform=" translate(-275.76, -19.3)" d="M 263.245 35.6364 C 260.183 32.8963 258.712 28.6722 258.756 24.5702 C 258.797 20.4709 260.221 16.4829 262.199 12.8855 C 264.656 8.41453 268.107 4.33424 272.664 2.01737 C 277.222 -0.299502 282.988 -0.603354 287.355 2.05535 C 291.721 4.71134 294.094 10.6066 292.007 15.2593 C 289.956 19.828 285.718 20.2132 282.362 23.1731 C 279.379 25.8073 280.142 26.9115 279.316 30.4357 C 277.538 38.0184 269.417 41.16 263.248 35.6364 L 263.245 35.6364 Z" stroke-linecap="round" />
</g>
		<g transform="matrix(1 0 0 1 85.52 20.63)"  >
<path style="stroke: none; stroke-width: 1; stroke-dasharray: none; stroke-linecap: butt; stroke-dashoffset: 0; stroke-linejoin: miter; stroke-miterlimit: 4; fill: rgb(0,0,0); fill-rule: nonzero; opacity: 1;" vector-effect="non-scaling-stroke"  transform=" translate(-288.02, -135.63)" d="M 300.849 42.4379 C 294.843 39.8443 288.229 44.7141 284.347 49.9691 C 275.922 61.3689 271.488 74.8062 271.518 88.9815 C 271.556 107.56 279.199 124.809 285.753 141.841 C 291.893 157.801 291.743 175.037 284.734 190.818 C 281.196 198.786 273.988 204.423 270.687 212.465 C 268.298 218.284 269.477 226.369 275.285 228.835 C 281.308 231.393 287.979 226.542 291.74 221.203 C 307.912 198.249 297.918 155.834 293.576 143.46 C 273.531 86.3336 300.065 71.8545 305.346 58.835 C 307.711 53.0049 306.64 44.9392 300.849 42.4379 L 300.849 42.4379 Z" stroke-linecap="round" />
</g>
		<g transform="matrix(1 0 0 1 -57.87 0)"  >
<path style="stroke: none; stroke-width: 1; stroke-dasharray: none; stroke-linecap: butt; stroke-dashoffset: 0; stroke-linejoin: miter; stroke-miterlimit: 4; fill: rgb(0,0,0); fill-rule: nonzero; opacity: 1;" vector-effect="non-scaling-stroke"  transform=" translate(-144.63, -115)" d="M 185.463 44.242 C 175.7 1.99303 146.399 -2.60273 133.168 1.51826 C 100.889 11.5752 97.7868 45.5795 103.496 67.8963 C 112.24 102.077 140.782 99.7356 150.591 93.6369 C 158.449 88.7509 160.86 79.8198 164.676 82.5979 C 169.92 86.415 158.945 98.4904 157.071 100.495 C 136.007 122.994 114.703 137.044 108.421 179.95 C 106.566 192.614 109.652 208.032 115.844 219.269 C 117.748 222.725 123.844 232.839 132.348 228.713 C 142.242 223.911 137.791 212.229 136.034 208.588 C 134.277 204.947 124.724 190.278 123.605 178.045 C 118.966 127.392 161.718 118.349 176.88 98.3276 C 192.442 77.7796 188.07 55.5388 185.46 44.242 L 185.463 44.242 Z M 141.049 39.4753 C 140.46 40.4303 140.011 41.2822 139.679 42.096 C 138.766 44.3424 138.761 46.2903 139.286 49.2691 C 140.697 57.2317 135.255 64.6218 126.508 61.8166 C 122.444 60.5116 119.257 57.1313 117.555 53.23 C 115.852 49.3288 115.506 44.9528 115.849 40.7124 C 116.274 35.4439 117.808 30.1237 121.139 26.0109 C 124.471 21.8953 129.802 19.1769 135.064 19.8525 C 140.327 20.528 145.08 25.1075 145.08 30.3923 C 145.08 33.9734 142.822 36.586 141.046 39.4726 L 141.049 39.4753 Z" stroke-linecap="round" />
</g>
		<g transform="matrix(1 0 0 1 158.76 -0.01)"  >
<path style="stroke: none; stroke-width: 1; stroke-dasharray: none; stroke-linecap: butt; stroke-dashoffset: 0; stroke-linejoin: miter; stroke-miterlimit: 4; fill: rgb(0,0,0); fill-rule: nonzero; opacity: 1;" vector-effect="non-scaling-stroke"  transform=" translate(-361.26, -114.99)" d="M 393.505 131.664 C 378.343 111.645 336.408 102.603 341.047 51.9466 C 342.166 39.7165 350.902 25.0448 352.659 21.404 C 354.413 17.7632 358.867 6.08394 348.973 1.27928 C 340.469 -2.84713 334.373 7.26679 332.469 10.7231 C 326.275 21.9602 323.191 37.378 325.046 50.0421 C 331.328 92.9503 352.634 106.998 373.696 129.497 C 375.573 131.501 386.545 143.577 381.301 147.394 C 377.485 150.172 375.074 141.241 367.216 136.355 C 357.404 130.256 328.865 127.915 320.121 162.096 C 314.412 184.412 317.514 218.417 349.793 228.474 C 363.021 232.595 392.325 227.999 402.088 185.75 C 404.697 174.453 409.069 152.212 393.507 131.664 L 393.505 131.664 Z M 361.702 199.597 C 361.702 204.882 356.949 209.461 351.686 210.137 C 346.424 210.812 341.093 208.094 337.762 203.978 C 334.43 199.865 332.897 194.543 332.472 189.277 C 332.128 185.036 332.474 180.66 334.177 176.759 C 335.879 172.858 339.066 169.478 343.131 168.173 C 351.874 165.367 357.317 172.758 355.909 180.72 C 355.38 183.696 355.386 185.647 356.301 187.893 C 356.633 188.707 357.083 189.559 357.671 190.514 C 359.447 193.4 361.708 196.013 361.705 199.594 L 361.702 199.597 Z" stroke-linecap="round" />
</g>
		<g transform="matrix(1 0 0 1 7.05 20.39)"  >
<path style="stroke: none; stroke-width: 1; stroke-dasharray: none; stroke-linecap: butt; stroke-dashoffset: 0; stroke-linejoin: miter; stroke-miterlimit: 4; fill: rgb(0,0,0); fill-rule: nonzero; opacity: 1;" vector-effect="non-scaling-stroke"  transform=" translate(-209.55, -135.39)" d="M 239.236 72.416 C 238.492 67.5517 238.108 61.396 238.155 56.4204 C 238.234 47.956 234.644 41.5235 227.874 41.3418 C 218.338 41.0895 216.543 49.0764 216.314 52.4269 C 215.832 59.5078 217.728 65.2891 220.795 71.6944 C 226.344 83.2869 237.621 99.0221 242.366 111.06 C 248.233 125.937 249.369 140.354 246.569 155.813 C 242.764 176.824 229.95 203.444 204.647 202.684 C 200.787 202.568 196.557 201.048 193.572 198.702 C 188.6 194.792 184.836 187.869 183.637 181.653 C 181.055 168.257 187.249 154.966 189.745 142.055 C 191.477 133.097 188.837 118.035 176.403 118.903 C 168.31 119.467 163.834 128.585 162.578 136.567 C 160.296 151.087 160.609 165.831 162.464 180.397 C 164.267 194.57 170.437 208.715 179.903 218.753 C 190.973 230.492 210.057 232.595 224.235 224.912 C 238.427 217.223 249.685 200.747 254.863 181.369 C 259.494 164.044 259.146 143.84 254.109 126.523 C 251.557 117.742 248.917 108.987 246.433 100.186 C 243.69 90.4762 240.762 82.416 239.233 72.416 L 239.236 72.416 Z" stroke-linecap="round" />
</g>
</g>
</g>
</svg>